<svg xmlns="http://www.w3.org/2000/svg" xmlns:xlink="http://www.w3.org/1999/xlink" version="1.1" x="0px" y="0px" viewBox="0 0 55.98 118.75625" enable-background="new 0 0 55.98 95.005" xml:space="preserve"><g><path d="M55.98,95.005H0V11.547h55.98V95.005z M2.338,92.667h51.303V13.885H2.338V92.667z"/><rect x="1.169" y="37.271" width="53.642" height="2.338"/><path d="M50.28,13.885H33.763V0H50.28V13.885z M36.102,11.547h11.839V2.339H36.102V11.547z"/><polygon points="19.131,12.716 16.792,12.716 16.792,6.358 20.6,6.358 21.164,2.339 6.021,2.339 6.585,6.358 10.393,6.358    10.393,12.716 8.055,12.716 8.055,8.697 4.552,8.697 3.333,0 23.853,0 22.634,8.697 19.131,8.697  "/></g><g><rect x="12.716" y="16.122" width="1.754" height="8.287"/><rect x="13.593" y="19.388" width="4.144" height="1.754"/><rect x="9.45" y="19.388" width="4.143" height="1.754"/></g><g><rect x="42.021" y="19.388" width="4.144" height="1.754"/><rect x="37.878" y="19.388" width="4.143" height="1.754"/></g><text x="0" y="110.005" fill="#000000" font-size="5px" font-weight="bold" font-family="'Helvetica Neue', Helvetica, Arial-Unicode, Arial, Sans-serif">Created by Devin Goodall</text><text x="0" y="115.005" fill="#000000" font-size="5px" font-weight="bold" font-family="'Helvetica Neue', Helvetica, Arial-Unicode, Arial, Sans-serif">from the Noun Project</text></svg>