<svg xmlns="http://www.w3.org/2000/svg" xmlns:xlink="http://www.w3.org/1999/xlink" version="1.1" x="0px" y="0px" viewBox="0 0 100 125" enable-background="new 0 0 100 100" xml:space="preserve"><path fill="#000000" d="M49.881,21.735l-0.226-1.045c-0.005-0.022-0.027-0.033-0.037-0.054c-0.009-0.02-0.001-0.043-0.015-0.061  l-0.705-0.955c-0.009-0.013-0.026-0.012-0.037-0.022c-0.011-0.012-0.01-0.029-0.022-0.039l-1.093-0.829  c-0.01-0.007-0.021-0.002-0.032-0.008c-0.009-0.006-0.011-0.019-0.021-0.023l-0.093-0.044v-0.616c0-0.013-0.012-0.021-0.014-0.033  c-0.001-0.013,0.009-0.023,0.006-0.036l-0.164-0.691c-0.005-0.021-0.026-0.031-0.036-0.051c-0.009-0.019-0.001-0.04-0.014-0.057  l-0.466-0.641c-0.01-0.013-0.026-0.012-0.037-0.022c-0.012-0.012-0.011-0.03-0.023-0.04l-0.729-0.555  c-0.011-0.008-0.024-0.003-0.036-0.01c-0.01-0.006-0.012-0.02-0.023-0.024l-0.955-0.427c-0.01-0.005-0.02,0.002-0.029-0.001  c-0.01-0.004-0.014-0.015-0.024-0.018l-1.119-0.264c-0.009-0.002-0.016,0.005-0.024,0.004s-0.013-0.01-0.021-0.011l-1.168-0.087  c-0.014-0.002-0.024,0.003-0.036,0.002c-0.003,0.001-0.005-0.002-0.008-0.002l-1.209,0.087c-0.009,0.001-0.014,0.01-0.021,0.011  c-0.01,0.002-0.017-0.006-0.026-0.004l-1.105,0.264c-0.011,0.003-0.015,0.014-0.024,0.018c-0.009,0.003-0.02-0.004-0.028,0.001  l-0.955,0.427c-0.012,0.005-0.014,0.019-0.023,0.024c-0.012,0.007-0.025,0.002-0.036,0.01l-0.729,0.555  c-0.014,0.011-0.013,0.029-0.024,0.042c-0.011,0.011-0.029,0.011-0.039,0.024l-0.452,0.641c-0.012,0.017-0.005,0.038-0.013,0.056  c-0.009,0.019-0.029,0.027-0.034,0.048l-0.164,0.691c-0.003,0.013,0.007,0.023,0.006,0.036c-0.002,0.013-0.014,0.021-0.014,0.033  v0.612l-0.101,0.046c-0.011,0.005-0.013,0.018-0.022,0.024c-0.01,0.006-0.022,0.001-0.032,0.008l-1.107,0.829  c-0.014,0.01-0.013,0.028-0.023,0.04c-0.012,0.012-0.03,0.011-0.04,0.024l-0.691,0.955c-0.013,0.018-0.006,0.04-0.015,0.06  c-0.009,0.021-0.03,0.03-0.035,0.053l-0.227,1.045c-0.003,0.012,0.007,0.021,0.006,0.032s-0.013,0.02-0.013,0.031v0.377  c0,0.012,0.012,0.02,0.013,0.031s-0.009,0.021-0.006,0.034l0.227,1.019c0.006,0.024,0.026,0.037,0.037,0.059  c0.007,0.016,0,0.034,0.011,0.049l0.691,0.981c0.015,0.021,0.036,0.031,0.055,0.047c0.007,0.006,0.006,0.017,0.013,0.021  l1.107,0.816c0.011,0.008,0.024,0.006,0.036,0.012c0.009,0.006,0.011,0.018,0.021,0.021l1.42,0.629  c0.012,0.006,0.025,0.004,0.037,0.008c0.006,0.002,0.008,0.009,0.014,0.01l1.672,0.402c0.016,0.003,0.031,0.004,0.047,0.005  c0.001,0,0.002,0.002,0.003,0.002l1.799,0.126c0.007,0.001,0.014,0.001,0.021,0.001s0.014,0,0.021-0.001l1.771-0.126  c0.002,0,0.002-0.002,0.004-0.002c0.015-0.001,0.03-0.002,0.045-0.005l1.66-0.402c0.006-0.001,0.008-0.008,0.014-0.01  c0.012-0.004,0.024-0.003,0.036-0.008l1.434-0.629c0.01-0.004,0.012-0.016,0.021-0.021c0.013-0.007,0.027-0.004,0.039-0.013  l1.093-0.816c0.008-0.006,0.007-0.017,0.014-0.022c0.017-0.015,0.036-0.024,0.05-0.043l0.705-0.981  c0.011-0.015,0.004-0.033,0.012-0.049c0.011-0.022,0.032-0.036,0.038-0.062l0.226-1.019c0.003-0.012-0.007-0.021-0.006-0.033  s0.013-0.02,0.013-0.031v-0.377c0-0.012-0.012-0.02-0.013-0.031S49.884,21.747,49.881,21.735z M36.918,20.012l0.866-0.648v2.436  c0,0.012,0.011,0.018,0.012,0.028c0.001,0.012-0.008,0.021-0.006,0.031l0.038,0.189c0.001,0.003,0.003,0.004,0.004,0.007  c0.001,0.002-0.002,0.004-0.001,0.007l0.126,0.502c0.006,0.023,0.026,0.036,0.037,0.057c0.008,0.015,0.001,0.031,0.011,0.045  l0.452,0.629c0.013,0.019,0.032,0.026,0.048,0.041c0.007,0.007,0.006,0.018,0.014,0.023l0.729,0.553  c0.012,0.009,0.026,0.006,0.038,0.013c0.01,0.005,0.011,0.018,0.021,0.021l0.955,0.428c0.013,0.006,0.025,0.005,0.039,0.008  c0.006,0.002,0.008,0.01,0.014,0.011l1.105,0.265c0.016,0.004,0.03,0.004,0.045,0.005c0.002,0,0.002,0.002,0.004,0.002l1.209,0.087  c0.007,0.001,0.015,0.001,0.021,0.001s0.015,0,0.022-0.001l1.168-0.087c0.002,0,0.002-0.002,0.004-0.002  c0.015-0.001,0.028-0.001,0.043-0.005l1.119-0.265c0.006-0.001,0.008-0.008,0.014-0.01c0.014-0.004,0.027-0.003,0.04-0.009  l0.955-0.428c0.01-0.004,0.011-0.017,0.021-0.021c0.012-0.007,0.026-0.004,0.038-0.013l0.729-0.553  c0.007-0.005,0.006-0.016,0.013-0.021c0.016-0.014,0.034-0.021,0.047-0.039l0.466-0.629c0.011-0.015,0.005-0.034,0.013-0.05  c0.011-0.021,0.032-0.035,0.038-0.06l0.164-0.691c0.003-0.013-0.007-0.023-0.006-0.036c0.002-0.013,0.014-0.021,0.014-0.033v-2.425  l0.843,0.64l0.64,0.866l0.198,0.918l-0.199,0.895l-0.64,0.891l-1.031,0.772l-1.372,0.602l-1.619,0.392l-1.722,0.122l-1.747-0.122  l-1.628-0.391l-1.362-0.604l-1.043-0.771l-0.628-0.891l-0.176-0.771c0,0-0.001,0-0.001-0.001l-0.023-0.12l0.199-0.921L36.918,20.012  z M45.785,23.413l-0.895,0.4l-1.072,0.254l-1.12,0.083l-1.157-0.083l-1.062-0.254l-0.894-0.4l-0.671-0.508l-0.39-0.542l-0.111-0.444  l-0.03-0.15v-2.337l0.071,0.101c0.014,0.019,0.033,0.028,0.05,0.043c0.007,0.007,0.006,0.018,0.014,0.023l0.729,0.554  c0.012,0.009,0.027,0.006,0.04,0.014c0.009,0.005,0.01,0.017,0.02,0.021l0.955,0.427c0.012,0.006,0.025,0.004,0.037,0.008  c0.007,0.002,0.009,0.009,0.015,0.011l1.105,0.265c0.015,0.004,0.027,0.004,0.042,0.005c0.001,0,0.002,0.002,0.004,0.002  l1.209,0.101c0.008,0.001,0.017,0.001,0.024,0.001s0.017,0,0.025-0.001l1.168-0.101c0.002,0,0.003-0.002,0.005-0.002  c0.013-0.002,0.025-0.002,0.039-0.005l1.119-0.265c0.006-0.001,0.008-0.009,0.014-0.01c0.014-0.004,0.026-0.003,0.039-0.009  l0.955-0.427c0.01-0.004,0.011-0.016,0.02-0.021c0.013-0.008,0.028-0.005,0.04-0.014l0.729-0.554  c0.008-0.006,0.006-0.016,0.013-0.022c0.016-0.014,0.035-0.022,0.048-0.04l0.088-0.121v2.348l-0.142,0.599l-0.403,0.544  L45.785,23.413z M40.706,16.251l0.95-0.241l1.042-0.07l1.006,0.07l0.959,0.241l0.797,0.351l0.595,0.446l0.349,0.486l0.111,0.504  l-0.11,0.491l-0.354,0.493l-0.588,0.441l-0.731,0.322l-0.908-0.215c-0.009-0.002-0.015,0.005-0.023,0.004  c-0.008-0.001-0.012-0.01-0.021-0.011l-1.055-0.088c-0.015-0.002-0.026,0.003-0.04,0.003c-0.004,0-0.006-0.003-0.01-0.003  l-1.095,0.088c-0.009,0.001-0.013,0.01-0.021,0.011c-0.009,0.001-0.017-0.006-0.025-0.004l-0.903,0.217l-0.725-0.324l-0.599-0.441  l-0.34-0.488l-0.11-0.496l0.11-0.505l0.341-0.489l0.598-0.44L40.706,16.251z"/><path fill="#000000" d="M76.814,12.962c-0.028-0.125-0.081-0.242-0.153-0.347l-0.227-0.326c-0.062-0.091-0.14-0.17-0.229-0.235  l-0.377-0.277c-0.03-0.021-0.061-0.042-0.093-0.061l-9.105-5.255V6.158c0-0.357-0.191-0.688-0.501-0.866L62.22,3.04  c-0.151-0.088-0.324-0.134-0.499-0.134h-1.243l-1.028-0.584c-0.025-0.015-0.052-0.028-0.078-0.04l-0.466-0.213  c-0.062-0.028-0.126-0.05-0.192-0.065L58.16,1.877c-0.047-0.011-0.095-0.019-0.144-0.022l-0.604-0.049  c-0.026-0.002-0.053-0.003-0.08-0.003s-0.055,0.001-0.082,0.004l-0.59,0.049c-0.048,0.004-0.095,0.011-0.142,0.021l-0.554,0.127  c-0.06,0.014-0.118,0.033-0.174,0.057L55.3,2.273c-0.035,0.016-0.069,0.033-0.103,0.052l-29.293,16.91  c-0.041,0.024-0.081,0.051-0.118,0.08l-0.352,0.276c-0.071,0.056-0.134,0.121-0.188,0.194l-0.24,0.327  c-0.083,0.112-0.142,0.241-0.171,0.378l-0.074,0.339c-0.016,0.07-0.023,0.142-0.023,0.214v64.083c0,0.069,0.007,0.139,0.021,0.207  l0.074,0.352c0.029,0.139,0.088,0.271,0.173,0.385l0.24,0.327c0.053,0.072,0.115,0.137,0.185,0.192l0.352,0.278  c0.039,0.03,0.079,0.058,0.122,0.082L42.2,96.341c0.026,0.016,0.054,0.03,0.082,0.043l0.464,0.213  c0.062,0.028,0.128,0.051,0.195,0.065l0.554,0.127c0.045,0.01,0.09,0.017,0.136,0.021l0.59,0.051  c0.028,0.003,0.058,0.004,0.086,0.004s0.056-0.001,0.084-0.004l0.605-0.051c0.046-0.004,0.093-0.011,0.139-0.021l0.553-0.126  c0.063-0.014,0.125-0.035,0.186-0.062l0.477-0.213c0.031-0.014,0.062-0.03,0.092-0.047l29.295-16.91  c0.031-0.019,0.062-0.038,0.091-0.06l0.377-0.276c0.09-0.065,0.168-0.146,0.231-0.237l0.227-0.327  c0.073-0.106,0.126-0.227,0.154-0.354l0.075-0.34c0.016-0.07,0.023-0.144,0.023-0.216V13.513c0-0.075-0.009-0.15-0.025-0.224  L76.814,12.962z M43.767,95.517l-0.51-0.116l-0.421-0.193l-16.259-9.369l-0.306-0.242l-0.179-0.243l-0.048-0.226l0.047-0.212  l0.199-0.261c0.101-0.131,0.075-0.319-0.057-0.42c-0.058-0.045-0.128-0.056-0.196-0.053V21.077l0.054-0.245l0.179-0.243l0.305-0.239  L55.833,3.46l0.451-0.196l0.503-0.115l0.545-0.045l0.56,0.045l0.5,0.115l0.424,0.193l0.263,0.149h-1.469  c-0.008-0.001-0.012-0.01-0.02-0.011l-0.113-0.012l-0.113-0.012c-0.013-0.001-0.021,0.01-0.033,0.01  c-0.013,0-0.021-0.011-0.033-0.009l-0.095,0.011h-0.001l-0.113,0.012c-0.008,0.001-0.012,0.01-0.02,0.011h-0.867  c-0.028,0-0.046,0.022-0.071,0.029c-0.026,0.007-0.054-0.004-0.078,0.011l-3.91,2.252c-0.013,0.007-0.014,0.023-0.024,0.032  c-0.032,0.023-0.048,0.053-0.068,0.088c-0.02,0.034-0.037,0.062-0.042,0.102c-0.002,0.015-0.016,0.023-0.016,0.038v0.33  L27.637,20.546c-0.008,0.005-0.008,0.015-0.016,0.021c-0.007,0.005-0.017,0.001-0.023,0.007l-0.139,0.113  c-0.018,0.015-0.017,0.038-0.03,0.056c-0.028,0.024-0.056,0.052-0.074,0.083c-0.009,0.014-0.001,0.03-0.007,0.045  c-0.015,0.021-0.031,0.039-0.04,0.062c-0.035,0.087-0.018,0.175,0.024,0.251c0.004,0.012-0.004,0.024,0.001,0.035  c0.005,0.014,0.019,0.02,0.025,0.031c0.004,0.008-0.001,0.018,0.003,0.025c0.007,0.013,0.021,0.019,0.028,0.029  c0.004,0.008,0,0.018,0.005,0.025c0.014,0.021,0.034,0.031,0.052,0.048c0.007,0.007,0.005,0.019,0.013,0.024l0.139,0.113  c0.008,0.006,0.018,0.004,0.025,0.009c0.006,0.005,0.007,0.015,0.014,0.019l16.118,9.305c0.009,0.005,0.02,0.004,0.028,0.008  c0.006,0.002,0.007,0.01,0.013,0.012l0.189,0.074c0.011,0.004,0.022,0.003,0.033,0.006c0.005,0.002,0.006,0.007,0.011,0.008  l0.113,0.025c0.021,0.005,0.044,0.007,0.065,0.007h0.099h0.127c0.023,0,0.049-0.003,0.073-0.009l0.102-0.025  c0.004-0.001,0.005-0.005,0.009-0.007c0.01-0.002,0.019-0.001,0.028-0.005l0.188-0.074c0.006-0.002,0.007-0.01,0.013-0.012  c0.009-0.005,0.019-0.003,0.027-0.008l29.131-16.822c0.003-0.002,0.003-0.006,0.006-0.008s0.008-0.001,0.011-0.003l0.15-0.101  c0.034-0.023,0.042-0.062,0.063-0.096c0.001,0,0.002-0.002,0.003-0.003c0.001-0.003,0.004-0.006,0.005-0.009  c0.019-0.021,0.044-0.036,0.057-0.062c0.001-0.003-0.001-0.005,0-0.008c0.003-0.004,0.008-0.006,0.01-0.01  c0.008-0.015-0.001-0.029,0.004-0.044c0.006-0.017,0.022-0.026,0.025-0.045l0.013-0.077c0.004-0.021-0.013-0.037-0.014-0.058  c0.006-0.038,0.007-0.076-0.001-0.113c-0.005-0.024-0.028-0.036-0.038-0.058c-0.004-0.018-0.021-0.028-0.027-0.045  c-0.007-0.018,0-0.039-0.01-0.055c-0.012-0.021-0.037-0.022-0.053-0.039s-0.017-0.042-0.037-0.056l-0.15-0.101  c-0.003-0.002-0.007,0-0.01-0.002c-0.004-0.002-0.003-0.007-0.007-0.009l-8.073-4.666V7.558l9.146,5.278l0.319,0.235l0.165,0.237  l0.055,0.237v64.042l-0.056,0.25l-0.165,0.237l-0.324,0.238L45.799,95.21l-0.425,0.19l-0.512,0.116l-0.556,0.047L43.767,95.517z   M44.593,30.316l-0.151,0.06l-0.046,0.012h-0.089h-0.063l-0.062-0.014l-0.145-0.057l-15.899-9.179L51.991,7.37v1.981v2.755  c0,0.015,0.014,0.023,0.016,0.037c0.005,0.04,0.022,0.069,0.043,0.104c0.02,0.033,0.035,0.062,0.066,0.086  c0.012,0.009,0.013,0.025,0.025,0.033l2.156,1.234l0.149,0.317c0.01,0.021,0.029,0.031,0.043,0.049  c0.008,0.01,0.005,0.024,0.014,0.033l0.59,0.604c0.011,0.011,0.027,0.008,0.039,0.017s0.013,0.026,0.026,0.034l0.855,0.489  c0.013,0.007,0.026,0.005,0.039,0.01c0.007,0.004,0.009,0.012,0.017,0.015l1.03,0.339c0.014,0.004,0.026,0.004,0.04,0.006  c0.003,0.001,0.005,0.005,0.009,0.006l1.17,0.176c0.016,0.002,0.03,0.003,0.045,0.003h1.206c0.015,0,0.03-0.001,0.045-0.003  l1.156-0.176c0.004-0.001,0.006-0.005,0.01-0.006c0.013-0.002,0.025-0.002,0.038-0.006l1.045-0.339  c0.008-0.003,0.01-0.012,0.017-0.015c0.014-0.005,0.029-0.003,0.042-0.011l0.841-0.489c0.013-0.008,0.014-0.024,0.025-0.033  c0.011-0.008,0.025-0.005,0.035-0.015l0.604-0.604c0.009-0.009,0.006-0.022,0.014-0.032c0.015-0.018,0.035-0.029,0.046-0.052  l0.149-0.319l2.143-1.233c0.013-0.007,0.014-0.023,0.024-0.032c0.032-0.023,0.048-0.053,0.068-0.088  c0.02-0.034,0.037-0.062,0.042-0.102c0.002-0.015,0.016-0.023,0.016-0.038V9.352v-0.11l7.585,4.373L44.593,30.316z M60.659,14.929  l-1.114,0.17H58.39l-1.126-0.169l-0.795-0.262h0.01h4.986L60.659,14.929z M56.679,6.983c0.013-0.008,0.014-0.023,0.024-0.032  c0.015-0.011,0.03-0.015,0.043-0.028h4.442c0.013,0.014,0.028,0.018,0.043,0.028c0.011,0.009,0.012,0.025,0.024,0.032l3.528,2.048  l-1.82,1.047V10.02c0-0.023-0.02-0.038-0.024-0.06c-0.005-0.022,0.007-0.045-0.003-0.066l-0.251-0.541  c-0.008-0.018-0.028-0.021-0.039-0.036c-0.01-0.015-0.006-0.033-0.019-0.047L62.15,8.778c-0.011-0.011-0.027-0.008-0.039-0.018  c-0.013-0.009-0.014-0.026-0.027-0.034l-0.705-0.401C61.37,8.32,61.36,8.326,61.352,8.321c-0.01-0.004-0.012-0.015-0.021-0.019  L60.5,8.012c-0.011-0.004-0.021,0.004-0.03,0.002C60.459,8.011,60.454,8,60.443,7.998L59.5,7.861  c-0.009-0.001-0.014,0.006-0.022,0.006c-0.008-0.001-0.013-0.009-0.021-0.009h-0.992c-0.008,0-0.013,0.008-0.021,0.009  c-0.009,0-0.015-0.007-0.023-0.006l-0.93,0.137C57.48,8,57.476,8.011,57.466,8.014c-0.01,0.002-0.019-0.006-0.028-0.002  l-0.844,0.291c-0.01,0.004-0.013,0.015-0.021,0.02c-0.01,0.004-0.021-0.002-0.031,0.004L55.85,8.728  c-0.014,0.008-0.015,0.024-0.026,0.034c-0.012,0.009-0.027,0.006-0.038,0.017L55.308,9.27C55.296,9.281,55.3,9.299,55.29,9.312  c-0.009,0.013-0.026,0.015-0.034,0.029l-0.277,0.541c-0.012,0.022,0,0.047-0.006,0.07c-0.006,0.024-0.027,0.04-0.027,0.066v0.044  l-1.794-1.032L56.679,6.983z M55.545,10.408v-0.316l0.224-0.437l0.416-0.429l0.635-0.368l0.784-0.271l0.886-0.13h0.945l0.893,0.13  l0.779,0.272l0.645,0.367l0.411,0.423l0.202,0.437v0.339l-0.339,0.203l-0.041,0.017c-0.008,0.003-0.008,0.012-0.015,0.016  c-0.007,0.003-0.016-0.001-0.022,0.003l-0.396,0.229l-0.18-0.096c-0.009-0.005-0.019,0.001-0.027-0.003  c-0.009-0.003-0.011-0.014-0.02-0.017l-0.83-0.276c-0.008-0.003-0.015,0.004-0.022,0.002c-0.009-0.003-0.013-0.012-0.021-0.014  l-0.943-0.163c-0.01-0.002-0.018,0.007-0.026,0.006c-0.01-0.001-0.015-0.01-0.024-0.01h-0.992c-0.01,0-0.016,0.01-0.024,0.01  c-0.01,0.001-0.018-0.008-0.027-0.006l-0.93,0.163c-0.008,0.001-0.012,0.011-0.02,0.013s-0.015-0.004-0.022-0.002l-0.844,0.276  c-0.011,0.004-0.014,0.016-0.023,0.021c-0.009,0.004-0.02-0.002-0.028,0.003l-0.166,0.092L55.545,10.408z M57.606,11.077  l0.888-0.155h0.935l0.902,0.156l0.183,0.061H57.42L57.606,11.077z M64.854,8.377l-3.147-1.826V4.715l3.147,1.806V8.377z   M61.106,6.323h-4.278V4.371h4.278V6.323z M56.229,4.715v1.836l-3.146,1.826V6.521L56.229,4.715z M56.501,14.068v-2.153h4.92v2.153  H56.501z M52.591,9.872l3.311,1.916v2.057l-1.221-0.716c0,0,0,0-0.001,0c0,0,0-0.002-0.001-0.002l-2.088-1.195V9.872z   M63.257,13.128L63.257,13.128l-1.236,0.719v-2.059l3.311-1.916v2.062L63.257,13.128z"/><text x="0" y="115" fill="#000000" font-size="5px" font-weight="bold" font-family="'Helvetica Neue', Helvetica, Arial-Unicode, Arial, Sans-serif">Created by Lluisa Iborra</text><text x="0" y="120" fill="#000000" font-size="5px" font-weight="bold" font-family="'Helvetica Neue', Helvetica, Arial-Unicode, Arial, Sans-serif">from the Noun Project</text></svg>