G04 EAGLE Gerber X2 export*
%TF.Part,Single*%
%TF.FileFunction,Copper,L2,Bot,Mixed*%
%TF.FilePolarity,Positive*%
%TF.GenerationSoftware,Autodesk,EAGLE,9.1.1*%
%TF.CreationDate,2018-07-26T12:17:36Z*%
G75*
%MOMM*%
%FSLAX34Y34*%
%LPD*%
%AMOC8*
5,1,8,0,0,1.08239X$1,22.5*%
G01*
%ADD10C,1.208000*%
%ADD11C,1.524000*%


D10*
X217890Y277280D02*
X217890Y289360D01*
X197890Y289360D02*
X197890Y277280D01*
X177890Y277280D02*
X177890Y289360D01*
X157890Y289360D02*
X157890Y277280D01*
X137890Y277280D02*
X137890Y289360D01*
X117890Y289360D02*
X117890Y277280D01*
X97890Y277280D02*
X97890Y289360D01*
X77890Y289360D02*
X77890Y277280D01*
X217890Y137280D02*
X217890Y125200D01*
X197890Y125200D02*
X197890Y137280D01*
X177890Y137280D02*
X177890Y125200D01*
X157890Y125200D02*
X157890Y137280D01*
X137890Y137280D02*
X137890Y125200D01*
X117890Y125200D02*
X117890Y137280D01*
X97890Y137280D02*
X97890Y125200D01*
X77890Y125200D02*
X77890Y137280D01*
D11*
X181610Y50800D02*
X196850Y50800D01*
X196850Y76200D02*
X181610Y76200D01*
X217170Y50800D02*
X232410Y50800D01*
X232410Y76200D02*
X217170Y76200D01*
X274320Y40640D02*
X289560Y40640D01*
X289560Y66040D02*
X274320Y66040D01*
X274320Y91440D02*
X289560Y91440D01*
X255270Y375920D02*
X255270Y391160D01*
X280670Y391160D02*
X280670Y375920D01*
X156210Y377190D02*
X156210Y392430D01*
X130810Y392430D02*
X130810Y377190D01*
X105410Y377190D02*
X105410Y392430D01*
X80010Y392430D02*
X80010Y377190D01*
M02*
