M48
;GenerationSoftware,Autodesk,EAGLE,9.1.1*%
;CreationDate,2018-07-26T12:17:36Z*%
FMAT,2
ICI,OFF
METRIC,TZ,000.000
T2C0.700
T1C1.016
%
G90
M71
T1
X18923Y5080
X18923Y7620
X22479Y5080
X22479Y7620
X28194Y4064
X28194Y6604
X28194Y9144
X25527Y38354
X28067Y38354
X15621Y38481
X13081Y38481
X10541Y38481
X8001Y38481
T2
X21789Y27728
X19789Y27728
X17789Y27728
X15789Y27728
X13789Y27728
X11789Y27728
X9789Y27728
X7789Y27728
X21789Y13728
X19789Y13728
X17789Y13728
X15789Y13728
X13789Y13728
X11789Y13728
X9789Y13728
X7789Y13728
M30