<svg xmlns="http://www.w3.org/2000/svg" xmlns:xlink="http://www.w3.org/1999/xlink" version="1.1" x="0px" y="0px" viewBox="0 0 115.128 37.5" enable-background="new 0 0 115.128 30" xml:space="preserve"><path fill="#000000" d="M110.128,16.728H88.19c0.099-0.563,0.161-1.138,0.161-1.728l0,0c0-0.59-0.062-1.165-0.161-1.728h21.938  V16.728z M26.777,15c0-0.59,0.062-1.165,0.161-1.728H5v3.455h21.938C26.839,16.165,26.777,15.59,26.777,15L26.777,15z M29.422,15  c0,5.523,4.477,10,10,10V5C33.9,5,29.422,9.477,29.422,15z M42.762,5.488C42.755,5.218,42.536,5,42.264,5c-0.001,0-0.142,0-0.353,0  v20c0.212,0,0.353,0,0.353,0c0.271,0,0.49-0.218,0.498-0.488c0.226-1.125,1.219-1.972,2.411-1.972V7.46  C43.981,7.46,42.988,6.613,42.762,5.488z M75.701,5V25c5.523,0,10-4.477,10-10C85.702,9.477,81.225,5,75.701,5z M72.362,5.488  c-0.226,1.125-1.219,1.972-2.411,1.972v0H53.467V22.54h16.484c1.192,0,2.185,0.848,2.411,1.973c0.001,0,0.001,0,0.002,0  C72.37,24.782,72.589,25,72.86,25c0.004,0,0.049,0,0.049,0h0.304V5c-0.212,0-0.353,0-0.353,0C72.589,5,72.37,5.218,72.362,5.488z   M47.661,22.54h3.318V7.46h-3.318V22.54z"/><text x="0" y="45" fill="#000000" font-size="5px" font-weight="bold" font-family="'Helvetica Neue', Helvetica, Arial-Unicode, Arial, Sans-serif">Created by Victor Bolivar</text><text x="0" y="50" fill="#000000" font-size="5px" font-weight="bold" font-family="'Helvetica Neue', Helvetica, Arial-Unicode, Arial, Sans-serif">from the Noun Project</text></svg>