<svg xmlns="http://www.w3.org/2000/svg" xmlns:xlink="http://www.w3.org/1999/xlink" x="0" y="0" version="1.1" viewBox="0 0 100 125" xml:space="preserve" style="enable-background:new 0 0 100 100"><path d="M89.9,42.6c0-0.4-0.2-0.8-0.7-0.9l-1-0.2c0.2-1.7,0.8-6.1,0.4-8.5c-0.1-0.4-0.5-0.7-0.9-0.6C87.3,32.6,87,33,87,33.4 c0.3,2.1-0.2,6.4-0.4,8l-1.4-0.2c-0.4-0.1-0.8,0.2-0.9,0.7c0,0,0,0.1,0,0.1l0,0c-0.2,3.3-1.1,6.7-2.9,10.1c0-0.7,0.1-1.4,0.1-2 c0-17.5-14.3-31.8-31.8-31.8S17.9,32.5,17.9,50c0,9.3,4,18,10.9,24c-3.8-1.2-6.9-2.9-9.3-5.2l0,0c0,0,0,0-0.1-0.1 c-0.3-0.3-0.8-0.2-1.1,0.2l-0.8,1.1c-1.3-1-4.7-3.6-5.9-5.3c-0.3-0.4-0.7-0.4-1.1-0.2c-0.4,0.3-0.4,0.7-0.2,1.1 c1.4,1.9,4.9,4.7,6.3,5.7l-0.6,0.8c-0.3,0.3-0.2,0.8,0.1,1.1l0,0c3.8,3.1,9,5.4,15.5,6.8c5.2,1.1,11.3,1.7,18.2,1.7 c8.8,0,16.8-3.6,22.6-9.4l0,0c7.4-7.4,12.6-14.5,15.3-21.1c0-0.1,0.1-0.1,0.1-0.2c0,0,0,0,0,0C88.9,48.2,89.6,45.3,89.9,42.6 L89.9,42.6z M84.7,48.4l2.1,0.5c-0.1,0.4-0.3,0.7-0.4,1.1l-2.1-0.5C84.4,49.1,84.6,48.8,84.7,48.4z M87.3,47.6l-2.2-0.5 c0.4-1.4,0.6-2.8,0.7-4.2l2.4,0.4C88,44.6,87.7,46.1,87.3,47.6z M22.6,75.5l1.3-1.8c0.3,0.2,0.7,0.3,1,0.5L23.6,76 C23.3,75.8,22.9,75.7,22.6,75.5z M19.1,70.6c1.1,0.9,2.2,1.7,3.5,2.4l-1.3,1.8c-1.3-0.7-2.5-1.5-3.6-2.3L19.1,70.6z M49.7,80.2 c-10.1,0-18.3-1.2-24.7-3.7l1.3-1.8c1.8,0.7,3.7,1.2,5.7,1.7c0,0,0.1,0.1,0.1,0.1l0,0c0.2,0,0.4,0.1,0.6,0.1 c5.5,1.1,11.4,1.2,16.9,1.2C65,77.8,77.5,65.4,77.5,50S65,22.2,49.7,22.2S21.8,34.6,21.8,50c0,11.8,7.4,21.9,17.7,25.9 c-2.2-0.2-4.4-0.4-6.5-0.9c-0.1,0-0.3-0.1-0.4-0.1c-8.3-5.7-13.2-15-13.2-25c0-16.7,13.6-30.2,30.2-30.2S79.9,33.3,79.9,50 S66.4,80.2,49.7,80.2z M49.7,76.3c-14.5,0-26.3-11.8-26.3-26.3s11.8-26.3,26.3-26.3S76,35.5,76,50S64.2,76.3,49.7,76.3z M81,55.7 L81,55.7c1.2-1.6,2-3.3,2.8-4.9l2.1,0.5c-1.6,3.6-3.9,7.4-7,11.3C79.8,60.5,80.5,58.2,81,55.7z"/><text x="0" y="115" fill="#000" font-family="'Helvetica Neue', Helvetica, Arial-Unicode, Arial, Sans-serif" font-size="5" font-weight="bold">Created by Anton Gajdosik</text><text x="0" y="120" fill="#000" font-family="'Helvetica Neue', Helvetica, Arial-Unicode, Arial, Sans-serif" font-size="5" font-weight="bold">from the Noun Project</text></svg>