<svg xmlns="http://www.w3.org/2000/svg" xmlns:xlink="http://www.w3.org/1999/xlink" x="0" y="0" enable-background="new 0 0 32 32" version="1.1" viewBox="0 0 32 40" xml:space="preserve"><path d="M21,2H11c-0.5523071,0-1,0.4476929-1,1v1c0,0.5522461,0.4476929,1,1,1h3v19.0893555 c0,0.0664062,0.0065918,0.1326904,0.0197754,0.1978149l0.9909668,4.9106445 C15.1047363,29.6637573,15.513855,29.9991455,15.9891968,30c0.0005493,0,0.0012207,0,0.00177,0 c0.4746704,0,0.8839722-0.3336792,0.9795532-0.7987061l1.0090332-4.9106445C17.9931641,24.2243652,18,24.1569824,18,24.0893555V5h3 c0.5523071,0,1-0.4477539,1-1V3C22,2.4476929,21.5523071,2,21,2z M17,24.0893555L15.9909668,29L15,24.0893555V5h2V24.0893555z M21,4 H11V3h10V4z"/><text x="0" y="47" fill="#000" font-family="'Helvetica Neue', Helvetica, Arial-Unicode, Arial, Sans-serif" font-size="5" font-weight="bold">Created by Musket</text><text x="0" y="52" fill="#000" font-family="'Helvetica Neue', Helvetica, Arial-Unicode, Arial, Sans-serif" font-size="5" font-weight="bold">from the Noun Project</text></svg>