<svg xmlns="http://www.w3.org/2000/svg" xmlns:xlink="http://www.w3.org/1999/xlink" x="0" y="0" enable-background="new 0 154.445 595.279 418" version="1.1" viewBox="0 154.445 595.279 522.5" xml:space="preserve"><g><path d="M529.654,272.074V188.02c0-3.368-2.246-6.098-5.019-6.098H83.274c-2.771,0-5.015,2.732-5.015,6.098v353.628 c0,3.368,2.244,6.098,5.015,6.098h441.364c2.771,0,5.018-2.729,5.018-6.098v-7.84l18.813-20.211V290.265L529.654,272.074z M545.842,511.936l-18.604,19.985v7.752c0,3.33-2.221,6.03-4.96,6.03H85.841c-2.737,0-4.956-2.7-4.956-6.03V189.996 c0-3.33,2.219-6.032,4.956-6.032h436.435c2.739,0,4.96,2.702,4.96,6.032v83.115l18.604,17.987v220.837H545.842z"/><path d="M529.654,272.074V188.02c0-3.368-2.246-6.098-5.019-6.098H83.274c-2.771,0-5.015,2.732-5.015,6.098v353.628 c0,3.368,2.244,6.098,5.015,6.098h441.364c2.771,0,5.018-2.729,5.018-6.098v-7.84l18.813-20.211V290.265L529.654,272.074z M545.842,511.936l-18.604,19.985v7.752c0,3.33-2.221,6.03-4.96,6.03H85.841c-2.737,0-4.956-2.7-4.956-6.03V189.996 c0-3.33,2.219-6.032,4.956-6.032h436.435c2.739,0,4.96,2.702,4.96,6.032v83.115l18.604,17.987v220.837H545.842z"/><path d="M529.654,272.074V188.02c0-3.368-2.246-6.098-5.019-6.098H83.274c-2.771,0-5.015,2.732-5.015,6.098v353.628 c0,3.368,2.244,6.098,5.015,6.098h441.364c2.771,0,5.018-2.729,5.018-6.098v-7.84l18.813-20.211V290.265L529.654,272.074z M545.842,511.936l-18.604,19.985v7.752c0,3.33-2.221,6.03-4.96,6.03H85.841c-2.737,0-4.956-2.7-4.956-6.03V189.996 c0-3.33,2.219-6.032,4.956-6.032h436.435c2.739,0,4.96,2.702,4.96,6.032v83.115l18.604,17.987v220.837H545.842z"/><path d="M529.654,272.074V188.02c0-3.368-2.246-6.098-5.019-6.098H83.274c-2.771,0-5.015,2.732-5.015,6.098v353.628 c0,3.368,2.244,6.098,5.015,6.098h441.364c2.771,0,5.018-2.729,5.018-6.098v-7.84l18.813-20.211V290.265L529.654,272.074z M545.842,511.936l-18.604,19.985v7.752c0,3.33-2.221,6.03-4.96,6.03H85.841c-2.737,0-4.956-2.7-4.956-6.03V189.996 c0-3.33,2.219-6.032,4.956-6.032h436.435c2.739,0,4.96,2.702,4.96,6.032v83.115l18.604,17.987v220.837H545.842z"/><path d="M529.654,272.074V188.02c0-3.368-2.246-6.098-5.019-6.098H83.274c-2.771,0-5.015,2.732-5.015,6.098v353.628 c0,3.368,2.244,6.098,5.015,6.098h441.364c2.771,0,5.018-2.729,5.018-6.098v-7.84l18.813-20.211V290.265L529.654,272.074z M545.842,511.936l-18.604,19.985v7.752c0,3.33-2.221,6.03-4.96,6.03H85.841c-2.737,0-4.956-2.7-4.956-6.03V189.996 c0-3.33,2.219-6.032,4.956-6.032h436.435c2.739,0,4.96,2.702,4.96,6.032v83.115l18.604,17.987v220.837H545.842z"/><path d="M529.654,272.074V188.02c0-3.368-2.246-6.098-5.019-6.098H83.274c-2.771,0-5.015,2.732-5.015,6.098v353.628 c0,3.368,2.244,6.098,5.015,6.098h441.364c2.771,0,5.018-2.729,5.018-6.098v-7.84l18.813-20.211V290.265L529.654,272.074z M545.842,511.936l-18.604,19.985v7.752c0,3.33-2.221,6.03-4.96,6.03H85.841c-2.737,0-4.956-2.7-4.956-6.03V189.996 c0-3.33,2.219-6.032,4.956-6.032h436.435c2.739,0,4.96,2.702,4.96,6.032v83.115l18.604,17.987v220.837H545.842z"/><g><path d="M529.654,272.074V188.02c0-3.368-2.246-6.098-5.019-6.098H83.274c-2.771,0-5.015,2.732-5.015,6.098v353.628 c0,3.368,2.244,6.098,5.015,6.098h441.364c2.771,0,5.018-2.729,5.018-6.098v-7.84l18.813-20.211V290.265L529.654,272.074z M545.842,511.936l-18.604,19.985v7.752c0,3.33-2.221,6.03-4.96,6.03H85.841c-2.737,0-4.956-2.7-4.956-6.03V189.996 c0-3.33,2.219-6.032,4.956-6.032h436.435c2.739,0,4.96,2.702,4.96,6.032v83.115l18.604,17.987v220.837H545.842z"/></g></g><rect width="111.969" height="78.609" x="40.315" y="249.129"/><polygon points="88.656 462.306 88.656 459.642 71.01 459.642 71.01 526.259 88.656 526.259 88.656 523.595 161.9 523.595 161.9 462.306"/><path d="M508.612,433.843v-26.425h-4.407v-3.42c0-2.502-2.03-4.532-4.532-4.532c-2.507,0-4.537,2.03-4.537,4.532v3.42h-11.456V404 c0-2.502-2.026-4.532-4.532-4.532c-2.502,0-4.533,2.03-4.533,4.532v3.418h-11.455v-3.416c0-2.502-2.03-4.532-4.533-4.532 c-2.506,0-4.536,2.03-4.536,4.532v3.416h-11.456v-3.414c0-2.502-2.026-4.532-4.532-4.532c-2.503,0-4.533,2.03-4.533,4.532v3.414 h-11.455v-3.412c0-2.502-2.031-4.532-4.533-4.532c-2.506,0-4.536,2.03-4.536,4.532v3.412h-11.456v-3.41 c0-2.502-2.026-4.532-4.533-4.532c-2.502,0-4.532,2.03-4.532,4.532v3.41h-11.456v-3.408c0-2.502-2.03-4.532-4.532-4.532 c-2.506,0-4.537,2.03-4.537,4.532v3.408h-11.455v-3.406c0-2.502-2.026-4.532-4.533-4.532c-2.502,0-4.532,2.03-4.532,4.532v3.406 H340.02v-3.404c0-2.502-2.03-4.532-4.532-4.532c-2.507,0-4.537,2.03-4.537,4.532v3.404h-11.456v-3.401 c0-2.503-2.026-4.533-4.532-4.533c-2.502,0-4.532,2.03-4.532,4.533v3.401h-11.448v-3.399c0-2.503-2.03-4.533-4.532-4.533 c-2.504,0-4.535,2.03-4.535,4.533v3.399h-11.455v-3.397c0-2.503-2.028-4.533-4.533-4.533c-2.504,0-4.534,2.03-4.534,4.533v3.397 h-4.405v53.818h4.405v1.791c0,2.506,2.028,4.534,4.532,4.534c2.505,0,4.535-2.028,4.535-4.534v-1.791h11.455v1.793 c0,2.506,2.029,4.534,4.533,4.534s4.534-2.028,4.534-4.534v-1.793h11.456v1.795c0,2.506,2.026,4.534,4.532,4.534 c2.503,0,4.533-2.028,4.533-4.534v-1.795h11.455v1.797c0,2.506,2.031,4.535,4.533,4.535c2.506,0,4.536-2.029,4.536-4.535v-1.797 h11.456v1.799c0,2.506,2.026,4.535,4.533,4.535c2.502,0,4.532-2.029,4.532-4.535v-1.799h11.456v1.801 c0,2.506,2.03,4.535,4.532,4.535c2.506,0,4.537-2.029,4.537-4.535v-1.801h11.455v1.803c0,2.506,2.026,4.535,4.533,4.535 c2.502,0,4.532-2.029,4.532-4.535v-1.803h11.456v1.805c0,2.506,2.03,4.535,4.532,4.535c2.507,0,4.537-2.029,4.537-4.535v-1.805 h11.455v1.807c0,2.507,2.027,4.535,4.533,4.535c2.502,0,4.532-2.028,4.532-4.535v-1.807h11.456v1.809 c0,2.507,2.03,4.535,4.533,4.535c2.506,0,4.536-2.028,4.536-4.535v-1.809h11.456v1.811c0,2.507,2.026,4.535,4.532,4.535 c2.502,0,4.533-2.028,4.533-4.535v-1.811h11.455v1.813c0,2.507,2.031,4.535,4.533,4.535c2.506,0,4.536-2.028,4.536-4.535v-1.813 h4.407v-21.095c-1.331-0.439-2.294-1.675-2.294-3.149S507.281,434.282,508.612,433.843z"/><path d="M381.745,193.172v18.652h141.557v-18.652H381.745z M395.174,206.748h-8.498v-8.498h8.498V206.748z M412.547,206.748h-8.498 v-8.498h8.498V206.748z M429.922,206.748h-8.497v-8.498h8.497V206.748z M447.296,206.748h-8.498v-8.498h8.498V206.748z M464.669,206.748h-8.498v-8.498h8.498V206.748z M482.044,206.748h-8.497v-8.498h8.497V206.748z M499.418,206.748h-8.498v-8.498 h8.498V206.748z M516.791,206.748h-8.498v-8.498h8.498V206.748z"/><path d="M199.471,193.17v18.652h174.465V193.17H199.471z M212.899,206.746h-8.498v-8.498h8.498V206.746z M230.275,206.746h-8.498 v-8.498h8.498V206.746z M247.648,206.746h-8.498v-8.498h8.498V206.746z M265.021,206.746h-8.498v-8.498h8.498V206.746z M282.396,206.746h-8.497v-8.498h8.497V206.746z M299.772,206.746h-8.498v-8.498h8.498V206.746z M317.145,206.746h-8.498v-8.498 h8.498V206.746z M334.518,206.746h-8.498v-8.498h8.498V206.746z M351.894,206.746h-8.498v-8.498h8.498V206.746z M369.267,206.746 h-8.498v-8.498h8.498V206.746z"/><path d="M253.617,519.6v18.652h141.557V519.6H253.617L253.617,519.6z M267.047,533.176h-8.497v-8.497h8.497V533.176z M284.421,533.176h-8.498v-8.497h8.498V533.176z M301.796,533.176h-8.498v-8.497h8.498V533.176z M319.171,533.176h-8.498v-8.497 h8.498V533.176z M336.544,533.176h-8.497v-8.497h8.497V533.176z M353.918,533.176h-8.498v-8.497h8.498V533.176z M371.293,533.176 h-8.498v-8.497h8.498V533.176z M388.666,533.176h-8.497v-8.497h8.497V533.176z"/><path d="M411.268,519.6v18.652h108.086V519.6H411.268L411.268,519.6z M424.695,533.176h-8.498v-8.497h8.498V533.176z M442.07,533.176h-8.498v-8.497h8.498V533.176z M459.443,533.176h-8.497v-8.497h8.497V533.176z M476.819,533.176h-8.498v-8.497 h8.498V533.176z M494.192,533.176h-8.498v-8.497h8.498V533.176z M511.565,533.176h-8.497v-8.497h8.497V533.176z"/><path d="M110.314,189.772v37.307h41.97v-37.307H110.314z M131.298,219.458c-6.069,0-10.992-4.922-10.992-10.992 c0-6.072,4.923-10.992,10.992-10.992s10.992,4.92,10.992,10.992C142.29,214.536,137.367,219.458,131.298,219.458z"/><line x1="513.346" x2="268.504" y1="254.459" y2="254.459" fill="none" stroke="#000" stroke-miterlimit="10"/><line x1="515.953" x2="411.268" y1="480.935" y2="480.935" fill="none" stroke="#000" stroke-miterlimit="10"/><line x1="392.372" x2="308.647" y1="480.935" y2="480.935" fill="none" stroke="#000" stroke-miterlimit="10"/><text x="0" y="587.445" fill="#000" font-family="'Helvetica Neue', Helvetica, Arial-Unicode, Arial, Sans-serif" font-size="5" font-weight="bold">Created by Iris Roijakkers</text><text x="0" y="592.445" fill="#000" font-family="'Helvetica Neue', Helvetica, Arial-Unicode, Arial, Sans-serif" font-size="5" font-weight="bold">from the Noun Project</text></svg>