<svg xmlns="http://www.w3.org/2000/svg" xmlns:svg="http://www.w3.org/2000/svg" id="Layer_1" width="2.5cm" height="181.417" x="0" y="0" enable-background="new -66.38 -5.38 99 144" version="1.1" viewBox="-66.38 -5.38 88.583 170.079" xml:space="preserve"><metadata id="metadata51"/><g id="silkscreen" transform="matrix(0.95516884,0,0,1.2395352,-6.4383757,-0.98001028)"><line id="line4" x1="-62.38" x2="-62.38" y1="-1.78" y2="133.287" style="fill:none;stroke:#fff;stroke-width:.75"/><line id="line6" x1="29.521" x2="29.521" y1="133.287" y2="-1.78" style="fill:none;stroke:#fff;stroke-width:.75"/><line id="line8" x1="-62.38" x2="29.021" y1="133.287" y2="133.287" style="fill:none;stroke:#fff;stroke-width:.75"/><line id="line10" x1="-62.38" x2="29.22" y1="-3.28" y2="-3.28" style="fill:none;stroke:#fff;stroke-width:.75"/></g><g id="copper0" transform="matrix(0.99705383,0,0,0.99847198,-6.8549812,12.657221)"><g id="copper1"><circle id="connector5pin" cx="25.204" cy="20.036" r="1.584" style="fill:none;stroke:#ffbf00;stroke-width:1.15199995"/><circle id="connector0pin" cx="-55.796" cy="2.036" r="1.584" style="fill:none;stroke:#ffbf00;stroke-width:1.15199995"/><circle id="connector1pin" cx="-55.796" cy="11.036" r="1.584" style="fill:none;stroke:#ffbf00;stroke-width:1.15199995"/><circle id="connector2pin" cx="-55.796" cy="20.036" r="1.584" style="fill:none;stroke:#ffbf00;stroke-width:1.15199995"/><circle id="connector3pin" cx="-55.796" cy="29.036" r="1.584" style="fill:none;stroke:#ffbf00;stroke-width:1.15199995"/><circle id="connector4pin" cx="-55.796" cy="38.036" r="1.584" style="fill:none;stroke:#ffbf00;stroke-width:1.15199995"/><circle id="connector6pin" cx="25.204" cy="11.036" r="1.584" style="fill:none;stroke:#ffbf00;stroke-width:1.15199995"/><circle id="connector7pin" cx="25.204" cy="2.036" r="1.584" style="fill:none;stroke:#ffbf00;stroke-width:1.15199995"/><circle id="connector7pin_1_" cx="25.204" cy="29.036" r="1.584" style="fill:none;stroke:#ffbf00;stroke-width:1.15199995"/><circle id="connector0pin_1_" cx="-55.796" cy="47.036" r="1.584" style="fill:none;stroke:#ffbf00;stroke-width:1.15199995"/><circle id="connector1pin_1_" cx="-55.796" cy="56.036" r="1.584" style="fill:none;stroke:#ffbf00;stroke-width:1.15199995"/><circle id="connector2pin_1_" cx="-55.796" cy="65.036" r="1.584" style="fill:none;stroke:#ffbf00;stroke-width:1.15199995"/><circle id="connector3pin_1_" cx="-55.796" cy="74.036" r="1.584" style="fill:none;stroke:#ffbf00;stroke-width:1.15199995"/><circle id="connector4pin_1_" cx="-55.796" cy="83.036" r="1.584" style="fill:none;stroke:#ffbf00;stroke-width:1.15199995"/><circle id="connector1pin_2_" cx="-55.796" cy="92.036" r="1.584" style="fill:none;stroke:#ffbf00;stroke-width:1.15199995"/><circle id="connector2pin_2_" cx="-55.796" cy="101.036" r="1.584" style="fill:none;stroke:#ffbf00;stroke-width:1.15199995"/><circle id="connector3pin_2_" cx="-55.796" cy="110.036" r="1.584" style="fill:none;stroke:#ffbf00;stroke-width:1.15199995"/><circle id="connector4pin_2_" cx="-55.796" cy="119.036" r="1.584" style="fill:none;stroke:#ffbf00;stroke-width:1.15199995"/><circle id="connector4pin_3_" cx="-55.796" cy="128.036" r="1.584" style="fill:none;stroke:#ffbf00;stroke-width:1.15199995"/><circle id="connector2pin_4_" cx="25.204" cy="65.036" r="1.584" style="fill:none;stroke:#ffbf00;stroke-width:1.15199995"/><circle id="connector3pin_4_" cx="25.204" cy="74.036" r="1.584" style="fill:none;stroke:#ffbf00;stroke-width:1.15199995"/><circle id="connector4pin_6_" cx="25.204" cy="83.036" r="1.584" style="fill:none;stroke:#ffbf00;stroke-width:1.15199995"/><circle id="connector1pin_3_" cx="25.204" cy="92.036" r="1.584" style="fill:none;stroke:#ffbf00;stroke-width:1.15199995"/><circle id="connector2pin_3_" cx="25.204" cy="101.036" r="1.584" style="fill:none;stroke:#ffbf00;stroke-width:1.15199995"/><circle id="connector3pin_3_" cx="25.204" cy="110.036" r="1.584" style="fill:none;stroke:#ffbf00;stroke-width:1.15199995"/><circle id="connector4pin_5_" cx="25.204" cy="119.036" r="1.584" style="fill:none;stroke:#ffbf00;stroke-width:1.15199995"/><circle id="connector4pin_4_" cx="25.204" cy="128.036" r="1.584" style="fill:none;stroke:#ffbf00;stroke-width:1.15199995"/><circle id="connector2pin_5_" cx="25.204" cy="38.036" r="1.584" style="fill:none;stroke:#ffbf00;stroke-width:1.15199995"/><circle id="connector3pin_5_" cx="25.204" cy="47.036" r="1.584" style="fill:none;stroke:#ffbf00;stroke-width:1.15199995"/><circle id="connector4pin_7_" cx="25.204" cy="56.036" r="1.584" style="fill:none;stroke:#ffbf00;stroke-width:1.15199995"/></g></g></svg>