<svg xmlns="http://www.w3.org/2000/svg" xmlns:xlink="http://www.w3.org/1999/xlink" id="Layer_1" x="0" y="0" version="1.1" viewBox="0 0 141 72" xml:space="preserve" style="enable-background:new 0 0 141 72"><style type="text/css">.st0{fill:#1e2c5c}.st1{fill:#454545}.st2{fill:#b68b2d}.st3{fill:#fff}.st4{font-family:&apos;ArialMT&apos;}.st5{font-size:2.5px}.st6{fill:#bec0c2}.st7{fill:#231f20}.st8{fill:#5f5758}.st9{fill:#524b4c}.st10{fill:#4d4648}.st11{font-size:7px}.st12{font-size:4px}</style><g><g><path d="M131.8,0H5C2.2,0,0,2.3,0,5.1v61.9C0,69.7,2.2,72,5,72h126.7c2.8,0,5-2.3,5-5.1V5.1 C136.8,2.3,134.5,0,131.8,0z M6.5,1.8c2.4,0,4.3,1.9,4.3,4.3c0,2.4-1.9,4.3-4.3,4.3c-2.4,0-4.3-1.9-4.3-4.3 C2.3,3.7,4.2,1.8,6.5,1.8z M6.5,70.4c-2.4,0-4.3-1.9-4.3-4.3c0-2.4,1.9-4.3,4.3-4.3c2.4,0,4.3,1.9,4.3,4.3 C10.8,68.5,8.9,70.4,6.5,70.4z M130.6,70.4c-2.4,0-4.3-1.9-4.3-4.3c0-2.4,1.9-4.3,4.3-4.3c2.4,0,4.3,1.9,4.3,4.3 C134.8,68.5,132.9,70.4,130.6,70.4z M130.6,10.4c-2.4,0-4.3-1.9-4.3-4.3s1.9-4.3,4.3-4.3c2.4,0,4.3,1.9,4.3,4.3 C134.8,8.5,132.9,10.4,130.6,10.4z" class="st0"/><rect width="3.7" height="7.4" x="16.3" y="64.6" class="st1"/><polygon points="14.4 66.4 16.3 64.6 16.3 72 14.4 70.1" class="st1"/><polygon points="20 64.6 21.8 66.4 21.8 70.1 20 72" class="st1"/><rect width="1.3" height="1.7" x="17.5" y="67.4" class="st2"/><rect width="3.7" height="7.4" x="23.5" y="64.6" class="st1"/><polygon points="21.6 66.4 23.5 64.6 23.5 72 21.6 70.1" class="st1"/><polygon points="27.2 64.6 29 66.4 29 70.1 27.2 72" class="st1"/><rect width="1.3" height="1.7" x="24.7" y="67.4" class="st2"/><rect width="3.7" height="7.4" x="30.7" y="64.6" class="st1"/><polygon points="28.8 66.4 30.7 64.6 30.7 72 28.8 70.1" class="st1"/><polygon points="34.4 64.6 36.2 66.4 36.2 70.1 34.4 72" class="st1"/><rect width="1.3" height="1.7" x="31.9" y="67.4" class="st2"/><rect width="3.7" height="7.4" x="37.9" y="64.6" class="st1"/><polygon points="36 66.4 37.9 64.6 37.9 72 36 70.1" class="st1"/><polygon points="41.6 64.6 43.4 66.4 43.4 70.1 41.6 72" class="st1"/><rect width="1.3" height="1.7" x="39.1" y="67.4" class="st2"/><rect width="3.7" height="7.4" x="45.1" y="64.6" class="st1"/><polygon points="43.2 66.4 45.1 64.6 45.1 72 43.2 70.1" class="st1"/><polygon points="48.8 64.6 50.6 66.4 50.6 70.1 48.8 72" class="st1"/><rect width="1.3" height="1.7" x="46.3" y="67.4" class="st2"/><rect width="3.7" height="7.4" x="52.3" y="64.6" class="st1"/><polygon points="50.4 66.4 52.3 64.6 52.3 72 50.4 70.1" class="st1"/><polygon points="56 64.6 57.8 66.4 57.8 70.1 56 72" class="st1"/><rect width="1.3" height="1.7" x="53.5" y="67.4" class="st2"/><rect width="3.7" height="7.4" x="59.5" y="64.6" class="st1"/><polygon points="57.6 66.4 59.5 64.6 59.5 72 57.6 70.1" class="st1"/><polygon points="63.2 64.6 65 66.4 65 70.1 63.2 72" class="st1"/><rect width="1.3" height="1.7" x="60.7" y="67.4" class="st2"/><rect width="3.7" height="7.4" x="66.7" y="64.6" class="st1"/><polygon points="64.8 66.4 66.7 64.6 66.7 72 64.8 70.1" class="st1"/><polygon points="70.4 64.6 72.2 66.4 72.2 70.1 70.4 72" class="st1"/><rect width="1.3" height="1.7" x="67.9" y="67.4" class="st2"/><rect width="3.7" height="7.4" x="73.9" y="64.6" class="st1"/><polygon points="72 66.4 73.9 64.6 73.9 72 72 70.1" class="st1"/><polygon points="77.6 64.6 79.4 66.4 79.4 70.1 77.6 72" class="st1"/><rect width="1.3" height="1.7" x="75.1" y="67.4" class="st2"/><rect width="3.7" height="7.4" x="81.1" y="64.6" class="st1"/><polygon points="79.2 66.4 81.1 64.6 81.1 72 79.2 70.1" class="st1"/><polygon points="84.8 64.6 86.6 66.4 86.6 70.1 84.8 72" class="st1"/><rect width="1.3" height="1.7" x="82.3" y="67.4" class="st2"/><rect width="3.7" height="7.4" x="88.3" y="64.6" class="st1"/><polygon points="86.4 66.4 88.3 64.6 88.3 72 86.4 70.1" class="st1"/><polygon points="92 64.6 93.8 66.4 93.8 70.1 92 72" class="st1"/><rect width="1.3" height="1.7" x="89.5" y="67.4" class="st2"/><rect width="3.7" height="7.4" x="95.5" y="64.6" class="st1"/><polygon points="93.6 66.4 95.5 64.6 95.5 72 93.6 70.1" class="st1"/><polygon points="99.2 64.6 101 66.4 101 70.1 99.2 72" class="st1"/><rect width="1.3" height="1.7" x="96.7" y="67.4" class="st2"/><rect width="3.7" height="7.4" x="102.7" y="64.6" class="st1"/><polygon points="100.8 66.4 102.7 64.6 102.7 72 100.8 70.1" class="st1"/><polygon points="106.4 64.6 108.2 66.4 108.2 70.1 106.4 72" class="st1"/><rect width="1.3" height="1.7" x="103.9" y="67.4" class="st2"/><rect width="3.7" height="7.4" x="109.9" y="64.6" class="st1"/><polygon points="108 66.4 109.9 64.6 109.9 72 108 70.1" class="st1"/><polygon points="113.6 64.6 115.4 66.4 115.4 70.1 113.6 72" class="st1"/><rect width="1.3" height="1.7" x="111.1" y="67.4" class="st2"/><rect width="3.7" height="7.4" x="117.1" y="64.6" class="st1"/><polygon points="115.2 66.4 117.1 64.6 117.1 72 115.2 70.1" class="st1"/><polygon points="120.8 64.6 122.6 66.4 122.6 70.1 120.8 72" class="st1"/><rect width="1.3" height="1.7" x="118.3" y="67.4" class="st2"/><rect width="3.7" height="7.4" x="16" y="0" class="st1"/><polygon points="14.2 1.9 16 0 16 7.4 14.2 5.6" class="st1"/><polygon points="19.7 0 21.6 1.9 21.6 5.6 19.7 7.4" class="st1"/><rect width="1.3" height="1.7" x="17.2" y="2.9" class="st2"/><rect width="3.7" height="7.4" x="23.2" y="0" class="st1"/><polygon points="21.4 1.9 23.2 0 23.2 7.4 21.4 5.6" class="st1"/><polygon points="26.9 0 28.8 1.9 28.8 5.6 26.9 7.4" class="st1"/><rect width="1.3" height="1.7" x="24.4" y="2.9" class="st2"/><rect width="3.7" height="7.4" x="30.4" y="0" class="st1"/><polygon points="28.6 1.9 30.4 0 30.4 7.4 28.6 5.6" class="st1"/><polygon points="34.1 0 36 1.9 36 5.6 34.1 7.4" class="st1"/><rect width="1.3" height="1.7" x="31.6" y="2.9" class="st2"/><rect width="3.7" height="7.4" x="37.6" y="0" class="st1"/><polygon points="35.8 1.9 37.6 0 37.6 7.4 35.8 5.6" class="st1"/><polygon points="41.3 0 43.2 1.9 43.2 5.6 41.3 7.4" class="st1"/><rect width="1.3" height="1.7" x="38.8" y="2.9" class="st2"/><rect width="3.7" height="7.4" x="44.8" y="0" class="st1"/><polygon points="43 1.9 44.8 0 44.8 7.4 43 5.6" class="st1"/><polygon points="48.5 0 50.4 1.9 50.4 5.6 48.5 7.4" class="st1"/><rect width="1.3" height="1.7" x="46" y="2.9" class="st2"/><rect width="3.7" height="7.4" x="52" y="0" class="st1"/><polygon points="50.2 1.9 52 0 52 7.4 50.2 5.6" class="st1"/><polygon points="55.7 0 57.6 1.9 57.6 5.6 55.7 7.4" class="st1"/><rect width="1.3" height="1.7" x="53.2" y="2.9" class="st2"/><rect width="3.7" height="7.4" x="59.2" y="0" class="st1"/><polygon points="57.4 1.9 59.2 0 59.2 7.4 57.4 5.6" class="st1"/><polygon points="62.9 0 64.8 1.9 64.8 5.6 62.9 7.4" class="st1"/><rect width="1.3" height="1.7" x="60.4" y="2.9" class="st2"/><rect width="3.7" height="7.4" x="66.4" y="0" class="st1"/><polygon points="64.6 1.9 66.4 0 66.4 7.4 64.6 5.6" class="st1"/><polygon points="70.1 0 72 1.9 72 5.6 70.1 7.4" class="st1"/><rect width="1.3" height="1.7" x="67.6" y="2.9" class="st2"/><rect width="3.7" height="7.4" x="73.6" y="0" class="st1"/><polygon points="71.8 1.9 73.6 0 73.6 7.4 71.8 5.6" class="st1"/><polygon points="77.3 0 79.2 1.9 79.2 5.6 77.3 7.4" class="st1"/><rect width="1.3" height="1.7" x="74.8" y="2.9" class="st2"/><rect width="3.7" height="7.4" x="80.8" y="0" class="st1"/><polygon points="79 1.9 80.8 0 80.8 7.4 79 5.6" class="st1"/><polygon points="84.5 0 86.4 1.9 86.4 5.6 84.5 7.4" class="st1"/><rect width="1.3" height="1.7" x="82" y="2.9" class="st2"/><rect width="3.7" height="7.4" x="88" y="0" class="st1"/><polygon points="86.2 1.9 88 0 88 7.4 86.2 5.6" class="st1"/><polygon points="91.7 0 93.6 1.9 93.6 5.6 91.7 7.4" class="st1"/><rect width="1.3" height="1.7" x="89.2" y="2.9" class="st2"/><rect width="3.7" height="7.4" x="95.2" y="0" class="st1"/><polygon points="93.4 1.9 95.2 0 95.2 7.4 93.4 5.6" class="st1"/><polygon points="98.9 0 100.8 1.9 100.8 5.6 98.9 7.4" class="st1"/><rect width="1.3" height="1.7" x="96.4" y="2.9" class="st2"/><rect width="3.7" height="7.4" x="102.4" y="0" class="st1"/><polygon points="100.6 1.9 102.4 0 102.4 7.4 100.6 5.6" class="st1"/><polygon points="106.1 0 108 1.9 108 5.6 106.1 7.4" class="st1"/><rect width="1.3" height="1.7" x="103.6" y="2.9" class="st2"/><rect width="3.7" height="7.4" x="109.6" y="0" class="st1"/><polygon points="107.8 1.9 109.6 0 109.6 7.4 107.8 5.6" class="st1"/><polygon points="113.3 0 115.2 1.9 115.2 5.6 113.3 7.4" class="st1"/><rect width="1.3" height="1.7" x="110.8" y="2.9" class="st2"/><rect width="3.7" height="7.4" x="116.8" y="0" class="st1"/><polygon points="115 1.9 116.8 0 116.8 7.4 115 5.6" class="st1"/><polygon points="120.5 0 122.4 1.9 122.4 5.6 120.5 7.4" class="st1"/><rect width="1.3" height="1.7" x="118" y="2.9" class="st2"/><text class="st3 st4 st5" transform="matrix(1 0 0 1 14.7988 10.7676)">D0</text><text class="st3 st4 st5" transform="matrix(1 0 0 1 22.0894 10.7656)">D1</text><text class="st3 st4 st5" transform="matrix(1 0 0 1 29.3804 10.7656)">D2</text><text class="st3 st4 st5" transform="matrix(1 0 0 1 36.6709 10.7656)">D3</text><text class="st3 st4 st5" transform="matrix(1 0 0 1 43.9614 10.7656)">D4</text><text class="st3 st4 st5" transform="matrix(1 0 0 1 50.3486 10.7656)">3V3</text><text class="st3 st4 st5" transform="matrix(1 0 0 1 57.6392 10.7656)">GND</text><text class="st3 st4 st5" transform="matrix(1 0 0 1 65.8335 10.7676)">D5</text><text class="st3 st4 st5" transform="matrix(1 0 0 1 73.124 10.7656)">D6</text><text class="st3 st4 st5" transform="matrix(1 0 0 1 80.415 10.7676)">D7</text><text class="st3 st4 st5" transform="matrix(1 0 0 1 87.7061 10.7656)">D8</text><text class="st3 st4 st5" transform="matrix(1 0 0 1 94.9961 10.7676)">RX</text><text class="st3 st4 st5" transform="matrix(1 0 0 1 102.2871 10.7656)">TX</text><text class="st3 st4 st5" transform="matrix(1 0 0 1 108.6738 10.7676)">GND</text><text class="st3 st4 st5" transform="matrix(1 0 0 1 115.9648 10.7656)">3V3</text><text class="st3 st4 st5" transform="matrix(-1 0 0 -1 121.6289 60.9416)">Vin</text><text class="st3 st4 st5" transform="matrix(-1 0 0 -1 114.4805 60.9416)">GND</text><text class="st3 st4 st5" transform="matrix(-1 0 0 -1 107.332 60.9416)">RST</text><text class="st3 st4 st5" transform="matrix(-1 0 0 -1 99.0996 60.9416)">EN</text><text class="st3 st4 st5" transform="matrix(-1 0 0 -1 93.0352 60.9416)">3V3</text><text class="st3 st4 st5" transform="matrix(-1 0 0 -1 85.8867 60.9416)">GND</text><text class="st3 st4 st5" transform="matrix(-1 0 0 -1 78.7383 60.9416)">CLK</text><text class="st3 st4 st5" transform="matrix(-1 0 0 -1 71.5898 60.9416)">SD0</text><text class="st3 st4 st5" transform="matrix(-1 0 0 -1 64.4395 60.9416)">CMD</text><text class="st3 st4 st5" transform="matrix(-1 0 0 -1 57.291 60.9416)">SD1</text><text class="st3 st4 st5" transform="matrix(-1 0 0 -1 50.1426 60.9416)">SD2</text><text class="st3 st4 st5" transform="matrix(-1 0 0 -1 42.9941 60.9416)">SD3</text><text class="st3 st4 st5" transform="matrix(-1 0 0 -1 35.8457 60.9416)">RSV</text><text class="st3 st4 st5" transform="matrix(-1 0 0 -1 28.6973 60.9416)">RSV</text><text class="st3 st4 st5" transform="matrix(-1 0 0 -1 20.4648 60.9416)">A0</text><rect width="17.3" height="21.8" x="124.1" y="25.1" class="st6"/><rect width="7.8" height="8" x="124" y="13.6" class="st6"/><circle cx="127.9" cy="17.7" r="2.7" class="st7"/><rect width="7.8" height="8" x="124" y="50.4" class="st6"/><circle cx="127.9" cy="54.5" r="2.7" class="st7"/><text class="st3 st4 st5" transform="matrix(4.489659e-11 -1 1 4.489659e-11 122.7988 21.7639)">FLASH</text><text class="st3 st4 st5" transform="matrix(4.489659e-11 -1 1 4.489659e-11 122.7969 56.5979)">RST</text><rect width="43.5" height="39" x="21.1" y="16.4" class="st8"/><rect width="1.3" height="11.8" x="2.4" y="18.8" class="st2"/><rect width="11.1" height="1.2" x="2.5" y="29.4" class="st2"/><rect width="11.1" height="1.2" x="2.5" y="33.2" class="st2"/><rect width="11.1" height="1.2" x="2.5" y="37" class="st2"/><rect width="11.1" height="1.2" x="2.5" y="40.8" class="st2"/><rect width="11.1" height="1.2" x="2.5" y="44.7" class="st2"/><rect width="11.1" height="1.2" x="2.5" y="48.5" class="st2"/><rect width="1.3" height="5" x="12.3" y="29.4" class="st2"/><rect width="1.3" height="4.2" x="2.5" y="34" class="st2"/><rect width="1.3" height="5" x="12.3" y="37" class="st2"/><rect width="1.3" height="5" x="2.5" y="40.8" class="st2"/><rect width="1.3" height="5" x="12.3" y="44.7" class="st2"/><rect width="1.3" height="6" x="2.6" y="48.4" class="st2"/><rect width="18.6" height="1.2" x="3" y="53.2" class="st2"/><rect width="1.3" height="24.3" x="16.5" y="30" class="st2"/><rect width="9.2" height="8.3" x="107.8" y="25.9" class="st9"/><rect width="15.9" height="6.2" x="70.5" y="23.8" class="st10"/></g><text class="st3 st4 st11" transform="matrix(1 0 0 1 71.0703 41.374)">NodeMCU</text><text class="st3 st4 st11" transform="matrix(1 0 0 1 71.0703 49.774)">V1.0</text><text class="st3 st4 st12" transform="matrix(1 0 0 1 70.083 18.7642)">blog.squix.ch</text></g></svg>