<svg xmlns="http://www.w3.org/2000/svg" xmlns:xlink="http://www.w3.org/1999/xlink" id="Layer_1" width="65" height="130" x="0" y="0" enable-background="new 0 0 65 130" version="1.1" viewBox="0 0 65 130" xml:space="preserve"><text fill="#231F20" font-family="'DroidSans'" font-size="3.5" transform="matrix(1 0 0 1 51.6953 16.3164)">D0</text><text fill="#231F20" font-family="'DroidSans'" font-size="3.5" transform="matrix(1 0 0 1 51.6953 23.5078)">D1</text><text fill="#231F20" font-family="'DroidSans'" font-size="3.5" transform="matrix(1 0 0 1 51.6953 30.6992)">D2</text><text fill="#231F20" font-family="'DroidSans'" font-size="3.5" transform="matrix(1 0 0 1 51.6953 37.8906)">D3</text><text fill="#231F20" font-family="'DroidSans'" font-size="3.5" transform="matrix(1 0 0 1 51.6953 45.0811)">D4</text><text fill="#231F20" font-family="'DroidSans'" font-size="3.5" transform="matrix(1 0 0 1 50.1758 52.2725)">3V3</text><text fill="#231F20" font-family="'DroidSans'" font-size="3.5" transform="matrix(1 0 0 1 48.6582 59.4629)">GND</text><text fill="#231F20" font-family="'DroidSans'" font-size="3.5" transform="matrix(1 0 0 1 51.6953 66.6543)">D5</text><text fill="#231F20" font-family="'DroidSans'" font-size="3.5" transform="matrix(1 0 0 1 51.6953 73.8457)">D6</text><text fill="#231F20" font-family="'DroidSans'" font-size="3.5" transform="matrix(1 0 0 1 51.6953 81.0352)">D7</text><text fill="#231F20" font-family="'DroidSans'" font-size="3.5" transform="matrix(1 0 0 1 51.6953 88.2266)">D8</text><text fill="#231F20" font-family="'DroidSans'" font-size="3.5" transform="matrix(1 0 0 1 52.0391 95.418)">RX</text><text fill="#231F20" font-family="'DroidSans'" font-size="3.5" transform="matrix(1 0 0 1 52.2871 102.6094)">TX</text><text fill="#231F20" font-family="'DroidSans'" font-size="3.5" transform="matrix(1 0 0 1 48.6582 109.7988)">GND</text><text fill="#231F20" font-family="'DroidSans'" font-size="3.5" transform="matrix(1 0 0 1 50.1758 116.9902)">3V3</text><text fill="#231F20" font-family="'DroidSans'" font-size="3.5" transform="matrix(1 0 0 1 9.2734 116.9902)">Vin</text><text fill="#231F20" font-family="'DroidSans'" font-size="3.5" transform="matrix(1 0 0 1 9.2725 109.9199)">GND</text><text fill="#231F20" font-family="'DroidSans'" font-size="3.5" transform="matrix(1 0 0 1 9.2725 102.7266)">RST</text><text fill="#231F20" font-family="'DroidSans'" font-size="3.5" transform="matrix(1 0 0 1 9.2725 95.5332)">EN</text><text fill="#231F20" font-family="'DroidSans'" font-size="3.5" transform="matrix(1 0 0 1 9.2725 88.3389)">3V3</text><text fill="#231F20" font-family="'DroidSans'" font-size="3.5" transform="matrix(1 0 0 1 9.2725 81.1445)">GND</text><text fill="#231F20" font-family="'DroidSans'" font-size="3.5" transform="matrix(1 0 0 1 9.2725 73.9521)">CLK</text><text fill="#231F20" font-family="'DroidSans'" font-size="3.5" transform="matrix(1 0 0 1 9.2725 66.7578)">SD0</text><text fill="#231F20" font-family="'DroidSans'" font-size="3.5" transform="matrix(1 0 0 1 9.2725 59.5625)">CMD</text><text fill="#231F20" font-family="'DroidSans'" font-size="3.5" transform="matrix(1 0 0 1 9.2725 52.3691)">SD1</text><text fill="#231F20" font-family="'DroidSans'" font-size="3.5" transform="matrix(1 0 0 1 9.2725 45.1758)">SD2</text><text fill="#231F20" font-family="'DroidSans'" font-size="3.5" transform="matrix(1 0 0 1 9.2725 37.9824)">SD3</text><text fill="#231F20" font-family="'DroidSans'" font-size="3.5" transform="matrix(1 0 0 1 9.2725 30.7871)">RSV</text><text fill="#231F20" font-family="'DroidSans'" font-size="3.5" transform="matrix(1 0 0 1 9.2725 23.5938)">RSV</text><text fill="#231F20" font-family="'DroidSans'" font-size="3.5" transform="matrix(1 0 0 1 9.2734 16.3164)">A0</text><rect width="50.4" height="116.2" x="7.272" y="7.201" fill="none" stroke="#231F20" stroke-miterlimit="10" stroke-width=".7"/><line x1=".001" x2="7.272" y1="15.386" y2="15.401" fill="none" stroke="#231F20" stroke-miterlimit="10"/><line x1=".001" x2="7.272" y1="22.601" y2="22.617" fill="none" stroke="#231F20" stroke-miterlimit="10"/><line x1=".001" x2="7.272" y1="29.801" y2="29.817" fill="none" stroke="#231F20" stroke-miterlimit="10"/><line x1=".001" x2="7.272" y1="36.97" y2="36.986" fill="none" stroke="#231F20" stroke-miterlimit="10"/><line x1=".001" x2="7.272" y1="44.186" y2="44.202" fill="none" stroke="#231F20" stroke-miterlimit="10"/><line x1=".001" x2="7.272" y1="51.386" y2="51.401" fill="none" stroke="#231F20" stroke-miterlimit="10"/><line x1=".001" x2="7.272" y1="58.586" y2="58.602" fill="none" stroke="#231F20" stroke-miterlimit="10"/><line x1=".001" x2="7.272" y1="65.803" y2="65.817" fill="none" stroke="#231F20" stroke-miterlimit="10"/><line x1=".001" x2="7.272" y1="73.002" y2="73.019" fill="none" stroke="#231F20" stroke-miterlimit="10"/><line x1=".001" x2="7.272" y1="80.172" y2="80.187" fill="none" stroke="#231F20" stroke-miterlimit="10"/><line x1=".001" x2="7.272" y1="87.388" y2="87.402" fill="none" stroke="#231F20" stroke-miterlimit="10"/><line x1=".001" x2="7.272" y1="94.588" y2="94.603" fill="none" stroke="#231F20" stroke-miterlimit="10"/><line x1=".001" x2="7.272" y1="101.856" y2="101.873" fill="none" stroke="#231F20" stroke-miterlimit="10"/><line x1=".001" x2="7.272" y1="109.072" y2="109.088" fill="none" stroke="#231F20" stroke-miterlimit="10"/><line x1=".001" x2="7.272" y1="116.272" y2="116.289" fill="none" stroke="#231F20" stroke-miterlimit="10"/><line x1="57.602" x2="64.872" y1="15.439" y2="15.455" fill="none" stroke="#231F20" stroke-miterlimit="10"/><line x1="57.602" x2="64.873" y1="22.655" y2="22.671" fill="none" stroke="#231F20" stroke-miterlimit="10"/><line x1="57.602" x2="64.873" y1="29.855" y2="29.871" fill="none" stroke="#231F20" stroke-miterlimit="10"/><line x1="57.602" x2="64.872" y1="37.024" y2="37.039" fill="none" stroke="#231F20" stroke-miterlimit="10"/><line x1="57.602" x2="64.873" y1="44.24" y2="44.255" fill="none" stroke="#231F20" stroke-miterlimit="10"/><line x1="57.602" x2="64.873" y1="51.439" y2="51.455" fill="none" stroke="#231F20" stroke-miterlimit="10"/><line x1="57.602" x2="64.872" y1="58.64" y2="58.656" fill="none" stroke="#231F20" stroke-miterlimit="10"/><line x1="57.602" x2="64.873" y1="65.855" y2="65.871" fill="none" stroke="#231F20" stroke-miterlimit="10"/><line x1="57.602" x2="64.873" y1="73.057" y2="73.071" fill="none" stroke="#231F20" stroke-miterlimit="10"/><line x1="57.602" x2="64.872" y1="80.226" y2="80.24" fill="none" stroke="#231F20" stroke-miterlimit="10"/><line x1="57.602" x2="64.873" y1="87.44" y2="87.457" fill="none" stroke="#231F20" stroke-miterlimit="10"/><line x1="57.602" x2="64.873" y1="94.642" y2="94.656" fill="none" stroke="#231F20" stroke-miterlimit="10"/><line x1="57.602" x2="64.872" y1="101.91" y2="101.927" fill="none" stroke="#231F20" stroke-miterlimit="10"/><line x1="57.602" x2="64.873" y1="109.127" y2="109.143" fill="none" stroke="#231F20" stroke-miterlimit="10"/><line x1="57.602" x2="64.873" y1="116.326" y2="116.343" fill="none" stroke="#231F20" stroke-miterlimit="10"/><text font-family="'DroidSans'" font-size="4.25" transform="matrix(1 0 0 1 23.9336 53.4004)">NodeMCU</text><text font-family="'DroidSans'" font-size="4.25" transform="matrix(1 0 0 1 29.5884 58.5)">V1.0</text></svg>