<svg xmlns="http://www.w3.org/2000/svg" fill="#fff" viewBox="51 213 85 147"><path d="M111.83,235.32l7.55-7.55c4.82-4.82,1.4-13.05-5.4-13.05h-.22c-2.03,0-3.97.81-5.4,2.24l-9.57,9.57c-2.98,2.98-7.82,2.98-10.81,0l-9.57-9.57c-1.43-1.43-3.38-2.24-5.4-2.24h-.22c-6.81,0-10.22,8.23-5.4,13.05l7.71,7.71c-21.99,7.55-22.46,29.24-22.46,51.58,0,17.61.31,41.45,22.46,49.34l-7.71,7.71c-4.82,4.82-1.4,13.05,5.4,13.05h.22c2.03,0,3.97-.81,5.4-2.24l9.57-9.57c2.98-2.98,7.82-2.98,10.81,0l9.57,9.57c1.43,1.43,3.38,2.24,5.4,2.24h.22c6.81,0,10.22-8.23,5.4-13.05l-8.01-8.01c5.14-1.92,9.5-4.81,13.12-8.77,7.27-7.69,9.65-17.34,9.65-43.77,0-25.03-3.36-32.3-9.09-39.29-3.56-4.47-8.35-7.24-13.22-8.95ZM77.51,286.63c0-21.95,1.54-25.03,3.5-28.24,2.52-3.92,7.27-5.87,12.03-5.87,9.09,0,13.56,6.01,14.68,10.35,1.4,5.03,1.4,8.25,1.4,26.29,0,14.12-.42,17.9-2.38,22.37-2.38,5.59-8.39,8.11-13.28,8.11-15.1,0-15.94-12.72-15.94-33Z"/></svg>