<?xml version="1.0" encoding="utf-8"?>
<!-- Generator: Adobe Illustrator 20.1.0, SVG Export Plug-In . SVG Version: 6.00 Build 0)  -->
<svg version="1.1" id="Layer_1" xmlns="http://www.w3.org/2000/svg" xmlns:xlink="http://www.w3.org/1999/xlink" x="0px" y="0px"
	 viewBox="0 0 290 100" style="enable-background:new 0 0 290 100;" xml:space="preserve">
<style type="text/css">
	.st0{fill:#FFFFFF;}
</style>
<g>
	<path class="st0" d="M47.9,44.8H32.1c-2.1,0-3.9,1.7-3.9,3.9v2.5c0,2.1,1.7,3.9,3.9,3.9h1.8c2.3,0,4,2,3.9,4.2
		c-0.4,5.3-2.3,10.1-9.3,10.1c-8.9,0-9.2-7.3-9.2-17.3c0-10.2,0.2-14.6,1.8-17.6c1.4-2.7,5-3.8,7.7-3.8c2.9,0,5.5,1.1,7,4.3
		c0.8,1.7,2.8,2.5,4.6,1.9l5.5-1.8c2.3-0.7,3.4-3.3,2.3-5.4c-1-2.1-2.7-4.3-5.5-6.3c-3.2-2.3-7.3-3.9-14.7-3.9
		c-10.4,0-15.9,3.4-19.3,8.5c-1.9,3.1-3.8,7.4-3.8,22.5C4.9,66,7.5,70.6,11,74.4c4.6,5,12.1,5.8,17.3,5.8
		c20.2,0,23.4-13.6,23.4-25.2v-6.5C51.8,46.6,50.1,44.8,47.9,44.8z"/>
	<path class="st0" d="M101,56c1.3-0.5,2.6-1.3,4-2.4c4.2-3.5,6.3-8.9,6.3-14.4c0-3.3-0.7-10.8-6.6-15.3c-5-3.6-10.4-3.6-13.3-3.6
		H69.9c-2.1,0-3.9,1.7-3.9,3.9v51.2c0,2.1,1.7,3.9,3.9,3.9h5.4c2.1,0,3.9-1.7,3.9-3.9v-8c0-3.7,4.8-5.3,7-2.3l9.2,12.6
		c0.7,1,1.9,1.6,3.1,1.6h7.3c3.3,0,5.1-3.9,2.9-6.4l-9.3-10.7C97.7,60.2,98.5,57,101,56z M83.3,49.9L83.3,49.9
		c-2.2,0-3.9-1.7-3.9-3.9V35c0-2.1,1.7-3.9,3.9-3.9h2.1c3.9,0,12.1,0,12.1,9.1C97.4,49.9,89,49.9,83.3,49.9z"/>
	<path class="st0" d="M155.5,21.2l4.3-4.3c2.8-2.8,0.8-7.5-3.1-7.5h-0.1c-1.2,0-2.3,0.5-3.1,1.3l-5.5,5.5c-1.7,1.7-4.5,1.7-6.2,0
		l-5.5-5.5c-0.8-0.8-1.9-1.3-3.1-1.3h-0.1c-3.9,0-5.8,4.7-3.1,7.5l4.4,4.4c-12.6,4.3-12.8,16.7-12.8,29.5c0,10.1,0.2,23.7,12.8,28.2
		l-4.4,4.4c-2.8,2.8-0.8,7.5,3.1,7.5h0.1c1.2,0,2.3-0.5,3.1-1.3l5.5-5.5c1.7-1.7,4.5-1.7,6.2,0l5.5,5.5c0.8,0.8,1.9,1.3,3.1,1.3h0.1
		c3.9,0,5.8-4.7,3.1-7.5l-4.6-4.6c2.9-1.1,5.4-2.7,7.5-5c4.2-4.4,5.5-9.9,5.5-25c0-14.3-1.9-18.5-5.2-22.4
		C161.1,23.7,158.3,22.2,155.5,21.2z M135.9,50.5c0-12.5,0.9-14.3,2-16.1c1.4-2.2,4.2-3.4,6.9-3.4c5.2,0,7.7,3.4,8.4,5.9
		c0.8,2.9,0.8,4.7,0.8,15c0,8.1-0.2,10.2-1.4,12.8c-1.4,3.2-4.8,4.6-7.6,4.6C136.4,69.4,135.9,62.1,135.9,50.5z"/>
	<path class="st0" d="M222,20.4h-6.2c-2.1,0-3.9,1.7-3.9,3.9v36.5c0,4.9-2,8.6-7.9,8.6c-7.6,0-7.6-6.6-7.6-8.5V24.3
		c0-2.1-1.7-3.9-3.9-3.9h-6.1c-2.1,0-3.9,1.7-3.9,3.9v35.9c0,2.6,0,8.9,3.8,13.4c5.4,6.6,13.1,7,17.7,7c7.8,0,13.5-2.1,17.3-6.4
		c3.6-4.1,4.5-8.9,4.5-12.5V24.4C225.9,22.1,224.2,20.4,222,20.4z"/>
	<path class="st0" d="M281.1,20.4h-6.2c-2.1,0-3.9,1.7-3.9,3.9v36.5c0,4.9-2,8.6-7.9,8.6c-7.6,0-7.6-6.6-7.6-8.5V24.3
		c0-2.1-1.7-3.9-3.9-3.9h-6.1c-2.1,0-3.9,1.7-3.9,3.9v35.9c0,2.6,0,8.9,3.8,13.4c5.4,6.6,13.1,7,17.7,7c7.8,0,13.5-2.1,17.3-6.4
		c3.6-4.1,4.5-8.9,4.5-12.5V24.4C285,22.1,283.3,20.4,281.1,20.4z"/>
</g>
</svg>
