<svg xmlns="http://www.w3.org/2000/svg" xmlns:xlink="http://www.w3.org/1999/xlink" id="Layer_1" width="58" height="50" x="0" y="0" enable-background="new 0 0 58 50" version="1.1" viewBox="0 0 58 50" xml:space="preserve"><text fill="#231F20" font-family="'DroidSans'" font-size="3.5" transform="matrix(1 0 0 1 9.5669 37.1494)">SDA</text><text fill="#231F20" font-family="'DroidSans'" font-size="3.5" transform="matrix(1 0 0 1 9.5659 30.0791)">SCL</text><text fill="#231F20" font-family="'DroidSans'" font-size="3.5" transform="matrix(1 0 0 1 25.0835 41.4521)">GND</text><text fill="#231F20" font-family="'DroidSans'" font-size="3.5" transform="matrix(1 0 0 1 25.6655 11)">VCC</text><rect width="50.399" height="35.714" x="7.272" y="7.201" fill="none" stroke="#231F20" stroke-miterlimit="10" stroke-width=".7"/><line x1="28.856" x2="28.872" y1="7.271" y2=".001" fill="none" stroke="#231F20" stroke-miterlimit="10"/><line x1=".072" x2="7.343" y1="28.801" y2="28.816" fill="none" stroke="#231F20" stroke-miterlimit="10"/><line x1=".001" x2="7.272" y1="35.982" y2="36.001" fill="none" stroke="#231F20" stroke-miterlimit="10"/><text font-family="'DroidSans'" font-size="4.25" transform="matrix(1 0 0 1 21.6719 22.0322)">OLED 128x64</text><text font-family="'DroidSans'" font-size="4.25" transform="matrix(1 0 0 1 21.6719 27.1318)">SSD1306</text><text font-family="'DroidSans'" font-size="4.25" transform="matrix(1 0 0 1 21.6719 32.2324)">I2C</text><line x1="28.873" x2="28.888" y1="50.4" y2="43.131" fill="none" stroke="#231F20" stroke-miterlimit="10"/></svg>