%TF.GenerationSoftware,KiCad,Pcbnew,10.0.4*%
%TF.CreationDate,2026-07-04T16:03:19+01:00*%
%TF.ProjectId,default,64656661-756c-4742-9e6b-696361645f70,rev?*%
%TF.SameCoordinates,Original*%
%TF.FileFunction,Copper,L2,Bot*%
%TF.FilePolarity,Positive*%
%FSLAX46Y46*%
G04 Gerber Fmt 4.6, Leading zero omitted, Abs format (unit mm)*
G04 Created by KiCad (PCBNEW 10.0.4) date 2026-07-04 16:03:19*
%MOMM*%
%LPD*%
G01*
G04 APERTURE LIST*
%TA.AperFunction,ComponentPad*%
%ADD10C,1.520000*%
%TD*%
%TA.AperFunction,ComponentPad*%
%ADD11R,1.520000X1.520000*%
%TD*%
%TA.AperFunction,ComponentPad*%
%ADD12C,1.600000*%
%TD*%
%TA.AperFunction,ComponentPad*%
%ADD13C,2.200000*%
%TD*%
%TA.AperFunction,ViaPad*%
%ADD14C,0.600000*%
%TD*%
%TA.AperFunction,Conductor*%
%ADD15C,0.200000*%
%TD*%
G04 APERTURE END LIST*
D10*
%TO.P,CN1,4*%
%TO.N,lv*%
X116300000Y-86360000D03*
%TO.P,CN1,3*%
%TO.N,hv*%
X114300000Y-86360000D03*
%TO.P,CN1,2*%
%TO.N,2*%
X112300000Y-86360000D03*
D11*
%TO.P,CN1,1*%
%TO.N,1*%
X110300000Y-86360000D03*
%TD*%
D12*
%TO.P,CN3,1*%
%TO.N,v5v_raw*%
X98550000Y-96413800D03*
%TO.P,CN3,2*%
%TO.N,lv*%
X96550000Y-96413800D03*
%TD*%
D13*
%TO.P,U3,3*%
%TO.N,lv*%
X129540000Y-76280000D03*
%TO.P,U3,2*%
%TO.N,ph_in*%
X129540000Y-81280000D03*
%TO.P,U3,1*%
%TO.N,1-1*%
X129540000Y-86280000D03*
%TD*%
%TO.P,U5,3*%
%TO.N,lv*%
X83820000Y-86280000D03*
%TO.P,U5,2*%
%TO.N,turb_in*%
X83820000Y-81280000D03*
%TO.P,U5,1*%
%TO.N,1-1*%
X83820000Y-76280000D03*
%TD*%
%TO.P,U2,3*%
%TO.N,lv*%
X83820000Y-68500000D03*
%TO.P,U2,2*%
%TO.N,ds_data*%
X83820000Y-63500000D03*
%TO.P,U2,1*%
%TO.N,hv*%
X83820000Y-58500000D03*
%TD*%
%TO.P,U4,3*%
%TO.N,lv*%
X129540000Y-58500000D03*
%TO.P,U4,2*%
%TO.N,tds_in*%
X129540000Y-63500000D03*
%TO.P,U4,1*%
%TO.N,1-1*%
X129540000Y-68500000D03*
%TD*%
D10*
%TO.P,CN2,4*%
%TO.N,lv*%
X115760000Y-96520000D03*
%TO.P,CN2,3*%
%TO.N,hv*%
X113760000Y-96520000D03*
%TO.P,CN2,2*%
%TO.N,sda*%
X111760000Y-96520000D03*
D11*
%TO.P,CN2,1*%
%TO.N,scl*%
X109760000Y-96520000D03*
%TD*%
D14*
%TO.N,2*%
X104467800Y-48489700D03*
%TO.N,1*%
X100602300Y-46014100D03*
%TO.N,sda*%
X109444800Y-71532700D03*
%TO.N,S*%
X101471700Y-73991600D03*
X101471700Y-52038300D03*
%TO.N,hv*%
X114300000Y-74145700D03*
%TO.N,scl*%
X110243800Y-69346200D03*
%TO.N,ds_data*%
X96575700Y-73444700D03*
%TO.N,sensor_pwr_en*%
X96411400Y-43340200D03*
X101493800Y-76785800D03*
%TO.N,6*%
X94110800Y-55628300D03*
X96310900Y-76929900D03*
X107344700Y-65444200D03*
%TO.N,tds_in*%
X122582100Y-63500000D03*
X118514800Y-74747400D03*
%TD*%
%TO.N,2*%
D15*
X112300000Y-56321900D02*
X104467800Y-48489700D01*
X112300000Y-86360000D02*
X112300000Y-56321900D01*
%TO.N,1*%
X110887400Y-56299200D02*
X100602300Y-46014100D01*
X110887400Y-84710900D02*
X110887400Y-56299200D01*
X110300000Y-85298300D02*
X110887400Y-84710900D01*
X110300000Y-86360000D02*
X110300000Y-85298300D01*
%TO.N,sda*%
X109237200Y-71740300D02*
X109444800Y-71532700D01*
X109237200Y-94935500D02*
X109237200Y-71740300D01*
X109475900Y-95174200D02*
X109237200Y-94935500D01*
X109476000Y-95174200D02*
X109475900Y-95174200D01*
X109593600Y-95056600D02*
X109476000Y-95174200D01*
X110296600Y-95056600D02*
X109593600Y-95056600D01*
X111760000Y-96520000D02*
X110296600Y-95056600D01*
%TO.N,S*%
X101471700Y-52038300D02*
X101471700Y-73991600D01*
%TO.N,hv*%
X113760000Y-86900000D02*
X114300000Y-86360000D01*
X113760000Y-96520000D02*
X113760000Y-86900000D01*
X114300000Y-86360000D02*
X114300000Y-74145700D01*
%TO.N,scl*%
X109760000Y-96520000D02*
X109760000Y-95458300D01*
X108835500Y-70754500D02*
X110243800Y-69346200D01*
X108835500Y-95101800D02*
X108835500Y-70754500D01*
X109309700Y-95576000D02*
X108835500Y-95101800D01*
X109642200Y-95576000D02*
X109309700Y-95576000D01*
X109759900Y-95458300D02*
X109642200Y-95576000D01*
X109760000Y-95458300D02*
X109759900Y-95458300D01*
%TO.N,ds_data*%
X86631000Y-63500000D02*
X96575700Y-73444700D01*
X83820000Y-63500000D02*
X86631000Y-63500000D01*
%TO.N,sensor_pwr_en*%
X96411400Y-71135400D02*
X96411400Y-43340200D01*
X101493800Y-76217800D02*
X96411400Y-71135400D01*
X101493800Y-76785800D02*
X101493800Y-76217800D01*
%TO.N,1-1*%
X130946200Y-84873800D02*
X129540000Y-86280000D01*
X130946200Y-69906200D02*
X130946200Y-84873800D01*
X129540000Y-68500000D02*
X130946200Y-69906200D01*
%TO.N,6*%
X96310900Y-76929900D02*
X97178300Y-76062500D01*
X94110800Y-69968700D02*
X94110800Y-55628300D01*
X97178300Y-73036200D02*
X94110800Y-69968700D01*
X97178300Y-76062500D02*
X97178300Y-73036200D01*
X107344700Y-71812200D02*
X107344700Y-65444200D01*
X101733700Y-77423200D02*
X107344700Y-71812200D01*
X98539000Y-77423200D02*
X101733700Y-77423200D01*
X97178300Y-76062500D02*
X98539000Y-77423200D01*
%TO.N,lv*%
X116300000Y-95980000D02*
X116300000Y-86360000D01*
X115760000Y-96520000D02*
X116300000Y-95980000D01*
X82418200Y-69901800D02*
X83820000Y-68500000D01*
X82418200Y-84878200D02*
X82418200Y-69901800D01*
X83820000Y-86280000D02*
X82418200Y-84878200D01*
X116651400Y-86360000D02*
X128135700Y-74875700D01*
X116300000Y-86360000D02*
X116651400Y-86360000D01*
X128135700Y-59904300D02*
X128135700Y-74875700D01*
X129540000Y-58500000D02*
X128135700Y-59904300D01*
X128135700Y-74875700D02*
X129540000Y-76280000D01*
%TO.N,tds_in*%
X122582100Y-70680100D02*
X118514800Y-74747400D01*
X122582100Y-63500000D02*
X122582100Y-70680100D01*
%TD*%
M02*
