%TF.GenerationSoftware,KiCad,Pcbnew,10.0.4*%
%TF.CreationDate,2026-07-04T16:13:57+01:00*%
%TF.ProjectId,default,64656661-756c-4742-9e6b-696361645f70,rev?*%
%TF.SameCoordinates,Original*%
%TF.FileFunction,Drillmap*%
%TF.FilePolarity,Positive*%
%FSLAX45Y45*%
G04 Gerber Fmt 4.5, Leading zero omitted, Abs format (unit mm)*
G04 Created by KiCad (PCBNEW 10.0.4) date 2026-07-04 16:13:57*
%MOMM*%
%LPD*%
G01*
G04 APERTURE LIST*
%ADD10C,0.050000*%
%ADD11C,0.200000*%
%ADD12C,0.100000*%
%ADD13C,0.139999*%
G04 APERTURE END LIST*
D10*
X9100000Y-9652000D02*
G75*
G02*
X8680000Y-9652000I-210000J0D01*
G01*
X8680000Y-9652000D02*
G75*
G02*
X9100000Y-9652000I210000J0D01*
G01*
X12656000Y-9652000D02*
G75*
G02*
X12236000Y-9652000I-210000J0D01*
G01*
X12236000Y-9652000D02*
G75*
G02*
X12656000Y-9652000I210000J0D01*
G01*
X9100000Y-5080000D02*
G75*
G02*
X8680000Y-5080000I-210000J0D01*
G01*
X8680000Y-5080000D02*
G75*
G02*
X9100000Y-5080000I210000J0D01*
G01*
X14168000Y-7366000D02*
G75*
G02*
X7168000Y-7366000I-3500000J0D01*
G01*
X7168000Y-7366000D02*
G75*
G02*
X14168000Y-7366000I3500000J0D01*
G01*
X12656000Y-5080000D02*
G75*
G02*
X12236000Y-5080000I-210000J0D01*
G01*
X12236000Y-5080000D02*
G75*
G02*
X12656000Y-5080000I210000J0D01*
G01*
D11*
D12*
X9396080Y-5547830D02*
X9426080Y-5577830D01*
X9426080Y-5547830D02*
X9396080Y-5577830D01*
X9616090Y-7677990D02*
X9646090Y-7707990D01*
X9646090Y-7677990D02*
X9616090Y-7707990D01*
X9626140Y-4319020D02*
X9656140Y-4349020D01*
X9656140Y-4319020D02*
X9626140Y-4349020D01*
X9642570Y-7329470D02*
X9672570Y-7359470D01*
X9672570Y-7329470D02*
X9642570Y-7359470D01*
X10045230Y-4586410D02*
X10075230Y-4616410D01*
X10075230Y-4586410D02*
X10045230Y-4616410D01*
X10132170Y-5188830D02*
X10162170Y-5218830D01*
X10162170Y-5188830D02*
X10132170Y-5218830D01*
X10132170Y-7384160D02*
X10162170Y-7414160D01*
X10162170Y-7384160D02*
X10132170Y-7414160D01*
X10134380Y-7663580D02*
X10164380Y-7693580D01*
X10164380Y-7663580D02*
X10134380Y-7693580D01*
X10431780Y-4833970D02*
X10461780Y-4863970D01*
X10461780Y-4833970D02*
X10431780Y-4863970D01*
X10719470Y-6529420D02*
X10749470Y-6559420D01*
X10749470Y-6529420D02*
X10719470Y-6559420D01*
X10929480Y-7138270D02*
X10959480Y-7168270D01*
X10959480Y-7138270D02*
X10929480Y-7168270D01*
X11009380Y-6919620D02*
X11039380Y-6949620D01*
X11039380Y-6919620D02*
X11009380Y-6949620D01*
X11415000Y-7399570D02*
X11445000Y-7429570D01*
X11445000Y-7399570D02*
X11415000Y-7429570D01*
X11836480Y-7459740D02*
X11866480Y-7489740D01*
X11866480Y-7459740D02*
X11836480Y-7489740D01*
X12243210Y-6335000D02*
X12273210Y-6365000D01*
X12273210Y-6335000D02*
X12243210Y-6365000D01*
X9700001Y-9641380D02*
G75*
G02*
X9609999Y-9641380I-45001J0D01*
G01*
X9609999Y-9641380D02*
G75*
G02*
X9700001Y-9641380I45001J0D01*
G01*
X9900001Y-9641380D02*
G75*
G02*
X9809999Y-9641380I-45001J0D01*
G01*
X9809999Y-9641380D02*
G75*
G02*
X9900001Y-9641380I45001J0D01*
G01*
X10976000Y-9606280D02*
X10976000Y-9697720D01*
X10930280Y-9652000D02*
X11021720Y-9652000D01*
X11030000Y-8590280D02*
X11030000Y-8681720D01*
X10984280Y-8636000D02*
X11075720Y-8636000D01*
X11176000Y-9606280D02*
X11176000Y-9697720D01*
X11130280Y-9652000D02*
X11221720Y-9652000D01*
X11230000Y-8590280D02*
X11230000Y-8681720D01*
X11184280Y-8636000D02*
X11275720Y-8636000D01*
X11376000Y-9606280D02*
X11376000Y-9697720D01*
X11330280Y-9652000D02*
X11421720Y-9652000D01*
X11430000Y-8590280D02*
X11430000Y-8681720D01*
X11384280Y-8636000D02*
X11475720Y-8636000D01*
X11576000Y-9606280D02*
X11576000Y-9697720D01*
X11530280Y-9652000D02*
X11621720Y-9652000D01*
X11630000Y-8590280D02*
X11630000Y-8681720D01*
X11584280Y-8636000D02*
X11675720Y-8636000D01*
D13*
X8431498Y-5899498D02*
X8431498Y-5800502D01*
X8332502Y-5800502D01*
X8332502Y-5899498D01*
X8431498Y-5899498D01*
X8431498Y-6399498D02*
X8431498Y-6300502D01*
X8332502Y-6300502D01*
X8332502Y-6399498D01*
X8431498Y-6399498D01*
X8431498Y-6899498D02*
X8431498Y-6800502D01*
X8332502Y-6800502D01*
X8332502Y-6899498D01*
X8431498Y-6899498D01*
X8431498Y-7677498D02*
X8431498Y-7578502D01*
X8332502Y-7578502D01*
X8332502Y-7677498D01*
X8431498Y-7677498D01*
X8431498Y-8177498D02*
X8431498Y-8078502D01*
X8332502Y-8078502D01*
X8332502Y-8177498D01*
X8431498Y-8177498D01*
X8431498Y-8677498D02*
X8431498Y-8578502D01*
X8332502Y-8578502D01*
X8332502Y-8677498D01*
X8431498Y-8677498D01*
X13003498Y-5899498D02*
X13003498Y-5800502D01*
X12904502Y-5800502D01*
X12904502Y-5899498D01*
X13003498Y-5899498D01*
X13003498Y-6399498D02*
X13003498Y-6300502D01*
X12904502Y-6300502D01*
X12904502Y-6399498D01*
X13003498Y-6399498D01*
X13003498Y-6899498D02*
X13003498Y-6800502D01*
X12904502Y-6800502D01*
X12904502Y-6899498D01*
X13003498Y-6899498D01*
X13003498Y-7677498D02*
X13003498Y-7578502D01*
X12904502Y-7578502D01*
X12904502Y-7677498D01*
X13003498Y-7677498D01*
X13003498Y-8177498D02*
X13003498Y-8078502D01*
X12904502Y-8078502D01*
X12904502Y-8177498D01*
X13003498Y-8177498D01*
X13003498Y-8677498D02*
X13003498Y-8578502D01*
X12904502Y-8578502D01*
X12904502Y-8677498D01*
X13003498Y-8677498D01*
D11*
X7426277Y-11179984D02*
X7426277Y-10979984D01*
X7426277Y-10979984D02*
X7473896Y-10979984D01*
X7473896Y-10979984D02*
X7502467Y-10989508D01*
X7502467Y-10989508D02*
X7521515Y-11008555D01*
X7521515Y-11008555D02*
X7531039Y-11027603D01*
X7531039Y-11027603D02*
X7540562Y-11065698D01*
X7540562Y-11065698D02*
X7540562Y-11094270D01*
X7540562Y-11094270D02*
X7531039Y-11132365D01*
X7531039Y-11132365D02*
X7521515Y-11151412D01*
X7521515Y-11151412D02*
X7502467Y-11170460D01*
X7502467Y-11170460D02*
X7473896Y-11179984D01*
X7473896Y-11179984D02*
X7426277Y-11179984D01*
X7626277Y-11179984D02*
X7626277Y-11046650D01*
X7626277Y-11084746D02*
X7635801Y-11065698D01*
X7635801Y-11065698D02*
X7645324Y-11056174D01*
X7645324Y-11056174D02*
X7664372Y-11046650D01*
X7664372Y-11046650D02*
X7683420Y-11046650D01*
X7750086Y-11179984D02*
X7750086Y-11046650D01*
X7750086Y-10979984D02*
X7740562Y-10989508D01*
X7740562Y-10989508D02*
X7750086Y-10999031D01*
X7750086Y-10999031D02*
X7759610Y-10989508D01*
X7759610Y-10989508D02*
X7750086Y-10979984D01*
X7750086Y-10979984D02*
X7750086Y-10999031D01*
X7873896Y-11179984D02*
X7854848Y-11170460D01*
X7854848Y-11170460D02*
X7845324Y-11151412D01*
X7845324Y-11151412D02*
X7845324Y-10979984D01*
X7978658Y-11179984D02*
X7959610Y-11170460D01*
X7959610Y-11170460D02*
X7950086Y-11151412D01*
X7950086Y-11151412D02*
X7950086Y-10979984D01*
X8207229Y-11179984D02*
X8207229Y-10979984D01*
X8207229Y-10979984D02*
X8273896Y-11122841D01*
X8273896Y-11122841D02*
X8340562Y-10979984D01*
X8340562Y-10979984D02*
X8340562Y-11179984D01*
X8521515Y-11179984D02*
X8521515Y-11075222D01*
X8521515Y-11075222D02*
X8511991Y-11056174D01*
X8511991Y-11056174D02*
X8492944Y-11046650D01*
X8492944Y-11046650D02*
X8454848Y-11046650D01*
X8454848Y-11046650D02*
X8435801Y-11056174D01*
X8521515Y-11170460D02*
X8502467Y-11179984D01*
X8502467Y-11179984D02*
X8454848Y-11179984D01*
X8454848Y-11179984D02*
X8435801Y-11170460D01*
X8435801Y-11170460D02*
X8426277Y-11151412D01*
X8426277Y-11151412D02*
X8426277Y-11132365D01*
X8426277Y-11132365D02*
X8435801Y-11113317D01*
X8435801Y-11113317D02*
X8454848Y-11103793D01*
X8454848Y-11103793D02*
X8502467Y-11103793D01*
X8502467Y-11103793D02*
X8521515Y-11094270D01*
X8616753Y-11046650D02*
X8616753Y-11246650D01*
X8616753Y-11056174D02*
X8635801Y-11046650D01*
X8635801Y-11046650D02*
X8673896Y-11046650D01*
X8673896Y-11046650D02*
X8692944Y-11056174D01*
X8692944Y-11056174D02*
X8702467Y-11065698D01*
X8702467Y-11065698D02*
X8711991Y-11084746D01*
X8711991Y-11084746D02*
X8711991Y-11141889D01*
X8711991Y-11141889D02*
X8702467Y-11160936D01*
X8702467Y-11160936D02*
X8692944Y-11170460D01*
X8692944Y-11170460D02*
X8673896Y-11179984D01*
X8673896Y-11179984D02*
X8635801Y-11179984D01*
X8635801Y-11179984D02*
X8616753Y-11170460D01*
X8797705Y-11160936D02*
X8807229Y-11170460D01*
X8807229Y-11170460D02*
X8797705Y-11179984D01*
X8797705Y-11179984D02*
X8788182Y-11170460D01*
X8788182Y-11170460D02*
X8797705Y-11160936D01*
X8797705Y-11160936D02*
X8797705Y-11179984D01*
X8797705Y-11056174D02*
X8807229Y-11065698D01*
X8807229Y-11065698D02*
X8797705Y-11075222D01*
X8797705Y-11075222D02*
X8788182Y-11065698D01*
X8788182Y-11065698D02*
X8797705Y-11056174D01*
X8797705Y-11056174D02*
X8797705Y-11075222D01*
D12*
X7135500Y-11493500D02*
X7165500Y-11523500D01*
X7165500Y-11493500D02*
X7135500Y-11523500D01*
D11*
X7464372Y-11399984D02*
X7483420Y-11399984D01*
X7483420Y-11399984D02*
X7502467Y-11409508D01*
X7502467Y-11409508D02*
X7511991Y-11419031D01*
X7511991Y-11419031D02*
X7521515Y-11438079D01*
X7521515Y-11438079D02*
X7531039Y-11476174D01*
X7531039Y-11476174D02*
X7531039Y-11523793D01*
X7531039Y-11523793D02*
X7521515Y-11561888D01*
X7521515Y-11561888D02*
X7511991Y-11580936D01*
X7511991Y-11580936D02*
X7502467Y-11590460D01*
X7502467Y-11590460D02*
X7483420Y-11599984D01*
X7483420Y-11599984D02*
X7464372Y-11599984D01*
X7464372Y-11599984D02*
X7445324Y-11590460D01*
X7445324Y-11590460D02*
X7435801Y-11580936D01*
X7435801Y-11580936D02*
X7426277Y-11561888D01*
X7426277Y-11561888D02*
X7416753Y-11523793D01*
X7416753Y-11523793D02*
X7416753Y-11476174D01*
X7416753Y-11476174D02*
X7426277Y-11438079D01*
X7426277Y-11438079D02*
X7435801Y-11419031D01*
X7435801Y-11419031D02*
X7445324Y-11409508D01*
X7445324Y-11409508D02*
X7464372Y-11399984D01*
X7616753Y-11580936D02*
X7626277Y-11590460D01*
X7626277Y-11590460D02*
X7616753Y-11599984D01*
X7616753Y-11599984D02*
X7607229Y-11590460D01*
X7607229Y-11590460D02*
X7616753Y-11580936D01*
X7616753Y-11580936D02*
X7616753Y-11599984D01*
X7692943Y-11399984D02*
X7816753Y-11399984D01*
X7816753Y-11399984D02*
X7750086Y-11476174D01*
X7750086Y-11476174D02*
X7778658Y-11476174D01*
X7778658Y-11476174D02*
X7797705Y-11485698D01*
X7797705Y-11485698D02*
X7807229Y-11495222D01*
X7807229Y-11495222D02*
X7816753Y-11514269D01*
X7816753Y-11514269D02*
X7816753Y-11561888D01*
X7816753Y-11561888D02*
X7807229Y-11580936D01*
X7807229Y-11580936D02*
X7797705Y-11590460D01*
X7797705Y-11590460D02*
X7778658Y-11599984D01*
X7778658Y-11599984D02*
X7721515Y-11599984D01*
X7721515Y-11599984D02*
X7702467Y-11590460D01*
X7702467Y-11590460D02*
X7692943Y-11580936D01*
X7940562Y-11399984D02*
X7959610Y-11399984D01*
X7959610Y-11399984D02*
X7978658Y-11409508D01*
X7978658Y-11409508D02*
X7988182Y-11419031D01*
X7988182Y-11419031D02*
X7997705Y-11438079D01*
X7997705Y-11438079D02*
X8007229Y-11476174D01*
X8007229Y-11476174D02*
X8007229Y-11523793D01*
X8007229Y-11523793D02*
X7997705Y-11561888D01*
X7997705Y-11561888D02*
X7988182Y-11580936D01*
X7988182Y-11580936D02*
X7978658Y-11590460D01*
X7978658Y-11590460D02*
X7959610Y-11599984D01*
X7959610Y-11599984D02*
X7940562Y-11599984D01*
X7940562Y-11599984D02*
X7921515Y-11590460D01*
X7921515Y-11590460D02*
X7911991Y-11580936D01*
X7911991Y-11580936D02*
X7902467Y-11561888D01*
X7902467Y-11561888D02*
X7892943Y-11523793D01*
X7892943Y-11523793D02*
X7892943Y-11476174D01*
X7892943Y-11476174D02*
X7902467Y-11438079D01*
X7902467Y-11438079D02*
X7911991Y-11419031D01*
X7911991Y-11419031D02*
X7921515Y-11409508D01*
X7921515Y-11409508D02*
X7940562Y-11399984D01*
X8131039Y-11399984D02*
X8150086Y-11399984D01*
X8150086Y-11399984D02*
X8169134Y-11409508D01*
X8169134Y-11409508D02*
X8178658Y-11419031D01*
X8178658Y-11419031D02*
X8188182Y-11438079D01*
X8188182Y-11438079D02*
X8197705Y-11476174D01*
X8197705Y-11476174D02*
X8197705Y-11523793D01*
X8197705Y-11523793D02*
X8188182Y-11561888D01*
X8188182Y-11561888D02*
X8178658Y-11580936D01*
X8178658Y-11580936D02*
X8169134Y-11590460D01*
X8169134Y-11590460D02*
X8150086Y-11599984D01*
X8150086Y-11599984D02*
X8131039Y-11599984D01*
X8131039Y-11599984D02*
X8111991Y-11590460D01*
X8111991Y-11590460D02*
X8102467Y-11580936D01*
X8102467Y-11580936D02*
X8092943Y-11561888D01*
X8092943Y-11561888D02*
X8083420Y-11523793D01*
X8083420Y-11523793D02*
X8083420Y-11476174D01*
X8083420Y-11476174D02*
X8092943Y-11438079D01*
X8092943Y-11438079D02*
X8102467Y-11419031D01*
X8102467Y-11419031D02*
X8111991Y-11409508D01*
X8111991Y-11409508D02*
X8131039Y-11399984D01*
X8283420Y-11599984D02*
X8283420Y-11466650D01*
X8283420Y-11485698D02*
X8292943Y-11476174D01*
X8292943Y-11476174D02*
X8311991Y-11466650D01*
X8311991Y-11466650D02*
X8340563Y-11466650D01*
X8340563Y-11466650D02*
X8359610Y-11476174D01*
X8359610Y-11476174D02*
X8369134Y-11495222D01*
X8369134Y-11495222D02*
X8369134Y-11599984D01*
X8369134Y-11495222D02*
X8378658Y-11476174D01*
X8378658Y-11476174D02*
X8397705Y-11466650D01*
X8397705Y-11466650D02*
X8426277Y-11466650D01*
X8426277Y-11466650D02*
X8445325Y-11476174D01*
X8445325Y-11476174D02*
X8454848Y-11495222D01*
X8454848Y-11495222D02*
X8454848Y-11599984D01*
X8550086Y-11599984D02*
X8550086Y-11466650D01*
X8550086Y-11485698D02*
X8559610Y-11476174D01*
X8559610Y-11476174D02*
X8578658Y-11466650D01*
X8578658Y-11466650D02*
X8607229Y-11466650D01*
X8607229Y-11466650D02*
X8626277Y-11476174D01*
X8626277Y-11476174D02*
X8635801Y-11495222D01*
X8635801Y-11495222D02*
X8635801Y-11599984D01*
X8635801Y-11495222D02*
X8645325Y-11476174D01*
X8645325Y-11476174D02*
X8664372Y-11466650D01*
X8664372Y-11466650D02*
X8692944Y-11466650D01*
X8692944Y-11466650D02*
X8711991Y-11476174D01*
X8711991Y-11476174D02*
X8721515Y-11495222D01*
X8721515Y-11495222D02*
X8721515Y-11599984D01*
X9111991Y-11390460D02*
X8940563Y-11647603D01*
X9369134Y-11399984D02*
X9388182Y-11399984D01*
X9388182Y-11399984D02*
X9407229Y-11409508D01*
X9407229Y-11409508D02*
X9416753Y-11419031D01*
X9416753Y-11419031D02*
X9426277Y-11438079D01*
X9426277Y-11438079D02*
X9435801Y-11476174D01*
X9435801Y-11476174D02*
X9435801Y-11523793D01*
X9435801Y-11523793D02*
X9426277Y-11561888D01*
X9426277Y-11561888D02*
X9416753Y-11580936D01*
X9416753Y-11580936D02*
X9407229Y-11590460D01*
X9407229Y-11590460D02*
X9388182Y-11599984D01*
X9388182Y-11599984D02*
X9369134Y-11599984D01*
X9369134Y-11599984D02*
X9350087Y-11590460D01*
X9350087Y-11590460D02*
X9340563Y-11580936D01*
X9340563Y-11580936D02*
X9331039Y-11561888D01*
X9331039Y-11561888D02*
X9321515Y-11523793D01*
X9321515Y-11523793D02*
X9321515Y-11476174D01*
X9321515Y-11476174D02*
X9331039Y-11438079D01*
X9331039Y-11438079D02*
X9340563Y-11419031D01*
X9340563Y-11419031D02*
X9350087Y-11409508D01*
X9350087Y-11409508D02*
X9369134Y-11399984D01*
X9521515Y-11580936D02*
X9531039Y-11590460D01*
X9531039Y-11590460D02*
X9521515Y-11599984D01*
X9521515Y-11599984D02*
X9511991Y-11590460D01*
X9511991Y-11590460D02*
X9521515Y-11580936D01*
X9521515Y-11580936D02*
X9521515Y-11599984D01*
X9654848Y-11399984D02*
X9673896Y-11399984D01*
X9673896Y-11399984D02*
X9692944Y-11409508D01*
X9692944Y-11409508D02*
X9702468Y-11419031D01*
X9702468Y-11419031D02*
X9711991Y-11438079D01*
X9711991Y-11438079D02*
X9721515Y-11476174D01*
X9721515Y-11476174D02*
X9721515Y-11523793D01*
X9721515Y-11523793D02*
X9711991Y-11561888D01*
X9711991Y-11561888D02*
X9702468Y-11580936D01*
X9702468Y-11580936D02*
X9692944Y-11590460D01*
X9692944Y-11590460D02*
X9673896Y-11599984D01*
X9673896Y-11599984D02*
X9654848Y-11599984D01*
X9654848Y-11599984D02*
X9635801Y-11590460D01*
X9635801Y-11590460D02*
X9626277Y-11580936D01*
X9626277Y-11580936D02*
X9616753Y-11561888D01*
X9616753Y-11561888D02*
X9607229Y-11523793D01*
X9607229Y-11523793D02*
X9607229Y-11476174D01*
X9607229Y-11476174D02*
X9616753Y-11438079D01*
X9616753Y-11438079D02*
X9626277Y-11419031D01*
X9626277Y-11419031D02*
X9635801Y-11409508D01*
X9635801Y-11409508D02*
X9654848Y-11399984D01*
X9911991Y-11599984D02*
X9797706Y-11599984D01*
X9854848Y-11599984D02*
X9854848Y-11399984D01*
X9854848Y-11399984D02*
X9835801Y-11428555D01*
X9835801Y-11428555D02*
X9816753Y-11447603D01*
X9816753Y-11447603D02*
X9797706Y-11457127D01*
X10102468Y-11599984D02*
X9988182Y-11599984D01*
X10045325Y-11599984D02*
X10045325Y-11399984D01*
X10045325Y-11399984D02*
X10026277Y-11428555D01*
X10026277Y-11428555D02*
X10007229Y-11447603D01*
X10007229Y-11447603D02*
X9988182Y-11457127D01*
X10216753Y-11485698D02*
X10197706Y-11476174D01*
X10197706Y-11476174D02*
X10188182Y-11466650D01*
X10188182Y-11466650D02*
X10178658Y-11447603D01*
X10178658Y-11447603D02*
X10178658Y-11438079D01*
X10178658Y-11438079D02*
X10188182Y-11419031D01*
X10188182Y-11419031D02*
X10197706Y-11409508D01*
X10197706Y-11409508D02*
X10216753Y-11399984D01*
X10216753Y-11399984D02*
X10254849Y-11399984D01*
X10254849Y-11399984D02*
X10273896Y-11409508D01*
X10273896Y-11409508D02*
X10283420Y-11419031D01*
X10283420Y-11419031D02*
X10292944Y-11438079D01*
X10292944Y-11438079D02*
X10292944Y-11447603D01*
X10292944Y-11447603D02*
X10283420Y-11466650D01*
X10283420Y-11466650D02*
X10273896Y-11476174D01*
X10273896Y-11476174D02*
X10254849Y-11485698D01*
X10254849Y-11485698D02*
X10216753Y-11485698D01*
X10216753Y-11485698D02*
X10197706Y-11495222D01*
X10197706Y-11495222D02*
X10188182Y-11504746D01*
X10188182Y-11504746D02*
X10178658Y-11523793D01*
X10178658Y-11523793D02*
X10178658Y-11561888D01*
X10178658Y-11561888D02*
X10188182Y-11580936D01*
X10188182Y-11580936D02*
X10197706Y-11590460D01*
X10197706Y-11590460D02*
X10216753Y-11599984D01*
X10216753Y-11599984D02*
X10254849Y-11599984D01*
X10254849Y-11599984D02*
X10273896Y-11590460D01*
X10273896Y-11590460D02*
X10283420Y-11580936D01*
X10283420Y-11580936D02*
X10292944Y-11561888D01*
X10292944Y-11561888D02*
X10292944Y-11523793D01*
X10292944Y-11523793D02*
X10283420Y-11504746D01*
X10283420Y-11504746D02*
X10273896Y-11495222D01*
X10273896Y-11495222D02*
X10254849Y-11485698D01*
X10369134Y-11399984D02*
X10369134Y-11438079D01*
X10445325Y-11399984D02*
X10445325Y-11438079D01*
X10740563Y-11676174D02*
X10731039Y-11666650D01*
X10731039Y-11666650D02*
X10711991Y-11638079D01*
X10711991Y-11638079D02*
X10702468Y-11619031D01*
X10702468Y-11619031D02*
X10692944Y-11590460D01*
X10692944Y-11590460D02*
X10683420Y-11542841D01*
X10683420Y-11542841D02*
X10683420Y-11504746D01*
X10683420Y-11504746D02*
X10692944Y-11457127D01*
X10692944Y-11457127D02*
X10702468Y-11428555D01*
X10702468Y-11428555D02*
X10711991Y-11409508D01*
X10711991Y-11409508D02*
X10731039Y-11380936D01*
X10731039Y-11380936D02*
X10740563Y-11371412D01*
X10921515Y-11599984D02*
X10807230Y-11599984D01*
X10864372Y-11599984D02*
X10864372Y-11399984D01*
X10864372Y-11399984D02*
X10845325Y-11428555D01*
X10845325Y-11428555D02*
X10826277Y-11447603D01*
X10826277Y-11447603D02*
X10807230Y-11457127D01*
X11102468Y-11399984D02*
X11007230Y-11399984D01*
X11007230Y-11399984D02*
X10997706Y-11495222D01*
X10997706Y-11495222D02*
X11007230Y-11485698D01*
X11007230Y-11485698D02*
X11026277Y-11476174D01*
X11026277Y-11476174D02*
X11073896Y-11476174D01*
X11073896Y-11476174D02*
X11092944Y-11485698D01*
X11092944Y-11485698D02*
X11102468Y-11495222D01*
X11102468Y-11495222D02*
X11111991Y-11514269D01*
X11111991Y-11514269D02*
X11111991Y-11561888D01*
X11111991Y-11561888D02*
X11102468Y-11580936D01*
X11102468Y-11580936D02*
X11092944Y-11590460D01*
X11092944Y-11590460D02*
X11073896Y-11599984D01*
X11073896Y-11599984D02*
X11026277Y-11599984D01*
X11026277Y-11599984D02*
X11007230Y-11590460D01*
X11007230Y-11590460D02*
X10997706Y-11580936D01*
X11350087Y-11599984D02*
X11350087Y-11399984D01*
X11435801Y-11599984D02*
X11435801Y-11495222D01*
X11435801Y-11495222D02*
X11426277Y-11476174D01*
X11426277Y-11476174D02*
X11407230Y-11466650D01*
X11407230Y-11466650D02*
X11378658Y-11466650D01*
X11378658Y-11466650D02*
X11359610Y-11476174D01*
X11359610Y-11476174D02*
X11350087Y-11485698D01*
X11559610Y-11599984D02*
X11540563Y-11590460D01*
X11540563Y-11590460D02*
X11531039Y-11580936D01*
X11531039Y-11580936D02*
X11521515Y-11561888D01*
X11521515Y-11561888D02*
X11521515Y-11504746D01*
X11521515Y-11504746D02*
X11531039Y-11485698D01*
X11531039Y-11485698D02*
X11540563Y-11476174D01*
X11540563Y-11476174D02*
X11559610Y-11466650D01*
X11559610Y-11466650D02*
X11588182Y-11466650D01*
X11588182Y-11466650D02*
X11607230Y-11476174D01*
X11607230Y-11476174D02*
X11616753Y-11485698D01*
X11616753Y-11485698D02*
X11626277Y-11504746D01*
X11626277Y-11504746D02*
X11626277Y-11561888D01*
X11626277Y-11561888D02*
X11616753Y-11580936D01*
X11616753Y-11580936D02*
X11607230Y-11590460D01*
X11607230Y-11590460D02*
X11588182Y-11599984D01*
X11588182Y-11599984D02*
X11559610Y-11599984D01*
X11740563Y-11599984D02*
X11721515Y-11590460D01*
X11721515Y-11590460D02*
X11711991Y-11571412D01*
X11711991Y-11571412D02*
X11711991Y-11399984D01*
X11892944Y-11590460D02*
X11873896Y-11599984D01*
X11873896Y-11599984D02*
X11835801Y-11599984D01*
X11835801Y-11599984D02*
X11816753Y-11590460D01*
X11816753Y-11590460D02*
X11807230Y-11571412D01*
X11807230Y-11571412D02*
X11807230Y-11495222D01*
X11807230Y-11495222D02*
X11816753Y-11476174D01*
X11816753Y-11476174D02*
X11835801Y-11466650D01*
X11835801Y-11466650D02*
X11873896Y-11466650D01*
X11873896Y-11466650D02*
X11892944Y-11476174D01*
X11892944Y-11476174D02*
X11902468Y-11495222D01*
X11902468Y-11495222D02*
X11902468Y-11514269D01*
X11902468Y-11514269D02*
X11807230Y-11533317D01*
X11978658Y-11590460D02*
X11997706Y-11599984D01*
X11997706Y-11599984D02*
X12035801Y-11599984D01*
X12035801Y-11599984D02*
X12054849Y-11590460D01*
X12054849Y-11590460D02*
X12064372Y-11571412D01*
X12064372Y-11571412D02*
X12064372Y-11561888D01*
X12064372Y-11561888D02*
X12054849Y-11542841D01*
X12054849Y-11542841D02*
X12035801Y-11533317D01*
X12035801Y-11533317D02*
X12007230Y-11533317D01*
X12007230Y-11533317D02*
X11988182Y-11523793D01*
X11988182Y-11523793D02*
X11978658Y-11504746D01*
X11978658Y-11504746D02*
X11978658Y-11495222D01*
X11978658Y-11495222D02*
X11988182Y-11476174D01*
X11988182Y-11476174D02*
X12007230Y-11466650D01*
X12007230Y-11466650D02*
X12035801Y-11466650D01*
X12035801Y-11466650D02*
X12054849Y-11476174D01*
X12131039Y-11676174D02*
X12140563Y-11666650D01*
X12140563Y-11666650D02*
X12159611Y-11638079D01*
X12159611Y-11638079D02*
X12169134Y-11619031D01*
X12169134Y-11619031D02*
X12178658Y-11590460D01*
X12178658Y-11590460D02*
X12188182Y-11542841D01*
X12188182Y-11542841D02*
X12188182Y-11504746D01*
X12188182Y-11504746D02*
X12178658Y-11457127D01*
X12178658Y-11457127D02*
X12169134Y-11428555D01*
X12169134Y-11428555D02*
X12159611Y-11409508D01*
X12159611Y-11409508D02*
X12140563Y-11380936D01*
X12140563Y-11380936D02*
X12131039Y-11371412D01*
D12*
X7165500Y-11772500D02*
G75*
G02*
X7075498Y-11772500I-45001J0D01*
G01*
X7075498Y-11772500D02*
G75*
G02*
X7165500Y-11772500I45001J0D01*
G01*
D11*
X7464372Y-11663984D02*
X7483420Y-11663984D01*
X7483420Y-11663984D02*
X7502467Y-11673508D01*
X7502467Y-11673508D02*
X7511991Y-11683031D01*
X7511991Y-11683031D02*
X7521515Y-11702079D01*
X7521515Y-11702079D02*
X7531039Y-11740174D01*
X7531039Y-11740174D02*
X7531039Y-11787793D01*
X7531039Y-11787793D02*
X7521515Y-11825888D01*
X7521515Y-11825888D02*
X7511991Y-11844936D01*
X7511991Y-11844936D02*
X7502467Y-11854460D01*
X7502467Y-11854460D02*
X7483420Y-11863984D01*
X7483420Y-11863984D02*
X7464372Y-11863984D01*
X7464372Y-11863984D02*
X7445324Y-11854460D01*
X7445324Y-11854460D02*
X7435801Y-11844936D01*
X7435801Y-11844936D02*
X7426277Y-11825888D01*
X7426277Y-11825888D02*
X7416753Y-11787793D01*
X7416753Y-11787793D02*
X7416753Y-11740174D01*
X7416753Y-11740174D02*
X7426277Y-11702079D01*
X7426277Y-11702079D02*
X7435801Y-11683031D01*
X7435801Y-11683031D02*
X7445324Y-11673508D01*
X7445324Y-11673508D02*
X7464372Y-11663984D01*
X7616753Y-11844936D02*
X7626277Y-11854460D01*
X7626277Y-11854460D02*
X7616753Y-11863984D01*
X7616753Y-11863984D02*
X7607229Y-11854460D01*
X7607229Y-11854460D02*
X7616753Y-11844936D01*
X7616753Y-11844936D02*
X7616753Y-11863984D01*
X7721515Y-11863984D02*
X7759610Y-11863984D01*
X7759610Y-11863984D02*
X7778658Y-11854460D01*
X7778658Y-11854460D02*
X7788182Y-11844936D01*
X7788182Y-11844936D02*
X7807229Y-11816365D01*
X7807229Y-11816365D02*
X7816753Y-11778269D01*
X7816753Y-11778269D02*
X7816753Y-11702079D01*
X7816753Y-11702079D02*
X7807229Y-11683031D01*
X7807229Y-11683031D02*
X7797705Y-11673508D01*
X7797705Y-11673508D02*
X7778658Y-11663984D01*
X7778658Y-11663984D02*
X7740562Y-11663984D01*
X7740562Y-11663984D02*
X7721515Y-11673508D01*
X7721515Y-11673508D02*
X7711991Y-11683031D01*
X7711991Y-11683031D02*
X7702467Y-11702079D01*
X7702467Y-11702079D02*
X7702467Y-11749698D01*
X7702467Y-11749698D02*
X7711991Y-11768746D01*
X7711991Y-11768746D02*
X7721515Y-11778269D01*
X7721515Y-11778269D02*
X7740562Y-11787793D01*
X7740562Y-11787793D02*
X7778658Y-11787793D01*
X7778658Y-11787793D02*
X7797705Y-11778269D01*
X7797705Y-11778269D02*
X7807229Y-11768746D01*
X7807229Y-11768746D02*
X7816753Y-11749698D01*
X7940562Y-11663984D02*
X7959610Y-11663984D01*
X7959610Y-11663984D02*
X7978658Y-11673508D01*
X7978658Y-11673508D02*
X7988182Y-11683031D01*
X7988182Y-11683031D02*
X7997705Y-11702079D01*
X7997705Y-11702079D02*
X8007229Y-11740174D01*
X8007229Y-11740174D02*
X8007229Y-11787793D01*
X8007229Y-11787793D02*
X7997705Y-11825888D01*
X7997705Y-11825888D02*
X7988182Y-11844936D01*
X7988182Y-11844936D02*
X7978658Y-11854460D01*
X7978658Y-11854460D02*
X7959610Y-11863984D01*
X7959610Y-11863984D02*
X7940562Y-11863984D01*
X7940562Y-11863984D02*
X7921515Y-11854460D01*
X7921515Y-11854460D02*
X7911991Y-11844936D01*
X7911991Y-11844936D02*
X7902467Y-11825888D01*
X7902467Y-11825888D02*
X7892943Y-11787793D01*
X7892943Y-11787793D02*
X7892943Y-11740174D01*
X7892943Y-11740174D02*
X7902467Y-11702079D01*
X7902467Y-11702079D02*
X7911991Y-11683031D01*
X7911991Y-11683031D02*
X7921515Y-11673508D01*
X7921515Y-11673508D02*
X7940562Y-11663984D01*
X8131039Y-11663984D02*
X8150086Y-11663984D01*
X8150086Y-11663984D02*
X8169134Y-11673508D01*
X8169134Y-11673508D02*
X8178658Y-11683031D01*
X8178658Y-11683031D02*
X8188182Y-11702079D01*
X8188182Y-11702079D02*
X8197705Y-11740174D01*
X8197705Y-11740174D02*
X8197705Y-11787793D01*
X8197705Y-11787793D02*
X8188182Y-11825888D01*
X8188182Y-11825888D02*
X8178658Y-11844936D01*
X8178658Y-11844936D02*
X8169134Y-11854460D01*
X8169134Y-11854460D02*
X8150086Y-11863984D01*
X8150086Y-11863984D02*
X8131039Y-11863984D01*
X8131039Y-11863984D02*
X8111991Y-11854460D01*
X8111991Y-11854460D02*
X8102467Y-11844936D01*
X8102467Y-11844936D02*
X8092943Y-11825888D01*
X8092943Y-11825888D02*
X8083420Y-11787793D01*
X8083420Y-11787793D02*
X8083420Y-11740174D01*
X8083420Y-11740174D02*
X8092943Y-11702079D01*
X8092943Y-11702079D02*
X8102467Y-11683031D01*
X8102467Y-11683031D02*
X8111991Y-11673508D01*
X8111991Y-11673508D02*
X8131039Y-11663984D01*
X8283420Y-11863984D02*
X8283420Y-11730650D01*
X8283420Y-11749698D02*
X8292943Y-11740174D01*
X8292943Y-11740174D02*
X8311991Y-11730650D01*
X8311991Y-11730650D02*
X8340563Y-11730650D01*
X8340563Y-11730650D02*
X8359610Y-11740174D01*
X8359610Y-11740174D02*
X8369134Y-11759222D01*
X8369134Y-11759222D02*
X8369134Y-11863984D01*
X8369134Y-11759222D02*
X8378658Y-11740174D01*
X8378658Y-11740174D02*
X8397705Y-11730650D01*
X8397705Y-11730650D02*
X8426277Y-11730650D01*
X8426277Y-11730650D02*
X8445325Y-11740174D01*
X8445325Y-11740174D02*
X8454848Y-11759222D01*
X8454848Y-11759222D02*
X8454848Y-11863984D01*
X8550086Y-11863984D02*
X8550086Y-11730650D01*
X8550086Y-11749698D02*
X8559610Y-11740174D01*
X8559610Y-11740174D02*
X8578658Y-11730650D01*
X8578658Y-11730650D02*
X8607229Y-11730650D01*
X8607229Y-11730650D02*
X8626277Y-11740174D01*
X8626277Y-11740174D02*
X8635801Y-11759222D01*
X8635801Y-11759222D02*
X8635801Y-11863984D01*
X8635801Y-11759222D02*
X8645325Y-11740174D01*
X8645325Y-11740174D02*
X8664372Y-11730650D01*
X8664372Y-11730650D02*
X8692944Y-11730650D01*
X8692944Y-11730650D02*
X8711991Y-11740174D01*
X8711991Y-11740174D02*
X8721515Y-11759222D01*
X8721515Y-11759222D02*
X8721515Y-11863984D01*
X9111991Y-11654460D02*
X8940563Y-11911603D01*
X9369134Y-11663984D02*
X9388182Y-11663984D01*
X9388182Y-11663984D02*
X9407229Y-11673508D01*
X9407229Y-11673508D02*
X9416753Y-11683031D01*
X9416753Y-11683031D02*
X9426277Y-11702079D01*
X9426277Y-11702079D02*
X9435801Y-11740174D01*
X9435801Y-11740174D02*
X9435801Y-11787793D01*
X9435801Y-11787793D02*
X9426277Y-11825888D01*
X9426277Y-11825888D02*
X9416753Y-11844936D01*
X9416753Y-11844936D02*
X9407229Y-11854460D01*
X9407229Y-11854460D02*
X9388182Y-11863984D01*
X9388182Y-11863984D02*
X9369134Y-11863984D01*
X9369134Y-11863984D02*
X9350087Y-11854460D01*
X9350087Y-11854460D02*
X9340563Y-11844936D01*
X9340563Y-11844936D02*
X9331039Y-11825888D01*
X9331039Y-11825888D02*
X9321515Y-11787793D01*
X9321515Y-11787793D02*
X9321515Y-11740174D01*
X9321515Y-11740174D02*
X9331039Y-11702079D01*
X9331039Y-11702079D02*
X9340563Y-11683031D01*
X9340563Y-11683031D02*
X9350087Y-11673508D01*
X9350087Y-11673508D02*
X9369134Y-11663984D01*
X9521515Y-11844936D02*
X9531039Y-11854460D01*
X9531039Y-11854460D02*
X9521515Y-11863984D01*
X9521515Y-11863984D02*
X9511991Y-11854460D01*
X9511991Y-11854460D02*
X9521515Y-11844936D01*
X9521515Y-11844936D02*
X9521515Y-11863984D01*
X9654848Y-11663984D02*
X9673896Y-11663984D01*
X9673896Y-11663984D02*
X9692944Y-11673508D01*
X9692944Y-11673508D02*
X9702468Y-11683031D01*
X9702468Y-11683031D02*
X9711991Y-11702079D01*
X9711991Y-11702079D02*
X9721515Y-11740174D01*
X9721515Y-11740174D02*
X9721515Y-11787793D01*
X9721515Y-11787793D02*
X9711991Y-11825888D01*
X9711991Y-11825888D02*
X9702468Y-11844936D01*
X9702468Y-11844936D02*
X9692944Y-11854460D01*
X9692944Y-11854460D02*
X9673896Y-11863984D01*
X9673896Y-11863984D02*
X9654848Y-11863984D01*
X9654848Y-11863984D02*
X9635801Y-11854460D01*
X9635801Y-11854460D02*
X9626277Y-11844936D01*
X9626277Y-11844936D02*
X9616753Y-11825888D01*
X9616753Y-11825888D02*
X9607229Y-11787793D01*
X9607229Y-11787793D02*
X9607229Y-11740174D01*
X9607229Y-11740174D02*
X9616753Y-11702079D01*
X9616753Y-11702079D02*
X9626277Y-11683031D01*
X9626277Y-11683031D02*
X9635801Y-11673508D01*
X9635801Y-11673508D02*
X9654848Y-11663984D01*
X9788182Y-11663984D02*
X9911991Y-11663984D01*
X9911991Y-11663984D02*
X9845325Y-11740174D01*
X9845325Y-11740174D02*
X9873896Y-11740174D01*
X9873896Y-11740174D02*
X9892944Y-11749698D01*
X9892944Y-11749698D02*
X9902468Y-11759222D01*
X9902468Y-11759222D02*
X9911991Y-11778269D01*
X9911991Y-11778269D02*
X9911991Y-11825888D01*
X9911991Y-11825888D02*
X9902468Y-11844936D01*
X9902468Y-11844936D02*
X9892944Y-11854460D01*
X9892944Y-11854460D02*
X9873896Y-11863984D01*
X9873896Y-11863984D02*
X9816753Y-11863984D01*
X9816753Y-11863984D02*
X9797706Y-11854460D01*
X9797706Y-11854460D02*
X9788182Y-11844936D01*
X10092944Y-11663984D02*
X9997706Y-11663984D01*
X9997706Y-11663984D02*
X9988182Y-11759222D01*
X9988182Y-11759222D02*
X9997706Y-11749698D01*
X9997706Y-11749698D02*
X10016753Y-11740174D01*
X10016753Y-11740174D02*
X10064372Y-11740174D01*
X10064372Y-11740174D02*
X10083420Y-11749698D01*
X10083420Y-11749698D02*
X10092944Y-11759222D01*
X10092944Y-11759222D02*
X10102468Y-11778269D01*
X10102468Y-11778269D02*
X10102468Y-11825888D01*
X10102468Y-11825888D02*
X10092944Y-11844936D01*
X10092944Y-11844936D02*
X10083420Y-11854460D01*
X10083420Y-11854460D02*
X10064372Y-11863984D01*
X10064372Y-11863984D02*
X10016753Y-11863984D01*
X10016753Y-11863984D02*
X9997706Y-11854460D01*
X9997706Y-11854460D02*
X9988182Y-11844936D01*
X10273896Y-11730650D02*
X10273896Y-11863984D01*
X10226277Y-11654460D02*
X10178658Y-11797317D01*
X10178658Y-11797317D02*
X10302468Y-11797317D01*
X10369134Y-11663984D02*
X10369134Y-11702079D01*
X10445325Y-11663984D02*
X10445325Y-11702079D01*
X10740563Y-11940174D02*
X10731039Y-11930650D01*
X10731039Y-11930650D02*
X10711991Y-11902079D01*
X10711991Y-11902079D02*
X10702468Y-11883031D01*
X10702468Y-11883031D02*
X10692944Y-11854460D01*
X10692944Y-11854460D02*
X10683420Y-11806841D01*
X10683420Y-11806841D02*
X10683420Y-11768746D01*
X10683420Y-11768746D02*
X10692944Y-11721127D01*
X10692944Y-11721127D02*
X10702468Y-11692555D01*
X10702468Y-11692555D02*
X10711991Y-11673508D01*
X10711991Y-11673508D02*
X10731039Y-11644936D01*
X10731039Y-11644936D02*
X10740563Y-11635412D01*
X10807230Y-11683031D02*
X10816753Y-11673508D01*
X10816753Y-11673508D02*
X10835801Y-11663984D01*
X10835801Y-11663984D02*
X10883420Y-11663984D01*
X10883420Y-11663984D02*
X10902468Y-11673508D01*
X10902468Y-11673508D02*
X10911991Y-11683031D01*
X10911991Y-11683031D02*
X10921515Y-11702079D01*
X10921515Y-11702079D02*
X10921515Y-11721127D01*
X10921515Y-11721127D02*
X10911991Y-11749698D01*
X10911991Y-11749698D02*
X10797706Y-11863984D01*
X10797706Y-11863984D02*
X10921515Y-11863984D01*
X11159611Y-11863984D02*
X11159611Y-11663984D01*
X11245325Y-11863984D02*
X11245325Y-11759222D01*
X11245325Y-11759222D02*
X11235801Y-11740174D01*
X11235801Y-11740174D02*
X11216753Y-11730650D01*
X11216753Y-11730650D02*
X11188182Y-11730650D01*
X11188182Y-11730650D02*
X11169134Y-11740174D01*
X11169134Y-11740174D02*
X11159611Y-11749698D01*
X11369134Y-11863984D02*
X11350087Y-11854460D01*
X11350087Y-11854460D02*
X11340563Y-11844936D01*
X11340563Y-11844936D02*
X11331039Y-11825888D01*
X11331039Y-11825888D02*
X11331039Y-11768746D01*
X11331039Y-11768746D02*
X11340563Y-11749698D01*
X11340563Y-11749698D02*
X11350087Y-11740174D01*
X11350087Y-11740174D02*
X11369134Y-11730650D01*
X11369134Y-11730650D02*
X11397706Y-11730650D01*
X11397706Y-11730650D02*
X11416753Y-11740174D01*
X11416753Y-11740174D02*
X11426277Y-11749698D01*
X11426277Y-11749698D02*
X11435801Y-11768746D01*
X11435801Y-11768746D02*
X11435801Y-11825888D01*
X11435801Y-11825888D02*
X11426277Y-11844936D01*
X11426277Y-11844936D02*
X11416753Y-11854460D01*
X11416753Y-11854460D02*
X11397706Y-11863984D01*
X11397706Y-11863984D02*
X11369134Y-11863984D01*
X11550087Y-11863984D02*
X11531039Y-11854460D01*
X11531039Y-11854460D02*
X11521515Y-11835412D01*
X11521515Y-11835412D02*
X11521515Y-11663984D01*
X11702468Y-11854460D02*
X11683420Y-11863984D01*
X11683420Y-11863984D02*
X11645325Y-11863984D01*
X11645325Y-11863984D02*
X11626277Y-11854460D01*
X11626277Y-11854460D02*
X11616753Y-11835412D01*
X11616753Y-11835412D02*
X11616753Y-11759222D01*
X11616753Y-11759222D02*
X11626277Y-11740174D01*
X11626277Y-11740174D02*
X11645325Y-11730650D01*
X11645325Y-11730650D02*
X11683420Y-11730650D01*
X11683420Y-11730650D02*
X11702468Y-11740174D01*
X11702468Y-11740174D02*
X11711991Y-11759222D01*
X11711991Y-11759222D02*
X11711991Y-11778269D01*
X11711991Y-11778269D02*
X11616753Y-11797317D01*
X11788182Y-11854460D02*
X11807230Y-11863984D01*
X11807230Y-11863984D02*
X11845325Y-11863984D01*
X11845325Y-11863984D02*
X11864372Y-11854460D01*
X11864372Y-11854460D02*
X11873896Y-11835412D01*
X11873896Y-11835412D02*
X11873896Y-11825888D01*
X11873896Y-11825888D02*
X11864372Y-11806841D01*
X11864372Y-11806841D02*
X11845325Y-11797317D01*
X11845325Y-11797317D02*
X11816753Y-11797317D01*
X11816753Y-11797317D02*
X11797706Y-11787793D01*
X11797706Y-11787793D02*
X11788182Y-11768746D01*
X11788182Y-11768746D02*
X11788182Y-11759222D01*
X11788182Y-11759222D02*
X11797706Y-11740174D01*
X11797706Y-11740174D02*
X11816753Y-11730650D01*
X11816753Y-11730650D02*
X11845325Y-11730650D01*
X11845325Y-11730650D02*
X11864372Y-11740174D01*
X11940563Y-11940174D02*
X11950087Y-11930650D01*
X11950087Y-11930650D02*
X11969134Y-11902079D01*
X11969134Y-11902079D02*
X11978658Y-11883031D01*
X11978658Y-11883031D02*
X11988182Y-11854460D01*
X11988182Y-11854460D02*
X11997706Y-11806841D01*
X11997706Y-11806841D02*
X11997706Y-11768746D01*
X11997706Y-11768746D02*
X11988182Y-11721127D01*
X11988182Y-11721127D02*
X11978658Y-11692555D01*
X11978658Y-11692555D02*
X11969134Y-11673508D01*
X11969134Y-11673508D02*
X11950087Y-11644936D01*
X11950087Y-11644936D02*
X11940563Y-11635412D01*
D12*
X7119780Y-11990780D02*
X7119780Y-12082220D01*
X7074060Y-12036500D02*
X7165500Y-12036500D01*
D11*
X7464372Y-11927984D02*
X7483420Y-11927984D01*
X7483420Y-11927984D02*
X7502467Y-11937508D01*
X7502467Y-11937508D02*
X7511991Y-11947031D01*
X7511991Y-11947031D02*
X7521515Y-11966079D01*
X7521515Y-11966079D02*
X7531039Y-12004174D01*
X7531039Y-12004174D02*
X7531039Y-12051793D01*
X7531039Y-12051793D02*
X7521515Y-12089888D01*
X7521515Y-12089888D02*
X7511991Y-12108936D01*
X7511991Y-12108936D02*
X7502467Y-12118460D01*
X7502467Y-12118460D02*
X7483420Y-12127984D01*
X7483420Y-12127984D02*
X7464372Y-12127984D01*
X7464372Y-12127984D02*
X7445324Y-12118460D01*
X7445324Y-12118460D02*
X7435801Y-12108936D01*
X7435801Y-12108936D02*
X7426277Y-12089888D01*
X7426277Y-12089888D02*
X7416753Y-12051793D01*
X7416753Y-12051793D02*
X7416753Y-12004174D01*
X7416753Y-12004174D02*
X7426277Y-11966079D01*
X7426277Y-11966079D02*
X7435801Y-11947031D01*
X7435801Y-11947031D02*
X7445324Y-11937508D01*
X7445324Y-11937508D02*
X7464372Y-11927984D01*
X7616753Y-12108936D02*
X7626277Y-12118460D01*
X7626277Y-12118460D02*
X7616753Y-12127984D01*
X7616753Y-12127984D02*
X7607229Y-12118460D01*
X7607229Y-12118460D02*
X7616753Y-12108936D01*
X7616753Y-12108936D02*
X7616753Y-12127984D01*
X7721515Y-12127984D02*
X7759610Y-12127984D01*
X7759610Y-12127984D02*
X7778658Y-12118460D01*
X7778658Y-12118460D02*
X7788182Y-12108936D01*
X7788182Y-12108936D02*
X7807229Y-12080365D01*
X7807229Y-12080365D02*
X7816753Y-12042269D01*
X7816753Y-12042269D02*
X7816753Y-11966079D01*
X7816753Y-11966079D02*
X7807229Y-11947031D01*
X7807229Y-11947031D02*
X7797705Y-11937508D01*
X7797705Y-11937508D02*
X7778658Y-11927984D01*
X7778658Y-11927984D02*
X7740562Y-11927984D01*
X7740562Y-11927984D02*
X7721515Y-11937508D01*
X7721515Y-11937508D02*
X7711991Y-11947031D01*
X7711991Y-11947031D02*
X7702467Y-11966079D01*
X7702467Y-11966079D02*
X7702467Y-12013698D01*
X7702467Y-12013698D02*
X7711991Y-12032746D01*
X7711991Y-12032746D02*
X7721515Y-12042269D01*
X7721515Y-12042269D02*
X7740562Y-12051793D01*
X7740562Y-12051793D02*
X7778658Y-12051793D01*
X7778658Y-12051793D02*
X7797705Y-12042269D01*
X7797705Y-12042269D02*
X7807229Y-12032746D01*
X7807229Y-12032746D02*
X7816753Y-12013698D01*
X8007229Y-12127984D02*
X7892943Y-12127984D01*
X7950086Y-12127984D02*
X7950086Y-11927984D01*
X7950086Y-11927984D02*
X7931039Y-11956555D01*
X7931039Y-11956555D02*
X7911991Y-11975603D01*
X7911991Y-11975603D02*
X7892943Y-11985127D01*
X8178658Y-11994650D02*
X8178658Y-12127984D01*
X8131039Y-11918460D02*
X8083420Y-12061317D01*
X8083420Y-12061317D02*
X8207229Y-12061317D01*
X8283420Y-12127984D02*
X8283420Y-11994650D01*
X8283420Y-12013698D02*
X8292943Y-12004174D01*
X8292943Y-12004174D02*
X8311991Y-11994650D01*
X8311991Y-11994650D02*
X8340563Y-11994650D01*
X8340563Y-11994650D02*
X8359610Y-12004174D01*
X8359610Y-12004174D02*
X8369134Y-12023222D01*
X8369134Y-12023222D02*
X8369134Y-12127984D01*
X8369134Y-12023222D02*
X8378658Y-12004174D01*
X8378658Y-12004174D02*
X8397705Y-11994650D01*
X8397705Y-11994650D02*
X8426277Y-11994650D01*
X8426277Y-11994650D02*
X8445325Y-12004174D01*
X8445325Y-12004174D02*
X8454848Y-12023222D01*
X8454848Y-12023222D02*
X8454848Y-12127984D01*
X8550086Y-12127984D02*
X8550086Y-11994650D01*
X8550086Y-12013698D02*
X8559610Y-12004174D01*
X8559610Y-12004174D02*
X8578658Y-11994650D01*
X8578658Y-11994650D02*
X8607229Y-11994650D01*
X8607229Y-11994650D02*
X8626277Y-12004174D01*
X8626277Y-12004174D02*
X8635801Y-12023222D01*
X8635801Y-12023222D02*
X8635801Y-12127984D01*
X8635801Y-12023222D02*
X8645325Y-12004174D01*
X8645325Y-12004174D02*
X8664372Y-11994650D01*
X8664372Y-11994650D02*
X8692944Y-11994650D01*
X8692944Y-11994650D02*
X8711991Y-12004174D01*
X8711991Y-12004174D02*
X8721515Y-12023222D01*
X8721515Y-12023222D02*
X8721515Y-12127984D01*
X9111991Y-11918460D02*
X8940563Y-12175603D01*
X9369134Y-11927984D02*
X9388182Y-11927984D01*
X9388182Y-11927984D02*
X9407229Y-11937508D01*
X9407229Y-11937508D02*
X9416753Y-11947031D01*
X9416753Y-11947031D02*
X9426277Y-11966079D01*
X9426277Y-11966079D02*
X9435801Y-12004174D01*
X9435801Y-12004174D02*
X9435801Y-12051793D01*
X9435801Y-12051793D02*
X9426277Y-12089888D01*
X9426277Y-12089888D02*
X9416753Y-12108936D01*
X9416753Y-12108936D02*
X9407229Y-12118460D01*
X9407229Y-12118460D02*
X9388182Y-12127984D01*
X9388182Y-12127984D02*
X9369134Y-12127984D01*
X9369134Y-12127984D02*
X9350087Y-12118460D01*
X9350087Y-12118460D02*
X9340563Y-12108936D01*
X9340563Y-12108936D02*
X9331039Y-12089888D01*
X9331039Y-12089888D02*
X9321515Y-12051793D01*
X9321515Y-12051793D02*
X9321515Y-12004174D01*
X9321515Y-12004174D02*
X9331039Y-11966079D01*
X9331039Y-11966079D02*
X9340563Y-11947031D01*
X9340563Y-11947031D02*
X9350087Y-11937508D01*
X9350087Y-11937508D02*
X9369134Y-11927984D01*
X9521515Y-12108936D02*
X9531039Y-12118460D01*
X9531039Y-12118460D02*
X9521515Y-12127984D01*
X9521515Y-12127984D02*
X9511991Y-12118460D01*
X9511991Y-12118460D02*
X9521515Y-12108936D01*
X9521515Y-12108936D02*
X9521515Y-12127984D01*
X9654848Y-11927984D02*
X9673896Y-11927984D01*
X9673896Y-11927984D02*
X9692944Y-11937508D01*
X9692944Y-11937508D02*
X9702468Y-11947031D01*
X9702468Y-11947031D02*
X9711991Y-11966079D01*
X9711991Y-11966079D02*
X9721515Y-12004174D01*
X9721515Y-12004174D02*
X9721515Y-12051793D01*
X9721515Y-12051793D02*
X9711991Y-12089888D01*
X9711991Y-12089888D02*
X9702468Y-12108936D01*
X9702468Y-12108936D02*
X9692944Y-12118460D01*
X9692944Y-12118460D02*
X9673896Y-12127984D01*
X9673896Y-12127984D02*
X9654848Y-12127984D01*
X9654848Y-12127984D02*
X9635801Y-12118460D01*
X9635801Y-12118460D02*
X9626277Y-12108936D01*
X9626277Y-12108936D02*
X9616753Y-12089888D01*
X9616753Y-12089888D02*
X9607229Y-12051793D01*
X9607229Y-12051793D02*
X9607229Y-12004174D01*
X9607229Y-12004174D02*
X9616753Y-11966079D01*
X9616753Y-11966079D02*
X9626277Y-11947031D01*
X9626277Y-11947031D02*
X9635801Y-11937508D01*
X9635801Y-11937508D02*
X9654848Y-11927984D01*
X9788182Y-11927984D02*
X9911991Y-11927984D01*
X9911991Y-11927984D02*
X9845325Y-12004174D01*
X9845325Y-12004174D02*
X9873896Y-12004174D01*
X9873896Y-12004174D02*
X9892944Y-12013698D01*
X9892944Y-12013698D02*
X9902468Y-12023222D01*
X9902468Y-12023222D02*
X9911991Y-12042269D01*
X9911991Y-12042269D02*
X9911991Y-12089888D01*
X9911991Y-12089888D02*
X9902468Y-12108936D01*
X9902468Y-12108936D02*
X9892944Y-12118460D01*
X9892944Y-12118460D02*
X9873896Y-12127984D01*
X9873896Y-12127984D02*
X9816753Y-12127984D01*
X9816753Y-12127984D02*
X9797706Y-12118460D01*
X9797706Y-12118460D02*
X9788182Y-12108936D01*
X10083420Y-11927984D02*
X10045325Y-11927984D01*
X10045325Y-11927984D02*
X10026277Y-11937508D01*
X10026277Y-11937508D02*
X10016753Y-11947031D01*
X10016753Y-11947031D02*
X9997706Y-11975603D01*
X9997706Y-11975603D02*
X9988182Y-12013698D01*
X9988182Y-12013698D02*
X9988182Y-12089888D01*
X9988182Y-12089888D02*
X9997706Y-12108936D01*
X9997706Y-12108936D02*
X10007229Y-12118460D01*
X10007229Y-12118460D02*
X10026277Y-12127984D01*
X10026277Y-12127984D02*
X10064372Y-12127984D01*
X10064372Y-12127984D02*
X10083420Y-12118460D01*
X10083420Y-12118460D02*
X10092944Y-12108936D01*
X10092944Y-12108936D02*
X10102468Y-12089888D01*
X10102468Y-12089888D02*
X10102468Y-12042269D01*
X10102468Y-12042269D02*
X10092944Y-12023222D01*
X10092944Y-12023222D02*
X10083420Y-12013698D01*
X10083420Y-12013698D02*
X10064372Y-12004174D01*
X10064372Y-12004174D02*
X10026277Y-12004174D01*
X10026277Y-12004174D02*
X10007229Y-12013698D01*
X10007229Y-12013698D02*
X9997706Y-12023222D01*
X9997706Y-12023222D02*
X9988182Y-12042269D01*
X10226277Y-11927984D02*
X10245325Y-11927984D01*
X10245325Y-11927984D02*
X10264372Y-11937508D01*
X10264372Y-11937508D02*
X10273896Y-11947031D01*
X10273896Y-11947031D02*
X10283420Y-11966079D01*
X10283420Y-11966079D02*
X10292944Y-12004174D01*
X10292944Y-12004174D02*
X10292944Y-12051793D01*
X10292944Y-12051793D02*
X10283420Y-12089888D01*
X10283420Y-12089888D02*
X10273896Y-12108936D01*
X10273896Y-12108936D02*
X10264372Y-12118460D01*
X10264372Y-12118460D02*
X10245325Y-12127984D01*
X10245325Y-12127984D02*
X10226277Y-12127984D01*
X10226277Y-12127984D02*
X10207229Y-12118460D01*
X10207229Y-12118460D02*
X10197706Y-12108936D01*
X10197706Y-12108936D02*
X10188182Y-12089888D01*
X10188182Y-12089888D02*
X10178658Y-12051793D01*
X10178658Y-12051793D02*
X10178658Y-12004174D01*
X10178658Y-12004174D02*
X10188182Y-11966079D01*
X10188182Y-11966079D02*
X10197706Y-11947031D01*
X10197706Y-11947031D02*
X10207229Y-11937508D01*
X10207229Y-11937508D02*
X10226277Y-11927984D01*
X10369134Y-11927984D02*
X10369134Y-11966079D01*
X10445325Y-11927984D02*
X10445325Y-11966079D01*
X10740563Y-12204174D02*
X10731039Y-12194650D01*
X10731039Y-12194650D02*
X10711991Y-12166079D01*
X10711991Y-12166079D02*
X10702468Y-12147031D01*
X10702468Y-12147031D02*
X10692944Y-12118460D01*
X10692944Y-12118460D02*
X10683420Y-12070841D01*
X10683420Y-12070841D02*
X10683420Y-12032746D01*
X10683420Y-12032746D02*
X10692944Y-11985127D01*
X10692944Y-11985127D02*
X10702468Y-11956555D01*
X10702468Y-11956555D02*
X10711991Y-11937508D01*
X10711991Y-11937508D02*
X10731039Y-11908936D01*
X10731039Y-11908936D02*
X10740563Y-11899412D01*
X10845325Y-12013698D02*
X10826277Y-12004174D01*
X10826277Y-12004174D02*
X10816753Y-11994650D01*
X10816753Y-11994650D02*
X10807230Y-11975603D01*
X10807230Y-11975603D02*
X10807230Y-11966079D01*
X10807230Y-11966079D02*
X10816753Y-11947031D01*
X10816753Y-11947031D02*
X10826277Y-11937508D01*
X10826277Y-11937508D02*
X10845325Y-11927984D01*
X10845325Y-11927984D02*
X10883420Y-11927984D01*
X10883420Y-11927984D02*
X10902468Y-11937508D01*
X10902468Y-11937508D02*
X10911991Y-11947031D01*
X10911991Y-11947031D02*
X10921515Y-11966079D01*
X10921515Y-11966079D02*
X10921515Y-11975603D01*
X10921515Y-11975603D02*
X10911991Y-11994650D01*
X10911991Y-11994650D02*
X10902468Y-12004174D01*
X10902468Y-12004174D02*
X10883420Y-12013698D01*
X10883420Y-12013698D02*
X10845325Y-12013698D01*
X10845325Y-12013698D02*
X10826277Y-12023222D01*
X10826277Y-12023222D02*
X10816753Y-12032746D01*
X10816753Y-12032746D02*
X10807230Y-12051793D01*
X10807230Y-12051793D02*
X10807230Y-12089888D01*
X10807230Y-12089888D02*
X10816753Y-12108936D01*
X10816753Y-12108936D02*
X10826277Y-12118460D01*
X10826277Y-12118460D02*
X10845325Y-12127984D01*
X10845325Y-12127984D02*
X10883420Y-12127984D01*
X10883420Y-12127984D02*
X10902468Y-12118460D01*
X10902468Y-12118460D02*
X10911991Y-12108936D01*
X10911991Y-12108936D02*
X10921515Y-12089888D01*
X10921515Y-12089888D02*
X10921515Y-12051793D01*
X10921515Y-12051793D02*
X10911991Y-12032746D01*
X10911991Y-12032746D02*
X10902468Y-12023222D01*
X10902468Y-12023222D02*
X10883420Y-12013698D01*
X11159611Y-12127984D02*
X11159611Y-11927984D01*
X11245325Y-12127984D02*
X11245325Y-12023222D01*
X11245325Y-12023222D02*
X11235801Y-12004174D01*
X11235801Y-12004174D02*
X11216753Y-11994650D01*
X11216753Y-11994650D02*
X11188182Y-11994650D01*
X11188182Y-11994650D02*
X11169134Y-12004174D01*
X11169134Y-12004174D02*
X11159611Y-12013698D01*
X11369134Y-12127984D02*
X11350087Y-12118460D01*
X11350087Y-12118460D02*
X11340563Y-12108936D01*
X11340563Y-12108936D02*
X11331039Y-12089888D01*
X11331039Y-12089888D02*
X11331039Y-12032746D01*
X11331039Y-12032746D02*
X11340563Y-12013698D01*
X11340563Y-12013698D02*
X11350087Y-12004174D01*
X11350087Y-12004174D02*
X11369134Y-11994650D01*
X11369134Y-11994650D02*
X11397706Y-11994650D01*
X11397706Y-11994650D02*
X11416753Y-12004174D01*
X11416753Y-12004174D02*
X11426277Y-12013698D01*
X11426277Y-12013698D02*
X11435801Y-12032746D01*
X11435801Y-12032746D02*
X11435801Y-12089888D01*
X11435801Y-12089888D02*
X11426277Y-12108936D01*
X11426277Y-12108936D02*
X11416753Y-12118460D01*
X11416753Y-12118460D02*
X11397706Y-12127984D01*
X11397706Y-12127984D02*
X11369134Y-12127984D01*
X11550087Y-12127984D02*
X11531039Y-12118460D01*
X11531039Y-12118460D02*
X11521515Y-12099412D01*
X11521515Y-12099412D02*
X11521515Y-11927984D01*
X11702468Y-12118460D02*
X11683420Y-12127984D01*
X11683420Y-12127984D02*
X11645325Y-12127984D01*
X11645325Y-12127984D02*
X11626277Y-12118460D01*
X11626277Y-12118460D02*
X11616753Y-12099412D01*
X11616753Y-12099412D02*
X11616753Y-12023222D01*
X11616753Y-12023222D02*
X11626277Y-12004174D01*
X11626277Y-12004174D02*
X11645325Y-11994650D01*
X11645325Y-11994650D02*
X11683420Y-11994650D01*
X11683420Y-11994650D02*
X11702468Y-12004174D01*
X11702468Y-12004174D02*
X11711991Y-12023222D01*
X11711991Y-12023222D02*
X11711991Y-12042269D01*
X11711991Y-12042269D02*
X11616753Y-12061317D01*
X11788182Y-12118460D02*
X11807230Y-12127984D01*
X11807230Y-12127984D02*
X11845325Y-12127984D01*
X11845325Y-12127984D02*
X11864372Y-12118460D01*
X11864372Y-12118460D02*
X11873896Y-12099412D01*
X11873896Y-12099412D02*
X11873896Y-12089888D01*
X11873896Y-12089888D02*
X11864372Y-12070841D01*
X11864372Y-12070841D02*
X11845325Y-12061317D01*
X11845325Y-12061317D02*
X11816753Y-12061317D01*
X11816753Y-12061317D02*
X11797706Y-12051793D01*
X11797706Y-12051793D02*
X11788182Y-12032746D01*
X11788182Y-12032746D02*
X11788182Y-12023222D01*
X11788182Y-12023222D02*
X11797706Y-12004174D01*
X11797706Y-12004174D02*
X11816753Y-11994650D01*
X11816753Y-11994650D02*
X11845325Y-11994650D01*
X11845325Y-11994650D02*
X11864372Y-12004174D01*
X11940563Y-12204174D02*
X11950087Y-12194650D01*
X11950087Y-12194650D02*
X11969134Y-12166079D01*
X11969134Y-12166079D02*
X11978658Y-12147031D01*
X11978658Y-12147031D02*
X11988182Y-12118460D01*
X11988182Y-12118460D02*
X11997706Y-12070841D01*
X11997706Y-12070841D02*
X11997706Y-12032746D01*
X11997706Y-12032746D02*
X11988182Y-11985127D01*
X11988182Y-11985127D02*
X11978658Y-11956555D01*
X11978658Y-11956555D02*
X11969134Y-11937508D01*
X11969134Y-11937508D02*
X11950087Y-11908936D01*
X11950087Y-11908936D02*
X11940563Y-11899412D01*
D13*
X7144998Y-12349998D02*
X7144998Y-12251002D01*
X7046002Y-12251002D01*
X7046002Y-12349998D01*
X7144998Y-12349998D01*
D11*
X7531039Y-12391984D02*
X7416753Y-12391984D01*
X7473896Y-12391984D02*
X7473896Y-12191984D01*
X7473896Y-12191984D02*
X7454848Y-12220555D01*
X7454848Y-12220555D02*
X7435801Y-12239603D01*
X7435801Y-12239603D02*
X7416753Y-12249127D01*
X7616753Y-12372936D02*
X7626277Y-12382460D01*
X7626277Y-12382460D02*
X7616753Y-12391984D01*
X7616753Y-12391984D02*
X7607229Y-12382460D01*
X7607229Y-12382460D02*
X7616753Y-12372936D01*
X7616753Y-12372936D02*
X7616753Y-12391984D01*
X7797705Y-12258650D02*
X7797705Y-12391984D01*
X7750086Y-12182460D02*
X7702467Y-12325317D01*
X7702467Y-12325317D02*
X7826277Y-12325317D01*
X7940562Y-12191984D02*
X7959610Y-12191984D01*
X7959610Y-12191984D02*
X7978658Y-12201508D01*
X7978658Y-12201508D02*
X7988182Y-12211031D01*
X7988182Y-12211031D02*
X7997705Y-12230079D01*
X7997705Y-12230079D02*
X8007229Y-12268174D01*
X8007229Y-12268174D02*
X8007229Y-12315793D01*
X8007229Y-12315793D02*
X7997705Y-12353888D01*
X7997705Y-12353888D02*
X7988182Y-12372936D01*
X7988182Y-12372936D02*
X7978658Y-12382460D01*
X7978658Y-12382460D02*
X7959610Y-12391984D01*
X7959610Y-12391984D02*
X7940562Y-12391984D01*
X7940562Y-12391984D02*
X7921515Y-12382460D01*
X7921515Y-12382460D02*
X7911991Y-12372936D01*
X7911991Y-12372936D02*
X7902467Y-12353888D01*
X7902467Y-12353888D02*
X7892943Y-12315793D01*
X7892943Y-12315793D02*
X7892943Y-12268174D01*
X7892943Y-12268174D02*
X7902467Y-12230079D01*
X7902467Y-12230079D02*
X7911991Y-12211031D01*
X7911991Y-12211031D02*
X7921515Y-12201508D01*
X7921515Y-12201508D02*
X7940562Y-12191984D01*
X8131039Y-12191984D02*
X8150086Y-12191984D01*
X8150086Y-12191984D02*
X8169134Y-12201508D01*
X8169134Y-12201508D02*
X8178658Y-12211031D01*
X8178658Y-12211031D02*
X8188182Y-12230079D01*
X8188182Y-12230079D02*
X8197705Y-12268174D01*
X8197705Y-12268174D02*
X8197705Y-12315793D01*
X8197705Y-12315793D02*
X8188182Y-12353888D01*
X8188182Y-12353888D02*
X8178658Y-12372936D01*
X8178658Y-12372936D02*
X8169134Y-12382460D01*
X8169134Y-12382460D02*
X8150086Y-12391984D01*
X8150086Y-12391984D02*
X8131039Y-12391984D01*
X8131039Y-12391984D02*
X8111991Y-12382460D01*
X8111991Y-12382460D02*
X8102467Y-12372936D01*
X8102467Y-12372936D02*
X8092943Y-12353888D01*
X8092943Y-12353888D02*
X8083420Y-12315793D01*
X8083420Y-12315793D02*
X8083420Y-12268174D01*
X8083420Y-12268174D02*
X8092943Y-12230079D01*
X8092943Y-12230079D02*
X8102467Y-12211031D01*
X8102467Y-12211031D02*
X8111991Y-12201508D01*
X8111991Y-12201508D02*
X8131039Y-12191984D01*
X8283420Y-12391984D02*
X8283420Y-12258650D01*
X8283420Y-12277698D02*
X8292943Y-12268174D01*
X8292943Y-12268174D02*
X8311991Y-12258650D01*
X8311991Y-12258650D02*
X8340563Y-12258650D01*
X8340563Y-12258650D02*
X8359610Y-12268174D01*
X8359610Y-12268174D02*
X8369134Y-12287222D01*
X8369134Y-12287222D02*
X8369134Y-12391984D01*
X8369134Y-12287222D02*
X8378658Y-12268174D01*
X8378658Y-12268174D02*
X8397705Y-12258650D01*
X8397705Y-12258650D02*
X8426277Y-12258650D01*
X8426277Y-12258650D02*
X8445325Y-12268174D01*
X8445325Y-12268174D02*
X8454848Y-12287222D01*
X8454848Y-12287222D02*
X8454848Y-12391984D01*
X8550086Y-12391984D02*
X8550086Y-12258650D01*
X8550086Y-12277698D02*
X8559610Y-12268174D01*
X8559610Y-12268174D02*
X8578658Y-12258650D01*
X8578658Y-12258650D02*
X8607229Y-12258650D01*
X8607229Y-12258650D02*
X8626277Y-12268174D01*
X8626277Y-12268174D02*
X8635801Y-12287222D01*
X8635801Y-12287222D02*
X8635801Y-12391984D01*
X8635801Y-12287222D02*
X8645325Y-12268174D01*
X8645325Y-12268174D02*
X8664372Y-12258650D01*
X8664372Y-12258650D02*
X8692944Y-12258650D01*
X8692944Y-12258650D02*
X8711991Y-12268174D01*
X8711991Y-12268174D02*
X8721515Y-12287222D01*
X8721515Y-12287222D02*
X8721515Y-12391984D01*
X9111991Y-12182460D02*
X8940563Y-12439603D01*
X9369134Y-12191984D02*
X9388182Y-12191984D01*
X9388182Y-12191984D02*
X9407229Y-12201508D01*
X9407229Y-12201508D02*
X9416753Y-12211031D01*
X9416753Y-12211031D02*
X9426277Y-12230079D01*
X9426277Y-12230079D02*
X9435801Y-12268174D01*
X9435801Y-12268174D02*
X9435801Y-12315793D01*
X9435801Y-12315793D02*
X9426277Y-12353888D01*
X9426277Y-12353888D02*
X9416753Y-12372936D01*
X9416753Y-12372936D02*
X9407229Y-12382460D01*
X9407229Y-12382460D02*
X9388182Y-12391984D01*
X9388182Y-12391984D02*
X9369134Y-12391984D01*
X9369134Y-12391984D02*
X9350087Y-12382460D01*
X9350087Y-12382460D02*
X9340563Y-12372936D01*
X9340563Y-12372936D02*
X9331039Y-12353888D01*
X9331039Y-12353888D02*
X9321515Y-12315793D01*
X9321515Y-12315793D02*
X9321515Y-12268174D01*
X9321515Y-12268174D02*
X9331039Y-12230079D01*
X9331039Y-12230079D02*
X9340563Y-12211031D01*
X9340563Y-12211031D02*
X9350087Y-12201508D01*
X9350087Y-12201508D02*
X9369134Y-12191984D01*
X9521515Y-12372936D02*
X9531039Y-12382460D01*
X9531039Y-12382460D02*
X9521515Y-12391984D01*
X9521515Y-12391984D02*
X9511991Y-12382460D01*
X9511991Y-12382460D02*
X9521515Y-12372936D01*
X9521515Y-12372936D02*
X9521515Y-12391984D01*
X9654848Y-12191984D02*
X9673896Y-12191984D01*
X9673896Y-12191984D02*
X9692944Y-12201508D01*
X9692944Y-12201508D02*
X9702468Y-12211031D01*
X9702468Y-12211031D02*
X9711991Y-12230079D01*
X9711991Y-12230079D02*
X9721515Y-12268174D01*
X9721515Y-12268174D02*
X9721515Y-12315793D01*
X9721515Y-12315793D02*
X9711991Y-12353888D01*
X9711991Y-12353888D02*
X9702468Y-12372936D01*
X9702468Y-12372936D02*
X9692944Y-12382460D01*
X9692944Y-12382460D02*
X9673896Y-12391984D01*
X9673896Y-12391984D02*
X9654848Y-12391984D01*
X9654848Y-12391984D02*
X9635801Y-12382460D01*
X9635801Y-12382460D02*
X9626277Y-12372936D01*
X9626277Y-12372936D02*
X9616753Y-12353888D01*
X9616753Y-12353888D02*
X9607229Y-12315793D01*
X9607229Y-12315793D02*
X9607229Y-12268174D01*
X9607229Y-12268174D02*
X9616753Y-12230079D01*
X9616753Y-12230079D02*
X9626277Y-12211031D01*
X9626277Y-12211031D02*
X9635801Y-12201508D01*
X9635801Y-12201508D02*
X9654848Y-12191984D01*
X9902468Y-12191984D02*
X9807229Y-12191984D01*
X9807229Y-12191984D02*
X9797706Y-12287222D01*
X9797706Y-12287222D02*
X9807229Y-12277698D01*
X9807229Y-12277698D02*
X9826277Y-12268174D01*
X9826277Y-12268174D02*
X9873896Y-12268174D01*
X9873896Y-12268174D02*
X9892944Y-12277698D01*
X9892944Y-12277698D02*
X9902468Y-12287222D01*
X9902468Y-12287222D02*
X9911991Y-12306269D01*
X9911991Y-12306269D02*
X9911991Y-12353888D01*
X9911991Y-12353888D02*
X9902468Y-12372936D01*
X9902468Y-12372936D02*
X9892944Y-12382460D01*
X9892944Y-12382460D02*
X9873896Y-12391984D01*
X9873896Y-12391984D02*
X9826277Y-12391984D01*
X9826277Y-12391984D02*
X9807229Y-12382460D01*
X9807229Y-12382460D02*
X9797706Y-12372936D01*
X10092944Y-12191984D02*
X9997706Y-12191984D01*
X9997706Y-12191984D02*
X9988182Y-12287222D01*
X9988182Y-12287222D02*
X9997706Y-12277698D01*
X9997706Y-12277698D02*
X10016753Y-12268174D01*
X10016753Y-12268174D02*
X10064372Y-12268174D01*
X10064372Y-12268174D02*
X10083420Y-12277698D01*
X10083420Y-12277698D02*
X10092944Y-12287222D01*
X10092944Y-12287222D02*
X10102468Y-12306269D01*
X10102468Y-12306269D02*
X10102468Y-12353888D01*
X10102468Y-12353888D02*
X10092944Y-12372936D01*
X10092944Y-12372936D02*
X10083420Y-12382460D01*
X10083420Y-12382460D02*
X10064372Y-12391984D01*
X10064372Y-12391984D02*
X10016753Y-12391984D01*
X10016753Y-12391984D02*
X9997706Y-12382460D01*
X9997706Y-12382460D02*
X9988182Y-12372936D01*
X10292944Y-12391984D02*
X10178658Y-12391984D01*
X10235801Y-12391984D02*
X10235801Y-12191984D01*
X10235801Y-12191984D02*
X10216753Y-12220555D01*
X10216753Y-12220555D02*
X10197706Y-12239603D01*
X10197706Y-12239603D02*
X10178658Y-12249127D01*
X10369134Y-12191984D02*
X10369134Y-12230079D01*
X10445325Y-12191984D02*
X10445325Y-12230079D01*
X10740563Y-12468174D02*
X10731039Y-12458650D01*
X10731039Y-12458650D02*
X10711991Y-12430079D01*
X10711991Y-12430079D02*
X10702468Y-12411031D01*
X10702468Y-12411031D02*
X10692944Y-12382460D01*
X10692944Y-12382460D02*
X10683420Y-12334841D01*
X10683420Y-12334841D02*
X10683420Y-12296746D01*
X10683420Y-12296746D02*
X10692944Y-12249127D01*
X10692944Y-12249127D02*
X10702468Y-12220555D01*
X10702468Y-12220555D02*
X10711991Y-12201508D01*
X10711991Y-12201508D02*
X10731039Y-12172936D01*
X10731039Y-12172936D02*
X10740563Y-12163412D01*
X10921515Y-12391984D02*
X10807230Y-12391984D01*
X10864372Y-12391984D02*
X10864372Y-12191984D01*
X10864372Y-12191984D02*
X10845325Y-12220555D01*
X10845325Y-12220555D02*
X10826277Y-12239603D01*
X10826277Y-12239603D02*
X10807230Y-12249127D01*
X10997706Y-12211031D02*
X11007230Y-12201508D01*
X11007230Y-12201508D02*
X11026277Y-12191984D01*
X11026277Y-12191984D02*
X11073896Y-12191984D01*
X11073896Y-12191984D02*
X11092944Y-12201508D01*
X11092944Y-12201508D02*
X11102468Y-12211031D01*
X11102468Y-12211031D02*
X11111991Y-12230079D01*
X11111991Y-12230079D02*
X11111991Y-12249127D01*
X11111991Y-12249127D02*
X11102468Y-12277698D01*
X11102468Y-12277698D02*
X10988182Y-12391984D01*
X10988182Y-12391984D02*
X11111991Y-12391984D01*
X11350087Y-12391984D02*
X11350087Y-12191984D01*
X11435801Y-12391984D02*
X11435801Y-12287222D01*
X11435801Y-12287222D02*
X11426277Y-12268174D01*
X11426277Y-12268174D02*
X11407230Y-12258650D01*
X11407230Y-12258650D02*
X11378658Y-12258650D01*
X11378658Y-12258650D02*
X11359610Y-12268174D01*
X11359610Y-12268174D02*
X11350087Y-12277698D01*
X11559610Y-12391984D02*
X11540563Y-12382460D01*
X11540563Y-12382460D02*
X11531039Y-12372936D01*
X11531039Y-12372936D02*
X11521515Y-12353888D01*
X11521515Y-12353888D02*
X11521515Y-12296746D01*
X11521515Y-12296746D02*
X11531039Y-12277698D01*
X11531039Y-12277698D02*
X11540563Y-12268174D01*
X11540563Y-12268174D02*
X11559610Y-12258650D01*
X11559610Y-12258650D02*
X11588182Y-12258650D01*
X11588182Y-12258650D02*
X11607230Y-12268174D01*
X11607230Y-12268174D02*
X11616753Y-12277698D01*
X11616753Y-12277698D02*
X11626277Y-12296746D01*
X11626277Y-12296746D02*
X11626277Y-12353888D01*
X11626277Y-12353888D02*
X11616753Y-12372936D01*
X11616753Y-12372936D02*
X11607230Y-12382460D01*
X11607230Y-12382460D02*
X11588182Y-12391984D01*
X11588182Y-12391984D02*
X11559610Y-12391984D01*
X11740563Y-12391984D02*
X11721515Y-12382460D01*
X11721515Y-12382460D02*
X11711991Y-12363412D01*
X11711991Y-12363412D02*
X11711991Y-12191984D01*
X11892944Y-12382460D02*
X11873896Y-12391984D01*
X11873896Y-12391984D02*
X11835801Y-12391984D01*
X11835801Y-12391984D02*
X11816753Y-12382460D01*
X11816753Y-12382460D02*
X11807230Y-12363412D01*
X11807230Y-12363412D02*
X11807230Y-12287222D01*
X11807230Y-12287222D02*
X11816753Y-12268174D01*
X11816753Y-12268174D02*
X11835801Y-12258650D01*
X11835801Y-12258650D02*
X11873896Y-12258650D01*
X11873896Y-12258650D02*
X11892944Y-12268174D01*
X11892944Y-12268174D02*
X11902468Y-12287222D01*
X11902468Y-12287222D02*
X11902468Y-12306269D01*
X11902468Y-12306269D02*
X11807230Y-12325317D01*
X11978658Y-12382460D02*
X11997706Y-12391984D01*
X11997706Y-12391984D02*
X12035801Y-12391984D01*
X12035801Y-12391984D02*
X12054849Y-12382460D01*
X12054849Y-12382460D02*
X12064372Y-12363412D01*
X12064372Y-12363412D02*
X12064372Y-12353888D01*
X12064372Y-12353888D02*
X12054849Y-12334841D01*
X12054849Y-12334841D02*
X12035801Y-12325317D01*
X12035801Y-12325317D02*
X12007230Y-12325317D01*
X12007230Y-12325317D02*
X11988182Y-12315793D01*
X11988182Y-12315793D02*
X11978658Y-12296746D01*
X11978658Y-12296746D02*
X11978658Y-12287222D01*
X11978658Y-12287222D02*
X11988182Y-12268174D01*
X11988182Y-12268174D02*
X12007230Y-12258650D01*
X12007230Y-12258650D02*
X12035801Y-12258650D01*
X12035801Y-12258650D02*
X12054849Y-12268174D01*
X12131039Y-12468174D02*
X12140563Y-12458650D01*
X12140563Y-12458650D02*
X12159611Y-12430079D01*
X12159611Y-12430079D02*
X12169134Y-12411031D01*
X12169134Y-12411031D02*
X12178658Y-12382460D01*
X12178658Y-12382460D02*
X12188182Y-12334841D01*
X12188182Y-12334841D02*
X12188182Y-12296746D01*
X12188182Y-12296746D02*
X12178658Y-12249127D01*
X12178658Y-12249127D02*
X12169134Y-12220555D01*
X12169134Y-12220555D02*
X12159611Y-12201508D01*
X12159611Y-12201508D02*
X12140563Y-12172936D01*
X12140563Y-12172936D02*
X12131039Y-12163412D01*
M02*
