%TF.GenerationSoftware,KiCad,Pcbnew,10.0.4*%
%TF.CreationDate,2026-07-04T16:03:19+01:00*%
%TF.ProjectId,default,64656661-756c-4742-9e6b-696361645f70,rev?*%
%TF.SameCoordinates,Original*%
%TF.FileFunction,Copper,L1,Top*%
%TF.FilePolarity,Positive*%
%FSLAX46Y46*%
G04 Gerber Fmt 4.6, Leading zero omitted, Abs format (unit mm)*
G04 Created by KiCad (PCBNEW 10.0.4) date 2026-07-04 16:03:19*
%MOMM*%
%LPD*%
G01*
G04 APERTURE LIST*
G04 Aperture macros list*
%AMRoundRect*
0 Rectangle with rounded corners*
0 $1 Rounding radius*
0 $2 $3 $4 $5 $6 $7 $8 $9 X,Y pos of 4 corners*
0 Add a 4 corners polygon primitive as box body*
4,1,4,$2,$3,$4,$5,$6,$7,$8,$9,$2,$3,0*
0 Add four circle primitives for the rounded corners*
1,1,$1+$1,$2,$3*
1,1,$1+$1,$4,$5*
1,1,$1+$1,$6,$7*
1,1,$1+$1,$8,$9*
0 Add four rect primitives between the rounded corners*
20,1,$1+$1,$2,$3,$4,$5,0*
20,1,$1+$1,$4,$5,$6,$7,0*
20,1,$1+$1,$6,$7,$8,$9,0*
20,1,$1+$1,$8,$9,$2,$3,0*%
G04 Aperture macros list end*
%TA.AperFunction,SMDPad,CuDef*%
%ADD10R,1.700000X1.210000*%
%TD*%
%TA.AperFunction,SMDPad,CuDef*%
%ADD11O,0.280000X1.620000*%
%TD*%
%TA.AperFunction,ComponentPad*%
%ADD12C,1.520000*%
%TD*%
%TA.AperFunction,ComponentPad*%
%ADD13R,1.520000X1.520000*%
%TD*%
%TA.AperFunction,SMDPad,CuDef*%
%ADD14R,1.730000X1.490000*%
%TD*%
%TA.AperFunction,SMDPad,CuDef*%
%ADD15RoundRect,0.500000X-0.875000X-0.500000X0.875000X-0.500000X0.875000X0.500000X-0.875000X0.500000X0*%
%TD*%
%TA.AperFunction,SMDPad,CuDef*%
%ADD16RoundRect,0.275000X0.975000X0.275000X-0.975000X0.275000X-0.975000X-0.275000X0.975000X-0.275000X0*%
%TD*%
%TA.AperFunction,SMDPad,CuDef*%
%ADD17C,1.700000*%
%TD*%
%TA.AperFunction,SMDPad,CuDef*%
%ADD18RoundRect,0.625000X-0.750000X-0.625000X0.750000X-0.625000X0.750000X0.625000X-0.750000X0.625000X0*%
%TD*%
%TA.AperFunction,ComponentPad*%
%ADD19C,1.600000*%
%TD*%
%TA.AperFunction,SMDPad,CuDef*%
%ADD20R,0.800000X1.000000*%
%TD*%
%TA.AperFunction,ComponentPad*%
%ADD21C,2.200000*%
%TD*%
%TA.AperFunction,ViaPad*%
%ADD22C,0.600000*%
%TD*%
%TA.AperFunction,Conductor*%
%ADD23C,0.200000*%
%TD*%
G04 APERTURE END LIST*
D10*
%TO.P,R6,1*%
%TO.N,scl*%
X108859600Y-69346200D03*
%TO.P,R6,2*%
%TO.N,hv*%
X108859600Y-66386200D03*
%TD*%
D11*
%TO.P,U1,6*%
%TO.N,6*%
X93440000Y-56740000D03*
%TO.P,U1,7*%
%TO.N,7*%
X92940000Y-56740000D03*
%TO.P,U1,8*%
%TO.N,hv*%
X92440000Y-56740000D03*
%TO.P,U1,9*%
%TO.N,sda*%
X91940000Y-56740000D03*
%TO.P,U1,10*%
%TO.N,scl*%
X91440000Y-56740000D03*
%TO.P,U1,5*%
%TO.N,5*%
X93440000Y-60960000D03*
%TO.P,U1,4*%
%TO.N,tds_in*%
X92940000Y-60960000D03*
%TO.P,U1,3*%
%TO.N,lv*%
X92440000Y-60960000D03*
%TO.P,U1,2*%
%TO.N,ALERT_RDY*%
X91940000Y-60960000D03*
%TO.P,U1,1*%
%TO.N,lv*%
X91440000Y-60960000D03*
%TD*%
D10*
%TO.P,R9,1*%
%TO.N,turb_in*%
X94190400Y-69470500D03*
%TO.P,R9,2*%
%TO.N,5*%
X94190400Y-66510500D03*
%TD*%
%TO.P,R2,1*%
%TO.N,sensor_pwr_en*%
X104079800Y-76785800D03*
%TO.P,R2,2*%
%TO.N,lv*%
X104079800Y-73825800D03*
%TD*%
D12*
%TO.P,CN1,4*%
%TO.N,lv*%
X116300000Y-86360000D03*
%TO.P,CN1,3*%
%TO.N,hv*%
X114300000Y-86360000D03*
%TO.P,CN1,2*%
%TO.N,2*%
X112300000Y-86360000D03*
D13*
%TO.P,CN1,1*%
%TO.N,1*%
X110300000Y-86360000D03*
%TD*%
D14*
%TO.P,C1,1*%
%TO.N,hv*%
X118875200Y-69444100D03*
%TO.P,C1,2*%
%TO.N,lv*%
X118875200Y-66264100D03*
%TD*%
D15*
%TO.P,U6,1*%
%TO.N,sensor_pwr_en*%
X99069800Y-42204200D03*
%TO.P,U6,2*%
%TO.N,1*%
X99069800Y-44744200D03*
%TO.P,U6,3*%
%TO.N,2*%
X99069800Y-47284200D03*
%TO.P,U6,4*%
%TO.N,ds_data*%
X99069800Y-49824200D03*
%TO.P,U6,5*%
%TO.N,sda*%
X99069800Y-52364200D03*
%TO.P,U6,6*%
%TO.N,scl*%
X99069800Y-54904200D03*
%TO.P,U6,7*%
%TO.N,xiao-7*%
X99069800Y-57444200D03*
%TO.P,U6,8*%
%TO.N,8*%
X115234800Y-57444200D03*
%TO.P,U6,9*%
%TO.N,9*%
X115234800Y-54904200D03*
%TO.P,U6,10*%
%TO.N,10*%
X115234800Y-52364200D03*
%TO.P,U6,11*%
%TO.N,11*%
X115234800Y-49824200D03*
%TO.P,U6,12*%
%TO.N,hv*%
X115234800Y-47284200D03*
%TO.P,U6,13*%
%TO.N,lv*%
X115234800Y-44744200D03*
%TO.P,U6,14*%
%TO.N,S*%
X115234800Y-42204200D03*
D16*
%TO.P,U6,15*%
%TO.N,N/C*%
X102679800Y-49442200D03*
%TO.P,U6,16*%
X102679800Y-47537200D03*
D17*
%TO.P,U6,17*%
X105854800Y-41192200D03*
%TO.P,U6,18*%
X108394800Y-41192200D03*
%TO.P,U6,19*%
X105854800Y-43732200D03*
%TO.P,U6,20*%
X108394800Y-43732200D03*
%TO.P,U6,21*%
X105854800Y-46272200D03*
%TO.P,U6,22*%
X108394800Y-46272200D03*
%TO.P,U6,23*%
X105854800Y-48812200D03*
%TO.P,U6,24*%
X108394800Y-48812200D03*
D18*
%TO.P,U6,25*%
X108244800Y-51824200D03*
%TD*%
D19*
%TO.P,CN3,1*%
%TO.N,v5v_raw*%
X98550000Y-96413800D03*
%TO.P,CN3,2*%
%TO.N,lv*%
X96550000Y-96413800D03*
%TD*%
D20*
%TO.P,Q2,2*%
%TO.N,S*%
X93104600Y-83601000D03*
%TO.P,Q2,3*%
%TO.N,1-1*%
X94054600Y-85901000D03*
%TO.P,Q2,1*%
%TO.N,pfet_gate*%
X95004600Y-83601000D03*
%TD*%
D21*
%TO.P,U3,3*%
%TO.N,lv*%
X129540000Y-76280000D03*
%TO.P,U3,2*%
%TO.N,ph_in*%
X129540000Y-81280000D03*
%TO.P,U3,1*%
%TO.N,1-1*%
X129540000Y-86280000D03*
%TD*%
D20*
%TO.P,Q1,2*%
%TO.N,lv*%
X117480000Y-76200000D03*
%TO.P,Q1,3*%
%TO.N,pfet_gate*%
X118430000Y-78500000D03*
%TO.P,Q1,1*%
%TO.N,sensor_pwr_en*%
X119380000Y-76200000D03*
%TD*%
D21*
%TO.P,U5,3*%
%TO.N,lv*%
X83820000Y-86280000D03*
%TO.P,U5,2*%
%TO.N,turb_in*%
X83820000Y-81280000D03*
%TO.P,U5,1*%
%TO.N,1-1*%
X83820000Y-76280000D03*
%TD*%
D10*
%TO.P,R8,1*%
%TO.N,5*%
X99043800Y-69400700D03*
%TO.P,R8,2*%
%TO.N,lv*%
X99043800Y-66440700D03*
%TD*%
D20*
%TO.P,Q3,2*%
%TO.N,S*%
X98184600Y-83601000D03*
%TO.P,Q3,3*%
%TO.N,v5v_raw*%
X99134600Y-85901000D03*
%TO.P,Q3,1*%
%TO.N,lv*%
X100084600Y-83601000D03*
%TD*%
D10*
%TO.P,R7,2*%
%TO.N,hv*%
X104060800Y-66386200D03*
%TO.P,R7,1*%
%TO.N,sda*%
X104060800Y-69346200D03*
%TD*%
%TO.P,R1,1*%
%TO.N,ds_data*%
X109220000Y-76620000D03*
%TO.P,R1,2*%
%TO.N,hv*%
X109220000Y-73660000D03*
%TD*%
D21*
%TO.P,U2,3*%
%TO.N,lv*%
X83820000Y-68500000D03*
%TO.P,U2,2*%
%TO.N,ds_data*%
X83820000Y-63500000D03*
%TO.P,U2,1*%
%TO.N,hv*%
X83820000Y-58500000D03*
%TD*%
D10*
%TO.P,R4,1*%
%TO.N,6*%
X94297000Y-76963900D03*
%TO.P,R4,2*%
%TO.N,lv*%
X94297000Y-74003900D03*
%TD*%
%TO.P,R3,1*%
%TO.N,pfet_gate*%
X99520000Y-76951600D03*
%TO.P,R3,2*%
%TO.N,S*%
X99520000Y-73991600D03*
%TD*%
%TO.P,R5,1*%
%TO.N,ph_in*%
X113735100Y-69414500D03*
%TO.P,R5,2*%
%TO.N,6*%
X113735100Y-66454500D03*
%TD*%
D21*
%TO.P,U4,3*%
%TO.N,lv*%
X129540000Y-58500000D03*
%TO.P,U4,2*%
%TO.N,tds_in*%
X129540000Y-63500000D03*
%TO.P,U4,1*%
%TO.N,1-1*%
X129540000Y-68500000D03*
%TD*%
D12*
%TO.P,CN2,4*%
%TO.N,lv*%
X115760000Y-96520000D03*
%TO.P,CN2,3*%
%TO.N,hv*%
X113760000Y-96520000D03*
%TO.P,CN2,2*%
%TO.N,sda*%
X111760000Y-96520000D03*
D13*
%TO.P,CN2,1*%
%TO.N,scl*%
X109760000Y-96520000D03*
%TD*%
D22*
%TO.N,2*%
X104467800Y-48489700D03*
%TO.N,1*%
X100602300Y-46014100D03*
%TO.N,sda*%
X109444800Y-71532700D03*
%TO.N,S*%
X101471700Y-73991600D03*
X101471700Y-52038300D03*
%TO.N,hv*%
X114300000Y-74145700D03*
%TO.N,scl*%
X110243800Y-69346200D03*
%TO.N,ds_data*%
X96575700Y-73444700D03*
%TO.N,sensor_pwr_en*%
X96411400Y-43340200D03*
X101493800Y-76785800D03*
%TO.N,6*%
X94110800Y-55628300D03*
X96310900Y-76929900D03*
X107344700Y-65444200D03*
%TO.N,tds_in*%
X122582100Y-63500000D03*
X118514800Y-74747400D03*
%TD*%
%TO.N,lv*%
D23*
X115234800Y-44744200D02*
X115234800Y-45984200D01*
X115234800Y-45984200D02*
X116448442Y-45984200D01*
X116909800Y-46445558D02*
X116909800Y-47766733D01*
X116448442Y-45984200D02*
X116909800Y-46445558D01*
X116909800Y-47766733D02*
X127643067Y-58500000D01*
X127643067Y-58500000D02*
X129540000Y-58500000D01*
%TO.N,2*%
X100275300Y-48489700D02*
X104467800Y-48489700D01*
X99069800Y-47284200D02*
X100275300Y-48489700D01*
%TO.N,1*%
X100339700Y-46014100D02*
X100602300Y-46014100D01*
X99069800Y-44744200D02*
X100339700Y-46014100D01*
%TO.N,sda*%
X104060800Y-69346200D02*
X104060800Y-70252900D01*
X99069800Y-52364200D02*
X99069800Y-52479700D01*
X98954300Y-52479700D02*
X99069800Y-52479700D01*
X94790300Y-56643700D02*
X98954300Y-52479700D01*
X94790300Y-56719100D02*
X94790300Y-56643700D01*
X93656300Y-57853100D02*
X94790300Y-56719100D01*
X92252400Y-57853100D02*
X93656300Y-57853100D01*
X91940000Y-57540700D02*
X92252400Y-57853100D01*
X91940000Y-56740000D02*
X91940000Y-57540700D01*
X102006000Y-66384700D02*
X104060800Y-68439500D01*
X102006000Y-55294900D02*
X102006000Y-66384700D01*
X99190800Y-52479700D02*
X102006000Y-55294900D01*
X99069800Y-52479700D02*
X99190800Y-52479700D01*
X104060800Y-69346200D02*
X104060800Y-68439500D01*
X108165000Y-70252900D02*
X104060800Y-70252900D01*
X109444800Y-71532700D02*
X108165000Y-70252900D01*
%TO.N,v5v_raw*%
X99134600Y-95829200D02*
X98550000Y-96413800D01*
X99134600Y-85901000D02*
X99134600Y-95829200D01*
%TO.N,S*%
X98184600Y-83601000D02*
X97482900Y-83601000D01*
X93104600Y-83601000D02*
X93806300Y-83601000D01*
X93806300Y-83776400D02*
X93806300Y-83601000D01*
X94432600Y-84402700D02*
X93806300Y-83776400D01*
X96681200Y-84402700D02*
X94432600Y-84402700D01*
X97482900Y-83601000D02*
X96681200Y-84402700D01*
X93806300Y-80612000D02*
X99520000Y-74898300D01*
X93806300Y-83601000D02*
X93806300Y-80612000D01*
X99520000Y-73991600D02*
X99520000Y-74898300D01*
X105200500Y-52038300D02*
X101471700Y-52038300D01*
X107224200Y-50014600D02*
X105200500Y-52038300D01*
X108838800Y-50014600D02*
X107224200Y-50014600D01*
X112455200Y-46398200D02*
X108838800Y-50014600D01*
X112455200Y-44983800D02*
X112455200Y-46398200D01*
X115234800Y-42204200D02*
X112455200Y-44983800D01*
X99520000Y-73991600D02*
X101471700Y-73991600D01*
%TO.N,hv*%
X118875200Y-69444100D02*
X117708500Y-69444100D01*
X110857400Y-74145700D02*
X114300000Y-74145700D01*
X110371700Y-73660000D02*
X110857400Y-74145700D01*
X109220000Y-73660000D02*
X110108300Y-73660000D01*
X110108300Y-73660000D02*
X110371700Y-73660000D01*
X92440000Y-56740000D02*
X92440000Y-55628300D01*
X110790100Y-67292900D02*
X112362800Y-68865600D01*
X108859600Y-67292900D02*
X110790100Y-67292900D01*
X112362800Y-71405500D02*
X112362800Y-68865600D01*
X110108300Y-73660000D02*
X112362800Y-71405500D01*
X116768100Y-68503700D02*
X117708500Y-69444100D01*
X112724700Y-68503700D02*
X116768100Y-68503700D01*
X112362800Y-68865600D02*
X112724700Y-68503700D01*
X108859600Y-66386200D02*
X108859600Y-67292900D01*
X112855400Y-49663600D02*
X115234800Y-47284200D01*
X112855400Y-58944900D02*
X112855400Y-49663600D01*
X106732000Y-65068300D02*
X112855400Y-58944900D01*
X106732000Y-66386200D02*
X106732000Y-65068300D01*
X104060800Y-66386200D02*
X106732000Y-66386200D01*
X106732000Y-66386200D02*
X108859600Y-66386200D01*
X90998000Y-58500000D02*
X83820000Y-58500000D01*
X90998000Y-55808500D02*
X90998000Y-58500000D01*
X91178200Y-55628300D02*
X90998000Y-55808500D01*
X92440000Y-55628300D02*
X91178200Y-55628300D01*
X108313300Y-72753300D02*
X109220000Y-72753300D01*
X107518000Y-71958000D02*
X108313300Y-72753300D01*
X104140700Y-71958000D02*
X107518000Y-71958000D01*
X101473300Y-69290600D02*
X104140700Y-71958000D01*
X101473300Y-67346300D02*
X101473300Y-69290600D01*
X101147100Y-67020100D02*
X101473300Y-67346300D01*
X101147100Y-65470400D02*
X101147100Y-67020100D01*
X95072400Y-59395700D02*
X101147100Y-65470400D01*
X91893700Y-59395700D02*
X95072400Y-59395700D01*
X90998000Y-58500000D02*
X91893700Y-59395700D01*
X109220000Y-73660000D02*
X109220000Y-72753300D01*
%TO.N,scl*%
X108859600Y-69346200D02*
X108859800Y-69346200D01*
X108859800Y-69346200D02*
X110011300Y-69346200D01*
X91440000Y-56740000D02*
X91440000Y-57851700D01*
X110011300Y-69346200D02*
X110243800Y-69346200D01*
X95234000Y-58740000D02*
X99069800Y-54904200D01*
X92328300Y-58740000D02*
X95234000Y-58740000D01*
X91440000Y-57851700D02*
X92328300Y-58740000D01*
X110243800Y-71620800D02*
X110243800Y-69346200D01*
X109724000Y-72140600D02*
X110243800Y-71620800D01*
X109059000Y-72140600D02*
X109724000Y-72140600D01*
X108474700Y-71556300D02*
X109059000Y-72140600D01*
X104307000Y-71556300D02*
X108474700Y-71556300D01*
X101916300Y-69165600D02*
X104307000Y-71556300D01*
X101916300Y-67021100D02*
X101916300Y-69165600D01*
X101548800Y-66653600D02*
X101916300Y-67021100D01*
X101548800Y-65054800D02*
X101548800Y-66653600D01*
X95234000Y-58740000D02*
X101548800Y-65054800D01*
%TO.N,ds_data*%
X95323400Y-53570600D02*
X99069800Y-49824200D01*
X86698100Y-53570600D02*
X95323400Y-53570600D01*
X82376000Y-57892700D02*
X86698100Y-53570600D01*
X82376000Y-62056000D02*
X82376000Y-57892700D01*
X83820000Y-63500000D02*
X82376000Y-62056000D01*
X109220000Y-76620000D02*
X109220000Y-75713300D01*
X96945700Y-73074700D02*
X96575700Y-73444700D01*
X101476400Y-73074700D02*
X96945700Y-73074700D01*
X102383600Y-73981900D02*
X101476400Y-73074700D01*
X102383600Y-74054900D02*
X102383600Y-73981900D01*
X104042000Y-75713300D02*
X102383600Y-74054900D01*
X109220000Y-75713300D02*
X104042000Y-75713300D01*
%TO.N,sensor_pwr_en*%
X97933800Y-43340200D02*
X96411400Y-43340200D01*
X99069800Y-42204200D02*
X97933800Y-43340200D01*
X104079800Y-76785800D02*
X101493800Y-76785800D01*
X118678300Y-76375400D02*
X118678300Y-76200000D01*
X117527000Y-77526700D02*
X118678300Y-76375400D01*
X105972400Y-77526700D02*
X117527000Y-77526700D01*
X105231500Y-76785800D02*
X105972400Y-77526700D01*
X104079800Y-76785800D02*
X105231500Y-76785800D01*
X119380000Y-76200000D02*
X118678300Y-76200000D01*
%TO.N,turb_in*%
X88623400Y-69470500D02*
X94190400Y-69470500D01*
X82415200Y-75678700D02*
X88623400Y-69470500D01*
X82415200Y-79875200D02*
X82415200Y-75678700D01*
X83820000Y-81280000D02*
X82415200Y-79875200D01*
%TO.N,1-1*%
X93352900Y-85812900D02*
X93352900Y-85901000D01*
X83820000Y-76280000D02*
X93352900Y-85812900D01*
X94054600Y-85901000D02*
X93352900Y-85901000D01*
X97258300Y-85901000D02*
X94756300Y-85901000D01*
X98981200Y-84178100D02*
X97258300Y-85901000D01*
X98981200Y-83356400D02*
X98981200Y-84178100D01*
X99538300Y-82799300D02*
X98981200Y-83356400D01*
X126059300Y-82799300D02*
X99538300Y-82799300D01*
X129540000Y-86280000D02*
X126059300Y-82799300D01*
X94054600Y-85901000D02*
X94756300Y-85901000D01*
%TO.N,5*%
X99043800Y-69400700D02*
X99043800Y-68494000D01*
X94190400Y-66510500D02*
X94190400Y-67417200D01*
X99043800Y-68014400D02*
X99043800Y-68494000D01*
X94787600Y-68014400D02*
X94190400Y-67417200D01*
X99043800Y-68014400D02*
X94787600Y-68014400D01*
X99403500Y-68014400D02*
X99043800Y-68014400D01*
X100244300Y-67173600D02*
X99403500Y-68014400D01*
X100244300Y-65759500D02*
X100244300Y-67173600D01*
X95444800Y-60960000D02*
X100244300Y-65759500D01*
X93440000Y-60960000D02*
X95444800Y-60960000D01*
%TO.N,6*%
X95482700Y-76929900D02*
X95448700Y-76963900D01*
X96310900Y-76929900D02*
X95482700Y-76929900D01*
X94297000Y-76963900D02*
X95448700Y-76963900D01*
X93440000Y-56740000D02*
X93440000Y-55628300D01*
X93440000Y-55628300D02*
X94110800Y-55628300D01*
X113631500Y-65444200D02*
X107344700Y-65444200D01*
X113735100Y-65547800D02*
X113631500Y-65444200D01*
X113735100Y-66454500D02*
X113735100Y-65547800D01*
%TO.N,ph_in*%
X113735100Y-69414500D02*
X114886800Y-69414500D01*
X126752300Y-81280000D02*
X114886800Y-69414500D01*
X129540000Y-81280000D02*
X126752300Y-81280000D01*
%TO.N,pfet_gate*%
X99520000Y-76951600D02*
X99520000Y-77858300D01*
X95004600Y-83601000D02*
X95004600Y-82799300D01*
X95004600Y-82799300D02*
X99732800Y-78071100D01*
X100161700Y-78500000D02*
X99732800Y-78071100D01*
X118430000Y-78500000D02*
X100161700Y-78500000D01*
X99732800Y-78071100D02*
X99520000Y-77858300D01*
%TO.N,lv*%
X118875200Y-66264100D02*
X120041900Y-66264100D01*
X113541000Y-83601000D02*
X100084600Y-83601000D01*
X116300000Y-86360000D02*
X113541000Y-83601000D01*
X117480000Y-76200000D02*
X116778300Y-76200000D01*
X104079800Y-73825800D02*
X104079800Y-74732500D01*
X114654000Y-97626000D02*
X115760000Y-96520000D01*
X97762200Y-97626000D02*
X114654000Y-97626000D01*
X96550000Y-96413800D02*
X97762200Y-97626000D01*
X93953800Y-96413800D02*
X83820000Y-86280000D01*
X96550000Y-96413800D02*
X93953800Y-96413800D01*
X91440000Y-60960000D02*
X91440000Y-62071700D01*
X92440000Y-60960000D02*
X92440000Y-62071700D01*
X91440000Y-62071700D02*
X92440000Y-62071700D01*
X95581500Y-62071700D02*
X99043800Y-65534000D01*
X92440000Y-62071700D02*
X95581500Y-62071700D01*
X99043800Y-66440700D02*
X99043800Y-65534000D01*
X120041900Y-66781900D02*
X120041900Y-66264100D01*
X129540000Y-76280000D02*
X120041900Y-66781900D01*
X104079800Y-73825800D02*
X102928100Y-73825800D01*
X94297000Y-74003900D02*
X94297000Y-73097200D01*
X85011700Y-68500000D02*
X89620900Y-63890800D01*
X83820000Y-68500000D02*
X85011700Y-68500000D01*
X89620900Y-63890800D02*
X91440000Y-62071700D01*
X101772700Y-72670400D02*
X95362900Y-72670400D01*
X102928100Y-73825800D02*
X101772700Y-72670400D01*
X94723800Y-72670400D02*
X95362900Y-72670400D01*
X94297000Y-73097200D02*
X94723800Y-72670400D01*
X94284100Y-68554100D02*
X89620900Y-63890800D01*
X95161700Y-68554100D02*
X94284100Y-68554100D01*
X95362900Y-68755300D02*
X95161700Y-68554100D01*
X95362900Y-72670400D02*
X95362900Y-68755300D01*
X115727400Y-75149100D02*
X116778300Y-76200000D01*
X104496400Y-75149100D02*
X115727400Y-75149100D01*
X104079800Y-74732500D02*
X104496400Y-75149100D01*
%TO.N,tds_in*%
X92940000Y-60960000D02*
X92940000Y-59848300D01*
X129540000Y-63500000D02*
X122582100Y-63500000D01*
X106915300Y-74747400D02*
X118514800Y-74747400D01*
X104527600Y-72359700D02*
X106915300Y-74747400D01*
X103974400Y-72359700D02*
X104527600Y-72359700D01*
X100745400Y-69130700D02*
X103974400Y-72359700D01*
X100745400Y-65638800D02*
X100745400Y-69130700D01*
X94954900Y-59848300D02*
X100745400Y-65638800D01*
X92940000Y-59848300D02*
X94954900Y-59848300D01*
%TD*%
M02*
