M48
; DRILL file KiCad 10.0.4 date 2026-07-04T16:13:08
; FORMAT={-:-/ absolute / metric / decimal}
; #@! TF.CreationDate,2026-07-04T16:13:08+01:00
; #@! TF.GenerationSoftware,Kicad,Pcbnew,10.0.4
; #@! TF.FileFunction,Plated,1,2,PTH
FMAT,2
METRIC
; #@! TA.AperFunction,Plated,PTH,ViaDrill
T1C0.300
; #@! TA.AperFunction,Plated,PTH,ComponentDrill
T2C0.900
; #@! TA.AperFunction,Plated,PTH,ComponentDrill
T3C0.914
; #@! TA.AperFunction,Plated,PTH,ComponentDrill
T4C1.400
%
G90
G05
T1
X94.111Y-55.628
X96.311Y-76.93
X96.411Y-43.34
X96.576Y-73.445
X100.602Y-46.014
X101.472Y-52.038
X101.472Y-73.992
X101.494Y-76.786
X104.468Y-48.49
X107.345Y-65.444
X109.445Y-71.533
X110.244Y-69.346
X114.3Y-74.146
X118.515Y-74.747
X122.582Y-63.5
T2
X96.55Y-96.414
X98.55Y-96.414
T3
X109.76Y-96.52
X110.3Y-86.36
X111.76Y-96.52
X112.3Y-86.36
X113.76Y-96.52
X114.3Y-86.36
X115.76Y-96.52
X116.3Y-86.36
T4
X83.82Y-58.5
X83.82Y-63.5
X83.82Y-68.5
X83.82Y-76.28
X83.82Y-81.28
X83.82Y-86.28
X129.54Y-58.5
X129.54Y-63.5
X129.54Y-68.5
X129.54Y-76.28
X129.54Y-81.28
X129.54Y-86.28
M30
