%TF.GenerationSoftware,KiCad,Pcbnew,10.0.4*%
%TF.CreationDate,2026-07-04T16:13:57+01:00*%
%TF.ProjectId,default,64656661-756c-4742-9e6b-696361645f70,rev?*%
%TF.SameCoordinates,Original*%
%TF.FileFunction,Drillmap*%
%TF.FilePolarity,Positive*%
%FSLAX45Y45*%
G04 Gerber Fmt 4.5, Leading zero omitted, Abs format (unit mm)*
G04 Created by KiCad (PCBNEW 10.0.4) date 2026-07-04 16:13:57*
%MOMM*%
%LPD*%
G01*
G04 APERTURE LIST*
%ADD10C,0.050000*%
%ADD11C,0.200000*%
G04 APERTURE END LIST*
D10*
X9100000Y-9652000D02*
G75*
G02*
X8680000Y-9652000I-210000J0D01*
G01*
X8680000Y-9652000D02*
G75*
G02*
X9100000Y-9652000I210000J0D01*
G01*
X12656000Y-9652000D02*
G75*
G02*
X12236000Y-9652000I-210000J0D01*
G01*
X12236000Y-9652000D02*
G75*
G02*
X12656000Y-9652000I210000J0D01*
G01*
X9100000Y-5080000D02*
G75*
G02*
X8680000Y-5080000I-210000J0D01*
G01*
X8680000Y-5080000D02*
G75*
G02*
X9100000Y-5080000I210000J0D01*
G01*
X14168000Y-7366000D02*
G75*
G02*
X7168000Y-7366000I-3500000J0D01*
G01*
X7168000Y-7366000D02*
G75*
G02*
X14168000Y-7366000I3500000J0D01*
G01*
X12656000Y-5080000D02*
G75*
G02*
X12236000Y-5080000I-210000J0D01*
G01*
X12236000Y-5080000D02*
G75*
G02*
X12656000Y-5080000I210000J0D01*
G01*
D11*
X7426277Y-11179984D02*
X7426277Y-10979984D01*
X7426277Y-10979984D02*
X7473896Y-10979984D01*
X7473896Y-10979984D02*
X7502467Y-10989508D01*
X7502467Y-10989508D02*
X7521515Y-11008555D01*
X7521515Y-11008555D02*
X7531039Y-11027603D01*
X7531039Y-11027603D02*
X7540562Y-11065698D01*
X7540562Y-11065698D02*
X7540562Y-11094270D01*
X7540562Y-11094270D02*
X7531039Y-11132365D01*
X7531039Y-11132365D02*
X7521515Y-11151412D01*
X7521515Y-11151412D02*
X7502467Y-11170460D01*
X7502467Y-11170460D02*
X7473896Y-11179984D01*
X7473896Y-11179984D02*
X7426277Y-11179984D01*
X7626277Y-11179984D02*
X7626277Y-11046650D01*
X7626277Y-11084746D02*
X7635801Y-11065698D01*
X7635801Y-11065698D02*
X7645324Y-11056174D01*
X7645324Y-11056174D02*
X7664372Y-11046650D01*
X7664372Y-11046650D02*
X7683420Y-11046650D01*
X7750086Y-11179984D02*
X7750086Y-11046650D01*
X7750086Y-10979984D02*
X7740562Y-10989508D01*
X7740562Y-10989508D02*
X7750086Y-10999031D01*
X7750086Y-10999031D02*
X7759610Y-10989508D01*
X7759610Y-10989508D02*
X7750086Y-10979984D01*
X7750086Y-10979984D02*
X7750086Y-10999031D01*
X7873896Y-11179984D02*
X7854848Y-11170460D01*
X7854848Y-11170460D02*
X7845324Y-11151412D01*
X7845324Y-11151412D02*
X7845324Y-10979984D01*
X7978658Y-11179984D02*
X7959610Y-11170460D01*
X7959610Y-11170460D02*
X7950086Y-11151412D01*
X7950086Y-11151412D02*
X7950086Y-10979984D01*
X8207229Y-11179984D02*
X8207229Y-10979984D01*
X8207229Y-10979984D02*
X8273896Y-11122841D01*
X8273896Y-11122841D02*
X8340562Y-10979984D01*
X8340562Y-10979984D02*
X8340562Y-11179984D01*
X8521515Y-11179984D02*
X8521515Y-11075222D01*
X8521515Y-11075222D02*
X8511991Y-11056174D01*
X8511991Y-11056174D02*
X8492944Y-11046650D01*
X8492944Y-11046650D02*
X8454848Y-11046650D01*
X8454848Y-11046650D02*
X8435801Y-11056174D01*
X8521515Y-11170460D02*
X8502467Y-11179984D01*
X8502467Y-11179984D02*
X8454848Y-11179984D01*
X8454848Y-11179984D02*
X8435801Y-11170460D01*
X8435801Y-11170460D02*
X8426277Y-11151412D01*
X8426277Y-11151412D02*
X8426277Y-11132365D01*
X8426277Y-11132365D02*
X8435801Y-11113317D01*
X8435801Y-11113317D02*
X8454848Y-11103793D01*
X8454848Y-11103793D02*
X8502467Y-11103793D01*
X8502467Y-11103793D02*
X8521515Y-11094270D01*
X8616753Y-11046650D02*
X8616753Y-11246650D01*
X8616753Y-11056174D02*
X8635801Y-11046650D01*
X8635801Y-11046650D02*
X8673896Y-11046650D01*
X8673896Y-11046650D02*
X8692944Y-11056174D01*
X8692944Y-11056174D02*
X8702467Y-11065698D01*
X8702467Y-11065698D02*
X8711991Y-11084746D01*
X8711991Y-11084746D02*
X8711991Y-11141889D01*
X8711991Y-11141889D02*
X8702467Y-11160936D01*
X8702467Y-11160936D02*
X8692944Y-11170460D01*
X8692944Y-11170460D02*
X8673896Y-11179984D01*
X8673896Y-11179984D02*
X8635801Y-11179984D01*
X8635801Y-11179984D02*
X8616753Y-11170460D01*
X8797705Y-11160936D02*
X8807229Y-11170460D01*
X8807229Y-11170460D02*
X8797705Y-11179984D01*
X8797705Y-11179984D02*
X8788182Y-11170460D01*
X8788182Y-11170460D02*
X8797705Y-11160936D01*
X8797705Y-11160936D02*
X8797705Y-11179984D01*
X8797705Y-11056174D02*
X8807229Y-11065698D01*
X8807229Y-11065698D02*
X8797705Y-11075222D01*
X8797705Y-11075222D02*
X8788182Y-11065698D01*
X8788182Y-11065698D02*
X8797705Y-11056174D01*
X8797705Y-11056174D02*
X8797705Y-11075222D01*
M02*
