%TF.GenerationSoftware,KiCad,Pcbnew,10.0.4*%
%TF.CreationDate,2026-07-04T16:03:19+01:00*%
%TF.ProjectId,default,64656661-756c-4742-9e6b-696361645f70,rev?*%
%TF.SameCoordinates,Original*%
%TF.FileFunction,Legend,Top*%
%TF.FilePolarity,Positive*%
%FSLAX46Y46*%
G04 Gerber Fmt 4.6, Leading zero omitted, Abs format (unit mm)*
G04 Created by KiCad (PCBNEW 10.0.4) date 2026-07-04 16:03:19*
%MOMM*%
%LPD*%
G01*
G04 APERTURE LIST*
%ADD10C,0.150000*%
%ADD11C,0.106680*%
%ADD12C,0.300000*%
%ADD13C,0.250000*%
%ADD14C,0.100000*%
%ADD15C,0.127000*%
%ADD16C,0.504000*%
G04 APERTURE END LIST*
D10*
X109314419Y-71517741D02*
X108838228Y-71851074D01*
X109314419Y-72089169D02*
X108314419Y-72089169D01*
X108314419Y-72089169D02*
X108314419Y-71708217D01*
X108314419Y-71708217D02*
X108362038Y-71612979D01*
X108362038Y-71612979D02*
X108409657Y-71565360D01*
X108409657Y-71565360D02*
X108504895Y-71517741D01*
X108504895Y-71517741D02*
X108647752Y-71517741D01*
X108647752Y-71517741D02*
X108742990Y-71565360D01*
X108742990Y-71565360D02*
X108790609Y-71612979D01*
X108790609Y-71612979D02*
X108838228Y-71708217D01*
X108838228Y-71708217D02*
X108838228Y-72089169D01*
X108314419Y-70660598D02*
X108314419Y-70851074D01*
X108314419Y-70851074D02*
X108362038Y-70946312D01*
X108362038Y-70946312D02*
X108409657Y-70993931D01*
X108409657Y-70993931D02*
X108552514Y-71089169D01*
X108552514Y-71089169D02*
X108742990Y-71136788D01*
X108742990Y-71136788D02*
X109123942Y-71136788D01*
X109123942Y-71136788D02*
X109219180Y-71089169D01*
X109219180Y-71089169D02*
X109266800Y-71041550D01*
X109266800Y-71041550D02*
X109314419Y-70946312D01*
X109314419Y-70946312D02*
X109314419Y-70755836D01*
X109314419Y-70755836D02*
X109266800Y-70660598D01*
X109266800Y-70660598D02*
X109219180Y-70612979D01*
X109219180Y-70612979D02*
X109123942Y-70565360D01*
X109123942Y-70565360D02*
X108885847Y-70565360D01*
X108885847Y-70565360D02*
X108790609Y-70612979D01*
X108790609Y-70612979D02*
X108742990Y-70660598D01*
X108742990Y-70660598D02*
X108695371Y-70755836D01*
X108695371Y-70755836D02*
X108695371Y-70946312D01*
X108695371Y-70946312D02*
X108742990Y-71041550D01*
X108742990Y-71041550D02*
X108790609Y-71089169D01*
X108790609Y-71089169D02*
X108885847Y-71136788D01*
X88899411Y-58304819D02*
X88899411Y-59114342D01*
X88899411Y-59114342D02*
X88947030Y-59209580D01*
X88947030Y-59209580D02*
X88994649Y-59257200D01*
X88994649Y-59257200D02*
X89089887Y-59304819D01*
X89089887Y-59304819D02*
X89280363Y-59304819D01*
X89280363Y-59304819D02*
X89375601Y-59257200D01*
X89375601Y-59257200D02*
X89423220Y-59209580D01*
X89423220Y-59209580D02*
X89470839Y-59114342D01*
X89470839Y-59114342D02*
X89470839Y-58304819D01*
X90470839Y-59304819D02*
X89899411Y-59304819D01*
X90185125Y-59304819D02*
X90185125Y-58304819D01*
X90185125Y-58304819D02*
X90089887Y-58447676D01*
X90089887Y-58447676D02*
X89994649Y-58542914D01*
X89994649Y-58542914D02*
X89899411Y-58590533D01*
X94645219Y-71642041D02*
X94169028Y-71975374D01*
X94645219Y-72213469D02*
X93645219Y-72213469D01*
X93645219Y-72213469D02*
X93645219Y-71832517D01*
X93645219Y-71832517D02*
X93692838Y-71737279D01*
X93692838Y-71737279D02*
X93740457Y-71689660D01*
X93740457Y-71689660D02*
X93835695Y-71642041D01*
X93835695Y-71642041D02*
X93978552Y-71642041D01*
X93978552Y-71642041D02*
X94073790Y-71689660D01*
X94073790Y-71689660D02*
X94121409Y-71737279D01*
X94121409Y-71737279D02*
X94169028Y-71832517D01*
X94169028Y-71832517D02*
X94169028Y-72213469D01*
X94645219Y-71165850D02*
X94645219Y-70975374D01*
X94645219Y-70975374D02*
X94597600Y-70880136D01*
X94597600Y-70880136D02*
X94549980Y-70832517D01*
X94549980Y-70832517D02*
X94407123Y-70737279D01*
X94407123Y-70737279D02*
X94216647Y-70689660D01*
X94216647Y-70689660D02*
X93835695Y-70689660D01*
X93835695Y-70689660D02*
X93740457Y-70737279D01*
X93740457Y-70737279D02*
X93692838Y-70784898D01*
X93692838Y-70784898D02*
X93645219Y-70880136D01*
X93645219Y-70880136D02*
X93645219Y-71070612D01*
X93645219Y-71070612D02*
X93692838Y-71165850D01*
X93692838Y-71165850D02*
X93740457Y-71213469D01*
X93740457Y-71213469D02*
X93835695Y-71261088D01*
X93835695Y-71261088D02*
X94073790Y-71261088D01*
X94073790Y-71261088D02*
X94169028Y-71213469D01*
X94169028Y-71213469D02*
X94216647Y-71165850D01*
X94216647Y-71165850D02*
X94264266Y-71070612D01*
X94264266Y-71070612D02*
X94264266Y-70880136D01*
X94264266Y-70880136D02*
X94216647Y-70784898D01*
X94216647Y-70784898D02*
X94169028Y-70737279D01*
X94169028Y-70737279D02*
X94073790Y-70689660D01*
X104534619Y-78957341D02*
X104058428Y-79290674D01*
X104534619Y-79528769D02*
X103534619Y-79528769D01*
X103534619Y-79528769D02*
X103534619Y-79147817D01*
X103534619Y-79147817D02*
X103582238Y-79052579D01*
X103582238Y-79052579D02*
X103629857Y-79004960D01*
X103629857Y-79004960D02*
X103725095Y-78957341D01*
X103725095Y-78957341D02*
X103867952Y-78957341D01*
X103867952Y-78957341D02*
X103963190Y-79004960D01*
X103963190Y-79004960D02*
X104010809Y-79052579D01*
X104010809Y-79052579D02*
X104058428Y-79147817D01*
X104058428Y-79147817D02*
X104058428Y-79528769D01*
X103629857Y-78576388D02*
X103582238Y-78528769D01*
X103582238Y-78528769D02*
X103534619Y-78433531D01*
X103534619Y-78433531D02*
X103534619Y-78195436D01*
X103534619Y-78195436D02*
X103582238Y-78100198D01*
X103582238Y-78100198D02*
X103629857Y-78052579D01*
X103629857Y-78052579D02*
X103725095Y-78004960D01*
X103725095Y-78004960D02*
X103820333Y-78004960D01*
X103820333Y-78004960D02*
X103963190Y-78052579D01*
X103963190Y-78052579D02*
X104534619Y-78624007D01*
X104534619Y-78624007D02*
X104534619Y-78004960D01*
X106710839Y-85889580D02*
X106663220Y-85937200D01*
X106663220Y-85937200D02*
X106520363Y-85984819D01*
X106520363Y-85984819D02*
X106425125Y-85984819D01*
X106425125Y-85984819D02*
X106282268Y-85937200D01*
X106282268Y-85937200D02*
X106187030Y-85841961D01*
X106187030Y-85841961D02*
X106139411Y-85746723D01*
X106139411Y-85746723D02*
X106091792Y-85556247D01*
X106091792Y-85556247D02*
X106091792Y-85413390D01*
X106091792Y-85413390D02*
X106139411Y-85222914D01*
X106139411Y-85222914D02*
X106187030Y-85127676D01*
X106187030Y-85127676D02*
X106282268Y-85032438D01*
X106282268Y-85032438D02*
X106425125Y-84984819D01*
X106425125Y-84984819D02*
X106520363Y-84984819D01*
X106520363Y-84984819D02*
X106663220Y-85032438D01*
X106663220Y-85032438D02*
X106710839Y-85080057D01*
X107139411Y-85984819D02*
X107139411Y-84984819D01*
X107139411Y-84984819D02*
X107710839Y-85984819D01*
X107710839Y-85984819D02*
X107710839Y-84984819D01*
X108710839Y-85984819D02*
X108139411Y-85984819D01*
X108425125Y-85984819D02*
X108425125Y-84984819D01*
X108425125Y-84984819D02*
X108329887Y-85127676D01*
X108329887Y-85127676D02*
X108234649Y-85222914D01*
X108234649Y-85222914D02*
X108139411Y-85270533D01*
X119234780Y-71755641D02*
X119282400Y-71803260D01*
X119282400Y-71803260D02*
X119330019Y-71946117D01*
X119330019Y-71946117D02*
X119330019Y-72041355D01*
X119330019Y-72041355D02*
X119282400Y-72184212D01*
X119282400Y-72184212D02*
X119187161Y-72279450D01*
X119187161Y-72279450D02*
X119091923Y-72327069D01*
X119091923Y-72327069D02*
X118901447Y-72374688D01*
X118901447Y-72374688D02*
X118758590Y-72374688D01*
X118758590Y-72374688D02*
X118568114Y-72327069D01*
X118568114Y-72327069D02*
X118472876Y-72279450D01*
X118472876Y-72279450D02*
X118377638Y-72184212D01*
X118377638Y-72184212D02*
X118330019Y-72041355D01*
X118330019Y-72041355D02*
X118330019Y-71946117D01*
X118330019Y-71946117D02*
X118377638Y-71803260D01*
X118377638Y-71803260D02*
X118425257Y-71755641D01*
X119330019Y-70803260D02*
X119330019Y-71374688D01*
X119330019Y-71088974D02*
X118330019Y-71088974D01*
X118330019Y-71088974D02*
X118472876Y-71184212D01*
X118472876Y-71184212D02*
X118568114Y-71279450D01*
X118568114Y-71279450D02*
X118615733Y-71374688D01*
D11*
X96686242Y-48583748D02*
X96686242Y-49217055D01*
X96686242Y-49217055D02*
X96723496Y-49291561D01*
X96723496Y-49291561D02*
X96760749Y-49328815D01*
X96760749Y-49328815D02*
X96835256Y-49366068D01*
X96835256Y-49366068D02*
X96984269Y-49366068D01*
X96984269Y-49366068D02*
X97058776Y-49328815D01*
X97058776Y-49328815D02*
X97096029Y-49291561D01*
X97096029Y-49291561D02*
X97133282Y-49217055D01*
X97133282Y-49217055D02*
X97133282Y-48583748D01*
X97841095Y-48583748D02*
X97692082Y-48583748D01*
X97692082Y-48583748D02*
X97617575Y-48621001D01*
X97617575Y-48621001D02*
X97580322Y-48658255D01*
X97580322Y-48658255D02*
X97505815Y-48770015D01*
X97505815Y-48770015D02*
X97468562Y-48919028D01*
X97468562Y-48919028D02*
X97468562Y-49217055D01*
X97468562Y-49217055D02*
X97505815Y-49291561D01*
X97505815Y-49291561D02*
X97543069Y-49328815D01*
X97543069Y-49328815D02*
X97617575Y-49366068D01*
X97617575Y-49366068D02*
X97766589Y-49366068D01*
X97766589Y-49366068D02*
X97841095Y-49328815D01*
X97841095Y-49328815D02*
X97878349Y-49291561D01*
X97878349Y-49291561D02*
X97915602Y-49217055D01*
X97915602Y-49217055D02*
X97915602Y-49030788D01*
X97915602Y-49030788D02*
X97878349Y-48956281D01*
X97878349Y-48956281D02*
X97841095Y-48919028D01*
X97841095Y-48919028D02*
X97766589Y-48881775D01*
X97766589Y-48881775D02*
X97617575Y-48881775D01*
X97617575Y-48881775D02*
X97543069Y-48919028D01*
X97543069Y-48919028D02*
X97505815Y-48956281D01*
X97505815Y-48956281D02*
X97468562Y-49030788D01*
D10*
X92240839Y-96518380D02*
X92193220Y-96566000D01*
X92193220Y-96566000D02*
X92050363Y-96613619D01*
X92050363Y-96613619D02*
X91955125Y-96613619D01*
X91955125Y-96613619D02*
X91812268Y-96566000D01*
X91812268Y-96566000D02*
X91717030Y-96470761D01*
X91717030Y-96470761D02*
X91669411Y-96375523D01*
X91669411Y-96375523D02*
X91621792Y-96185047D01*
X91621792Y-96185047D02*
X91621792Y-96042190D01*
X91621792Y-96042190D02*
X91669411Y-95851714D01*
X91669411Y-95851714D02*
X91717030Y-95756476D01*
X91717030Y-95756476D02*
X91812268Y-95661238D01*
X91812268Y-95661238D02*
X91955125Y-95613619D01*
X91955125Y-95613619D02*
X92050363Y-95613619D01*
X92050363Y-95613619D02*
X92193220Y-95661238D01*
X92193220Y-95661238D02*
X92240839Y-95708857D01*
X92669411Y-96613619D02*
X92669411Y-95613619D01*
X92669411Y-95613619D02*
X93240839Y-96613619D01*
X93240839Y-96613619D02*
X93240839Y-95613619D01*
X93621792Y-95613619D02*
X94240839Y-95613619D01*
X94240839Y-95613619D02*
X93907506Y-95994571D01*
X93907506Y-95994571D02*
X94050363Y-95994571D01*
X94050363Y-95994571D02*
X94145601Y-96042190D01*
X94145601Y-96042190D02*
X94193220Y-96089809D01*
X94193220Y-96089809D02*
X94240839Y-96185047D01*
X94240839Y-96185047D02*
X94240839Y-96423142D01*
X94240839Y-96423142D02*
X94193220Y-96518380D01*
X94193220Y-96518380D02*
X94145601Y-96566000D01*
X94145601Y-96566000D02*
X94050363Y-96613619D01*
X94050363Y-96613619D02*
X93764649Y-96613619D01*
X93764649Y-96613619D02*
X93669411Y-96566000D01*
X93669411Y-96566000D02*
X93621792Y-96518380D01*
X94604657Y-86744922D02*
X94557038Y-86840160D01*
X94557038Y-86840160D02*
X94461800Y-86935398D01*
X94461800Y-86935398D02*
X94318942Y-87078255D01*
X94318942Y-87078255D02*
X94271323Y-87173493D01*
X94271323Y-87173493D02*
X94271323Y-87268731D01*
X94509419Y-87221112D02*
X94461800Y-87316350D01*
X94461800Y-87316350D02*
X94366561Y-87411588D01*
X94366561Y-87411588D02*
X94176085Y-87459207D01*
X94176085Y-87459207D02*
X93842752Y-87459207D01*
X93842752Y-87459207D02*
X93652276Y-87411588D01*
X93652276Y-87411588D02*
X93557038Y-87316350D01*
X93557038Y-87316350D02*
X93509419Y-87221112D01*
X93509419Y-87221112D02*
X93509419Y-87030636D01*
X93509419Y-87030636D02*
X93557038Y-86935398D01*
X93557038Y-86935398D02*
X93652276Y-86840160D01*
X93652276Y-86840160D02*
X93842752Y-86792541D01*
X93842752Y-86792541D02*
X94176085Y-86792541D01*
X94176085Y-86792541D02*
X94366561Y-86840160D01*
X94366561Y-86840160D02*
X94461800Y-86935398D01*
X94461800Y-86935398D02*
X94509419Y-87030636D01*
X94509419Y-87030636D02*
X94509419Y-87221112D01*
X93604657Y-86411588D02*
X93557038Y-86363969D01*
X93557038Y-86363969D02*
X93509419Y-86268731D01*
X93509419Y-86268731D02*
X93509419Y-86030636D01*
X93509419Y-86030636D02*
X93557038Y-85935398D01*
X93557038Y-85935398D02*
X93604657Y-85887779D01*
X93604657Y-85887779D02*
X93699895Y-85840160D01*
X93699895Y-85840160D02*
X93795133Y-85840160D01*
X93795133Y-85840160D02*
X93937990Y-85887779D01*
X93937990Y-85887779D02*
X94509419Y-86459207D01*
X94509419Y-86459207D02*
X94509419Y-85840160D01*
X128844819Y-90740588D02*
X129654342Y-90740588D01*
X129654342Y-90740588D02*
X129749580Y-90692969D01*
X129749580Y-90692969D02*
X129797200Y-90645350D01*
X129797200Y-90645350D02*
X129844819Y-90550112D01*
X129844819Y-90550112D02*
X129844819Y-90359636D01*
X129844819Y-90359636D02*
X129797200Y-90264398D01*
X129797200Y-90264398D02*
X129749580Y-90216779D01*
X129749580Y-90216779D02*
X129654342Y-90169160D01*
X129654342Y-90169160D02*
X128844819Y-90169160D01*
X128844819Y-89788207D02*
X128844819Y-89169160D01*
X128844819Y-89169160D02*
X129225771Y-89502493D01*
X129225771Y-89502493D02*
X129225771Y-89359636D01*
X129225771Y-89359636D02*
X129273390Y-89264398D01*
X129273390Y-89264398D02*
X129321009Y-89216779D01*
X129321009Y-89216779D02*
X129416247Y-89169160D01*
X129416247Y-89169160D02*
X129654342Y-89169160D01*
X129654342Y-89169160D02*
X129749580Y-89216779D01*
X129749580Y-89216779D02*
X129797200Y-89264398D01*
X129797200Y-89264398D02*
X129844819Y-89359636D01*
X129844819Y-89359636D02*
X129844819Y-89645350D01*
X129844819Y-89645350D02*
X129797200Y-89740588D01*
X129797200Y-89740588D02*
X129749580Y-89788207D01*
X118980057Y-79343922D02*
X118932438Y-79439160D01*
X118932438Y-79439160D02*
X118837200Y-79534398D01*
X118837200Y-79534398D02*
X118694342Y-79677255D01*
X118694342Y-79677255D02*
X118646723Y-79772493D01*
X118646723Y-79772493D02*
X118646723Y-79867731D01*
X118884819Y-79820112D02*
X118837200Y-79915350D01*
X118837200Y-79915350D02*
X118741961Y-80010588D01*
X118741961Y-80010588D02*
X118551485Y-80058207D01*
X118551485Y-80058207D02*
X118218152Y-80058207D01*
X118218152Y-80058207D02*
X118027676Y-80010588D01*
X118027676Y-80010588D02*
X117932438Y-79915350D01*
X117932438Y-79915350D02*
X117884819Y-79820112D01*
X117884819Y-79820112D02*
X117884819Y-79629636D01*
X117884819Y-79629636D02*
X117932438Y-79534398D01*
X117932438Y-79534398D02*
X118027676Y-79439160D01*
X118027676Y-79439160D02*
X118218152Y-79391541D01*
X118218152Y-79391541D02*
X118551485Y-79391541D01*
X118551485Y-79391541D02*
X118741961Y-79439160D01*
X118741961Y-79439160D02*
X118837200Y-79534398D01*
X118837200Y-79534398D02*
X118884819Y-79629636D01*
X118884819Y-79629636D02*
X118884819Y-79820112D01*
X118884819Y-78439160D02*
X118884819Y-79010588D01*
X118884819Y-78724874D02*
X117884819Y-78724874D01*
X117884819Y-78724874D02*
X118027676Y-78820112D01*
X118027676Y-78820112D02*
X118122914Y-78915350D01*
X118122914Y-78915350D02*
X118170533Y-79010588D01*
X83424819Y-73343220D02*
X84234342Y-73343220D01*
X84234342Y-73343220D02*
X84329580Y-73295601D01*
X84329580Y-73295601D02*
X84377200Y-73247982D01*
X84377200Y-73247982D02*
X84424819Y-73152744D01*
X84424819Y-73152744D02*
X84424819Y-72962268D01*
X84424819Y-72962268D02*
X84377200Y-72867030D01*
X84377200Y-72867030D02*
X84329580Y-72819411D01*
X84329580Y-72819411D02*
X84234342Y-72771792D01*
X84234342Y-72771792D02*
X83424819Y-72771792D01*
X83424819Y-71819411D02*
X83424819Y-72295601D01*
X83424819Y-72295601D02*
X83901009Y-72343220D01*
X83901009Y-72343220D02*
X83853390Y-72295601D01*
X83853390Y-72295601D02*
X83805771Y-72200363D01*
X83805771Y-72200363D02*
X83805771Y-71962268D01*
X83805771Y-71962268D02*
X83853390Y-71867030D01*
X83853390Y-71867030D02*
X83901009Y-71819411D01*
X83901009Y-71819411D02*
X83996247Y-71771792D01*
X83996247Y-71771792D02*
X84234342Y-71771792D01*
X84234342Y-71771792D02*
X84329580Y-71819411D01*
X84329580Y-71819411D02*
X84377200Y-71867030D01*
X84377200Y-71867030D02*
X84424819Y-71962268D01*
X84424819Y-71962268D02*
X84424819Y-72200363D01*
X84424819Y-72200363D02*
X84377200Y-72295601D01*
X84377200Y-72295601D02*
X84329580Y-72343220D01*
X99498619Y-71572241D02*
X99022428Y-71905574D01*
X99498619Y-72143669D02*
X98498619Y-72143669D01*
X98498619Y-72143669D02*
X98498619Y-71762717D01*
X98498619Y-71762717D02*
X98546238Y-71667479D01*
X98546238Y-71667479D02*
X98593857Y-71619860D01*
X98593857Y-71619860D02*
X98689095Y-71572241D01*
X98689095Y-71572241D02*
X98831952Y-71572241D01*
X98831952Y-71572241D02*
X98927190Y-71619860D01*
X98927190Y-71619860D02*
X98974809Y-71667479D01*
X98974809Y-71667479D02*
X99022428Y-71762717D01*
X99022428Y-71762717D02*
X99022428Y-72143669D01*
X98927190Y-71000812D02*
X98879571Y-71096050D01*
X98879571Y-71096050D02*
X98831952Y-71143669D01*
X98831952Y-71143669D02*
X98736714Y-71191288D01*
X98736714Y-71191288D02*
X98689095Y-71191288D01*
X98689095Y-71191288D02*
X98593857Y-71143669D01*
X98593857Y-71143669D02*
X98546238Y-71096050D01*
X98546238Y-71096050D02*
X98498619Y-71000812D01*
X98498619Y-71000812D02*
X98498619Y-70810336D01*
X98498619Y-70810336D02*
X98546238Y-70715098D01*
X98546238Y-70715098D02*
X98593857Y-70667479D01*
X98593857Y-70667479D02*
X98689095Y-70619860D01*
X98689095Y-70619860D02*
X98736714Y-70619860D01*
X98736714Y-70619860D02*
X98831952Y-70667479D01*
X98831952Y-70667479D02*
X98879571Y-70715098D01*
X98879571Y-70715098D02*
X98927190Y-70810336D01*
X98927190Y-70810336D02*
X98927190Y-71000812D01*
X98927190Y-71000812D02*
X98974809Y-71096050D01*
X98974809Y-71096050D02*
X99022428Y-71143669D01*
X99022428Y-71143669D02*
X99117666Y-71191288D01*
X99117666Y-71191288D02*
X99308142Y-71191288D01*
X99308142Y-71191288D02*
X99403380Y-71143669D01*
X99403380Y-71143669D02*
X99451000Y-71096050D01*
X99451000Y-71096050D02*
X99498619Y-71000812D01*
X99498619Y-71000812D02*
X99498619Y-70810336D01*
X99498619Y-70810336D02*
X99451000Y-70715098D01*
X99451000Y-70715098D02*
X99403380Y-70667479D01*
X99403380Y-70667479D02*
X99308142Y-70619860D01*
X99308142Y-70619860D02*
X99117666Y-70619860D01*
X99117666Y-70619860D02*
X99022428Y-70667479D01*
X99022428Y-70667479D02*
X98974809Y-70715098D01*
X98974809Y-70715098D02*
X98927190Y-70810336D01*
X99684657Y-86744922D02*
X99637038Y-86840160D01*
X99637038Y-86840160D02*
X99541800Y-86935398D01*
X99541800Y-86935398D02*
X99398942Y-87078255D01*
X99398942Y-87078255D02*
X99351323Y-87173493D01*
X99351323Y-87173493D02*
X99351323Y-87268731D01*
X99589419Y-87221112D02*
X99541800Y-87316350D01*
X99541800Y-87316350D02*
X99446561Y-87411588D01*
X99446561Y-87411588D02*
X99256085Y-87459207D01*
X99256085Y-87459207D02*
X98922752Y-87459207D01*
X98922752Y-87459207D02*
X98732276Y-87411588D01*
X98732276Y-87411588D02*
X98637038Y-87316350D01*
X98637038Y-87316350D02*
X98589419Y-87221112D01*
X98589419Y-87221112D02*
X98589419Y-87030636D01*
X98589419Y-87030636D02*
X98637038Y-86935398D01*
X98637038Y-86935398D02*
X98732276Y-86840160D01*
X98732276Y-86840160D02*
X98922752Y-86792541D01*
X98922752Y-86792541D02*
X99256085Y-86792541D01*
X99256085Y-86792541D02*
X99446561Y-86840160D01*
X99446561Y-86840160D02*
X99541800Y-86935398D01*
X99541800Y-86935398D02*
X99589419Y-87030636D01*
X99589419Y-87030636D02*
X99589419Y-87221112D01*
X98589419Y-86459207D02*
X98589419Y-85840160D01*
X98589419Y-85840160D02*
X98970371Y-86173493D01*
X98970371Y-86173493D02*
X98970371Y-86030636D01*
X98970371Y-86030636D02*
X99017990Y-85935398D01*
X99017990Y-85935398D02*
X99065609Y-85887779D01*
X99065609Y-85887779D02*
X99160847Y-85840160D01*
X99160847Y-85840160D02*
X99398942Y-85840160D01*
X99398942Y-85840160D02*
X99494180Y-85887779D01*
X99494180Y-85887779D02*
X99541800Y-85935398D01*
X99541800Y-85935398D02*
X99589419Y-86030636D01*
X99589419Y-86030636D02*
X99589419Y-86316350D01*
X99589419Y-86316350D02*
X99541800Y-86411588D01*
X99541800Y-86411588D02*
X99494180Y-86459207D01*
X104515619Y-71517741D02*
X104039428Y-71851074D01*
X104515619Y-72089169D02*
X103515619Y-72089169D01*
X103515619Y-72089169D02*
X103515619Y-71708217D01*
X103515619Y-71708217D02*
X103563238Y-71612979D01*
X103563238Y-71612979D02*
X103610857Y-71565360D01*
X103610857Y-71565360D02*
X103706095Y-71517741D01*
X103706095Y-71517741D02*
X103848952Y-71517741D01*
X103848952Y-71517741D02*
X103944190Y-71565360D01*
X103944190Y-71565360D02*
X103991809Y-71612979D01*
X103991809Y-71612979D02*
X104039428Y-71708217D01*
X104039428Y-71708217D02*
X104039428Y-72089169D01*
X103515619Y-71184407D02*
X103515619Y-70517741D01*
X103515619Y-70517741D02*
X104515619Y-70946312D01*
X109674819Y-78791541D02*
X109198628Y-79124874D01*
X109674819Y-79362969D02*
X108674819Y-79362969D01*
X108674819Y-79362969D02*
X108674819Y-78982017D01*
X108674819Y-78982017D02*
X108722438Y-78886779D01*
X108722438Y-78886779D02*
X108770057Y-78839160D01*
X108770057Y-78839160D02*
X108865295Y-78791541D01*
X108865295Y-78791541D02*
X109008152Y-78791541D01*
X109008152Y-78791541D02*
X109103390Y-78839160D01*
X109103390Y-78839160D02*
X109151009Y-78886779D01*
X109151009Y-78886779D02*
X109198628Y-78982017D01*
X109198628Y-78982017D02*
X109198628Y-79362969D01*
X109674819Y-77839160D02*
X109674819Y-78410588D01*
X109674819Y-78124874D02*
X108674819Y-78124874D01*
X108674819Y-78124874D02*
X108817676Y-78220112D01*
X108817676Y-78220112D02*
X108912914Y-78315350D01*
X108912914Y-78315350D02*
X108960533Y-78410588D01*
X83424819Y-55563220D02*
X84234342Y-55563220D01*
X84234342Y-55563220D02*
X84329580Y-55515601D01*
X84329580Y-55515601D02*
X84377200Y-55467982D01*
X84377200Y-55467982D02*
X84424819Y-55372744D01*
X84424819Y-55372744D02*
X84424819Y-55182268D01*
X84424819Y-55182268D02*
X84377200Y-55087030D01*
X84377200Y-55087030D02*
X84329580Y-55039411D01*
X84329580Y-55039411D02*
X84234342Y-54991792D01*
X84234342Y-54991792D02*
X83424819Y-54991792D01*
X83520057Y-54563220D02*
X83472438Y-54515601D01*
X83472438Y-54515601D02*
X83424819Y-54420363D01*
X83424819Y-54420363D02*
X83424819Y-54182268D01*
X83424819Y-54182268D02*
X83472438Y-54087030D01*
X83472438Y-54087030D02*
X83520057Y-54039411D01*
X83520057Y-54039411D02*
X83615295Y-53991792D01*
X83615295Y-53991792D02*
X83710533Y-53991792D01*
X83710533Y-53991792D02*
X83853390Y-54039411D01*
X83853390Y-54039411D02*
X84424819Y-54610839D01*
X84424819Y-54610839D02*
X84424819Y-53991792D01*
X94751819Y-79135441D02*
X94275628Y-79468774D01*
X94751819Y-79706869D02*
X93751819Y-79706869D01*
X93751819Y-79706869D02*
X93751819Y-79325917D01*
X93751819Y-79325917D02*
X93799438Y-79230679D01*
X93799438Y-79230679D02*
X93847057Y-79183060D01*
X93847057Y-79183060D02*
X93942295Y-79135441D01*
X93942295Y-79135441D02*
X94085152Y-79135441D01*
X94085152Y-79135441D02*
X94180390Y-79183060D01*
X94180390Y-79183060D02*
X94228009Y-79230679D01*
X94228009Y-79230679D02*
X94275628Y-79325917D01*
X94275628Y-79325917D02*
X94275628Y-79706869D01*
X94085152Y-78278298D02*
X94751819Y-78278298D01*
X93704200Y-78516393D02*
X94418485Y-78754488D01*
X94418485Y-78754488D02*
X94418485Y-78135441D01*
X99974819Y-79123141D02*
X99498628Y-79456474D01*
X99974819Y-79694569D02*
X98974819Y-79694569D01*
X98974819Y-79694569D02*
X98974819Y-79313617D01*
X98974819Y-79313617D02*
X99022438Y-79218379D01*
X99022438Y-79218379D02*
X99070057Y-79170760D01*
X99070057Y-79170760D02*
X99165295Y-79123141D01*
X99165295Y-79123141D02*
X99308152Y-79123141D01*
X99308152Y-79123141D02*
X99403390Y-79170760D01*
X99403390Y-79170760D02*
X99451009Y-79218379D01*
X99451009Y-79218379D02*
X99498628Y-79313617D01*
X99498628Y-79313617D02*
X99498628Y-79694569D01*
X98974819Y-78789807D02*
X98974819Y-78170760D01*
X98974819Y-78170760D02*
X99355771Y-78504093D01*
X99355771Y-78504093D02*
X99355771Y-78361236D01*
X99355771Y-78361236D02*
X99403390Y-78265998D01*
X99403390Y-78265998D02*
X99451009Y-78218379D01*
X99451009Y-78218379D02*
X99546247Y-78170760D01*
X99546247Y-78170760D02*
X99784342Y-78170760D01*
X99784342Y-78170760D02*
X99879580Y-78218379D01*
X99879580Y-78218379D02*
X99927200Y-78265998D01*
X99927200Y-78265998D02*
X99974819Y-78361236D01*
X99974819Y-78361236D02*
X99974819Y-78646950D01*
X99974819Y-78646950D02*
X99927200Y-78742188D01*
X99927200Y-78742188D02*
X99879580Y-78789807D01*
X114189919Y-71586041D02*
X113713728Y-71919374D01*
X114189919Y-72157469D02*
X113189919Y-72157469D01*
X113189919Y-72157469D02*
X113189919Y-71776517D01*
X113189919Y-71776517D02*
X113237538Y-71681279D01*
X113237538Y-71681279D02*
X113285157Y-71633660D01*
X113285157Y-71633660D02*
X113380395Y-71586041D01*
X113380395Y-71586041D02*
X113523252Y-71586041D01*
X113523252Y-71586041D02*
X113618490Y-71633660D01*
X113618490Y-71633660D02*
X113666109Y-71681279D01*
X113666109Y-71681279D02*
X113713728Y-71776517D01*
X113713728Y-71776517D02*
X113713728Y-72157469D01*
X113189919Y-70681279D02*
X113189919Y-71157469D01*
X113189919Y-71157469D02*
X113666109Y-71205088D01*
X113666109Y-71205088D02*
X113618490Y-71157469D01*
X113618490Y-71157469D02*
X113570871Y-71062231D01*
X113570871Y-71062231D02*
X113570871Y-70824136D01*
X113570871Y-70824136D02*
X113618490Y-70728898D01*
X113618490Y-70728898D02*
X113666109Y-70681279D01*
X113666109Y-70681279D02*
X113761347Y-70633660D01*
X113761347Y-70633660D02*
X113999442Y-70633660D01*
X113999442Y-70633660D02*
X114094680Y-70681279D01*
X114094680Y-70681279D02*
X114142300Y-70728898D01*
X114142300Y-70728898D02*
X114189919Y-70824136D01*
X114189919Y-70824136D02*
X114189919Y-71062231D01*
X114189919Y-71062231D02*
X114142300Y-71157469D01*
X114142300Y-71157469D02*
X114094680Y-71205088D01*
X128844819Y-72960588D02*
X129654342Y-72960588D01*
X129654342Y-72960588D02*
X129749580Y-72912969D01*
X129749580Y-72912969D02*
X129797200Y-72865350D01*
X129797200Y-72865350D02*
X129844819Y-72770112D01*
X129844819Y-72770112D02*
X129844819Y-72579636D01*
X129844819Y-72579636D02*
X129797200Y-72484398D01*
X129797200Y-72484398D02*
X129749580Y-72436779D01*
X129749580Y-72436779D02*
X129654342Y-72389160D01*
X129654342Y-72389160D02*
X128844819Y-72389160D01*
X129178152Y-71484398D02*
X129844819Y-71484398D01*
X128797200Y-71722493D02*
X129511485Y-71960588D01*
X129511485Y-71960588D02*
X129511485Y-71341541D01*
X106170839Y-96049580D02*
X106123220Y-96097200D01*
X106123220Y-96097200D02*
X105980363Y-96144819D01*
X105980363Y-96144819D02*
X105885125Y-96144819D01*
X105885125Y-96144819D02*
X105742268Y-96097200D01*
X105742268Y-96097200D02*
X105647030Y-96001961D01*
X105647030Y-96001961D02*
X105599411Y-95906723D01*
X105599411Y-95906723D02*
X105551792Y-95716247D01*
X105551792Y-95716247D02*
X105551792Y-95573390D01*
X105551792Y-95573390D02*
X105599411Y-95382914D01*
X105599411Y-95382914D02*
X105647030Y-95287676D01*
X105647030Y-95287676D02*
X105742268Y-95192438D01*
X105742268Y-95192438D02*
X105885125Y-95144819D01*
X105885125Y-95144819D02*
X105980363Y-95144819D01*
X105980363Y-95144819D02*
X106123220Y-95192438D01*
X106123220Y-95192438D02*
X106170839Y-95240057D01*
X106599411Y-96144819D02*
X106599411Y-95144819D01*
X106599411Y-95144819D02*
X107170839Y-96144819D01*
X107170839Y-96144819D02*
X107170839Y-95144819D01*
X107599411Y-95240057D02*
X107647030Y-95192438D01*
X107647030Y-95192438D02*
X107742268Y-95144819D01*
X107742268Y-95144819D02*
X107980363Y-95144819D01*
X107980363Y-95144819D02*
X108075601Y-95192438D01*
X108075601Y-95192438D02*
X108123220Y-95240057D01*
X108123220Y-95240057D02*
X108170839Y-95335295D01*
X108170839Y-95335295D02*
X108170839Y-95430533D01*
X108170839Y-95430533D02*
X108123220Y-95573390D01*
X108123220Y-95573390D02*
X107551792Y-96144819D01*
X107551792Y-96144819D02*
X108170839Y-96144819D01*
%TO.C,R6*%
X107779600Y-70176200D02*
X107779600Y-68816200D01*
X109939600Y-70176200D02*
X107779600Y-70176200D01*
X109939600Y-68816200D02*
X109939600Y-70176200D01*
X107779600Y-65556200D02*
X107779600Y-66916200D01*
X109939600Y-65556200D02*
X107779600Y-65556200D01*
X109939600Y-66916200D02*
X109939600Y-65556200D01*
%TO.C,U1*%
D12*
X91000000Y-60960000D02*
G75*
G02*
X90700000Y-60960000I-150000J0D01*
G01*
X90700000Y-60960000D02*
G75*
G02*
X91000000Y-60960000I150000J0D01*
G01*
X91590000Y-59170000D02*
G75*
G02*
X91290000Y-59170000I-150000J0D01*
G01*
X91290000Y-59170000D02*
G75*
G02*
X91590000Y-59170000I150000J0D01*
G01*
D10*
X94020000Y-59920000D02*
X90860000Y-59920000D01*
X94020000Y-57780000D02*
X94020000Y-59920000D01*
X90860000Y-57780000D02*
X94020000Y-57780000D01*
X90860000Y-59920000D02*
X90860000Y-57780000D01*
%TO.C,R9*%
X93110400Y-70300500D02*
X93110400Y-68940500D01*
X95270400Y-70300500D02*
X93110400Y-70300500D01*
X95270400Y-68940500D02*
X95270400Y-70300500D01*
X93110400Y-65680500D02*
X93110400Y-67040500D01*
X95270400Y-65680500D02*
X93110400Y-65680500D01*
X95270400Y-67040500D02*
X95270400Y-65680500D01*
%TO.C,R2*%
X102999800Y-77615800D02*
X102999800Y-76255800D01*
X105159800Y-77615800D02*
X102999800Y-77615800D01*
X105159800Y-76255800D02*
X105159800Y-77615800D01*
X102999800Y-72995800D02*
X102999800Y-74355800D01*
X105159800Y-72995800D02*
X102999800Y-72995800D01*
X105159800Y-74355800D02*
X105159800Y-72995800D01*
%TO.C,CN1*%
D13*
X117460000Y-83950000D02*
X117460000Y-87620000D01*
X115300000Y-83950000D02*
X117460000Y-83950000D01*
X115300000Y-83950000D02*
X115300000Y-83440000D01*
X109100000Y-87620000D02*
X117420000Y-87620000D01*
X109100000Y-83950000D02*
X109100000Y-87620000D01*
X111260000Y-83950000D02*
X109100000Y-83950000D01*
X111260000Y-83950000D02*
X111260000Y-83440000D01*
%TO.C,C1*%
D10*
X117935200Y-70414100D02*
G75*
G02*
X117785200Y-70264100I0J150000D01*
G01*
X119965200Y-70264100D02*
G75*
G02*
X119815200Y-70414100I-150000J0D01*
G01*
X117785200Y-65444100D02*
G75*
G02*
X117935200Y-65294100I150000J0D01*
G01*
X119815200Y-65294100D02*
G75*
G02*
X119965200Y-65444100I0J-150000D01*
G01*
X119815200Y-70414100D02*
X117935200Y-70414100D01*
X119965200Y-68784100D02*
X119965200Y-70264100D01*
X117785200Y-70264100D02*
X117785200Y-68784100D01*
X119815200Y-65294100D02*
X117935200Y-65294100D01*
X119965200Y-66924100D02*
X119965200Y-65444100D01*
X117785200Y-65444100D02*
X117785200Y-66924100D01*
%TO.C,U6*%
D14*
X98234800Y-58337200D02*
X98234800Y-41192200D01*
X100139800Y-60242200D02*
X114109800Y-60242200D01*
D15*
X102629800Y-39287200D02*
X102633528Y-38276928D01*
X103133528Y-37777200D02*
X111128800Y-37777200D01*
X111628800Y-38277200D02*
X111628800Y-39287200D01*
D14*
X114109800Y-39287200D02*
X100139800Y-39287200D01*
X116014800Y-58337200D02*
X116014800Y-41192200D01*
X98234800Y-41188200D02*
G75*
G02*
X100139800Y-39283200I1905001J-1D01*
G01*
X100139800Y-60242200D02*
G75*
G02*
X98234800Y-58337200I0J1905000D01*
G01*
D15*
X102633528Y-38276928D02*
G75*
G02*
X103133528Y-37777198I500022J-292D01*
G01*
X111128800Y-37777200D02*
G75*
G02*
X111628800Y-38277200I0J-500000D01*
G01*
D14*
X114109800Y-39287200D02*
G75*
G02*
X116014800Y-41192200I0J-1905000D01*
G01*
X116014800Y-58337200D02*
G75*
G02*
X114109800Y-60242200I-1905000J0D01*
G01*
D16*
X98276800Y-39703200D02*
G75*
G02*
X97772800Y-39703200I-252000J0D01*
G01*
X97772800Y-39703200D02*
G75*
G02*
X98276800Y-39703200I252000J0D01*
G01*
X99493800Y-40426200D02*
G75*
G02*
X98989800Y-40426200I-252000J0D01*
G01*
X98989800Y-40426200D02*
G75*
G02*
X99493800Y-40426200I252000J0D01*
G01*
%TO.C,CN3*%
D13*
X97300000Y-97553800D02*
X97300000Y-98063800D01*
X95140000Y-97553800D02*
X97300000Y-97553800D01*
X95140000Y-96793800D02*
X95140000Y-97553800D01*
X94630000Y-96793800D02*
X95140000Y-96793800D01*
X97890000Y-97553800D02*
X97890000Y-98063800D01*
X100050000Y-97553800D02*
X97890000Y-97553800D01*
X100050000Y-96793800D02*
X100050000Y-97553800D01*
X100560000Y-96793800D02*
X100050000Y-96793800D01*
X100090000Y-96153800D02*
X100480000Y-96153800D01*
X100090000Y-94253800D02*
X100090000Y-96153800D01*
X95140000Y-94253800D02*
X100090000Y-94253800D01*
X95140000Y-96153800D02*
X95140000Y-94253800D01*
X94630000Y-96153800D02*
X95140000Y-96153800D01*
%TO.C,Q2*%
X93414600Y-85451000D02*
X92554600Y-85451000D01*
X92554600Y-85451000D02*
X92554600Y-84451000D01*
X94364600Y-84051000D02*
X93734600Y-84051000D01*
X95554600Y-85451000D02*
X94684600Y-85451000D01*
X95554600Y-85451000D02*
X95554600Y-84451000D01*
%TO.C,U3*%
X133240000Y-88780000D02*
X133240000Y-73780000D01*
X125540000Y-88780000D02*
X133240000Y-88780000D01*
X125540000Y-73780000D02*
X133240000Y-73780000D01*
X125540000Y-88780000D02*
X125540000Y-73780000D01*
X127040000Y-73380000D02*
X127040000Y-73780000D01*
X128040000Y-73380000D02*
X128040000Y-73780000D01*
X127040000Y-73380000D02*
X128040000Y-73380000D01*
%TO.C,Q1*%
X117790000Y-78050000D02*
X116930000Y-78050000D01*
X116930000Y-78050000D02*
X116930000Y-77050000D01*
X118740000Y-76650000D02*
X118110000Y-76650000D01*
X119930000Y-78050000D02*
X119060000Y-78050000D01*
X119930000Y-78050000D02*
X119930000Y-77050000D01*
%TO.C,U5*%
X80120000Y-73780000D02*
X80120000Y-88780000D01*
X87820000Y-73780000D02*
X80120000Y-73780000D01*
X87820000Y-88780000D02*
X80120000Y-88780000D01*
X87820000Y-73780000D02*
X87820000Y-88780000D01*
X86320000Y-89180000D02*
X86320000Y-88780000D01*
X85320000Y-89180000D02*
X85320000Y-88780000D01*
X86320000Y-89180000D02*
X85320000Y-89180000D01*
%TO.C,R8*%
D10*
X97963800Y-70230700D02*
X97963800Y-68870700D01*
X100123800Y-70230700D02*
X97963800Y-70230700D01*
X100123800Y-68870700D02*
X100123800Y-70230700D01*
X97963800Y-65610700D02*
X97963800Y-66970700D01*
X100123800Y-65610700D02*
X97963800Y-65610700D01*
X100123800Y-66970700D02*
X100123800Y-65610700D01*
%TO.C,Q3*%
D13*
X98494600Y-85451000D02*
X97634600Y-85451000D01*
X97634600Y-85451000D02*
X97634600Y-84451000D01*
X99444600Y-84051000D02*
X98814600Y-84051000D01*
X100634600Y-85451000D02*
X99764600Y-85451000D01*
X100634600Y-85451000D02*
X100634600Y-84451000D01*
%TO.C,R7*%
D10*
X105140800Y-66916200D02*
X105140800Y-65556200D01*
X105140800Y-65556200D02*
X102980800Y-65556200D01*
X102980800Y-65556200D02*
X102980800Y-66916200D01*
X105140800Y-68816200D02*
X105140800Y-70176200D01*
X105140800Y-70176200D02*
X102980800Y-70176200D01*
X102980800Y-70176200D02*
X102980800Y-68816200D01*
%TO.C,R1*%
X108140000Y-77450000D02*
X108140000Y-76090000D01*
X110300000Y-77450000D02*
X108140000Y-77450000D01*
X110300000Y-76090000D02*
X110300000Y-77450000D01*
X108140000Y-72830000D02*
X108140000Y-74190000D01*
X110300000Y-72830000D02*
X108140000Y-72830000D01*
X110300000Y-74190000D02*
X110300000Y-72830000D01*
%TO.C,U2*%
D13*
X80120000Y-56000000D02*
X80120000Y-71000000D01*
X87820000Y-56000000D02*
X80120000Y-56000000D01*
X87820000Y-71000000D02*
X80120000Y-71000000D01*
X87820000Y-56000000D02*
X87820000Y-71000000D01*
X86320000Y-71400000D02*
X86320000Y-71000000D01*
X85320000Y-71400000D02*
X85320000Y-71000000D01*
X86320000Y-71400000D02*
X85320000Y-71400000D01*
%TO.C,R4*%
D10*
X93217000Y-77793900D02*
X93217000Y-76433900D01*
X95377000Y-77793900D02*
X93217000Y-77793900D01*
X95377000Y-76433900D02*
X95377000Y-77793900D01*
X93217000Y-73173900D02*
X93217000Y-74533900D01*
X95377000Y-73173900D02*
X93217000Y-73173900D01*
X95377000Y-74533900D02*
X95377000Y-73173900D01*
%TO.C,R3*%
X98440000Y-77781600D02*
X98440000Y-76421600D01*
X100600000Y-77781600D02*
X98440000Y-77781600D01*
X100600000Y-76421600D02*
X100600000Y-77781600D01*
X98440000Y-73161600D02*
X98440000Y-74521600D01*
X100600000Y-73161600D02*
X98440000Y-73161600D01*
X100600000Y-74521600D02*
X100600000Y-73161600D01*
%TO.C,R5*%
X112655100Y-70244500D02*
X112655100Y-68884500D01*
X114815100Y-70244500D02*
X112655100Y-70244500D01*
X114815100Y-68884500D02*
X114815100Y-70244500D01*
X112655100Y-65624500D02*
X112655100Y-66984500D01*
X114815100Y-65624500D02*
X112655100Y-65624500D01*
X114815100Y-66984500D02*
X114815100Y-65624500D01*
%TO.C,U4*%
D13*
X133240000Y-71000000D02*
X133240000Y-56000000D01*
X125540000Y-71000000D02*
X133240000Y-71000000D01*
X125540000Y-56000000D02*
X133240000Y-56000000D01*
X125540000Y-71000000D02*
X125540000Y-56000000D01*
X127040000Y-55600000D02*
X127040000Y-56000000D01*
X128040000Y-55600000D02*
X128040000Y-56000000D01*
X127040000Y-55600000D02*
X128040000Y-55600000D01*
%TO.C,CN2*%
X116920000Y-94110000D02*
X116920000Y-97780000D01*
X114760000Y-94110000D02*
X116920000Y-94110000D01*
X114760000Y-94110000D02*
X114760000Y-93600000D01*
X108560000Y-97780000D02*
X116880000Y-97780000D01*
X108560000Y-94110000D02*
X108560000Y-97780000D01*
X110720000Y-94110000D02*
X108560000Y-94110000D01*
X110720000Y-94110000D02*
X110720000Y-93600000D01*
%TD*%
M02*
