<?xml version="1.0" encoding="utf-8"?>
<!-- Generator: Adobe Illustrator 20.0.0, SVG Export Plug-In . SVG Version: 6.00 Build 0)  -->
<svg version="1.1" id="Layer_1" xmlns="http://www.w3.org/2000/svg" xmlns:xlink="http://www.w3.org/1999/xlink" x="0px" y="0px"
	 viewBox="0 0 280 280" style="enable-background:new 0 0 280 280;" xml:space="preserve">
<style type="text/css">
	.st0{fill:#093542;}
</style>
<g>
	<path class="st0" d="M42.9,141.7H27.1c-2.1,0-3.9,1.7-3.9,3.9v2.5c0,2.1,1.7,3.9,3.9,3.9h1.8c2.3,0,4,2,3.9,4.2
		c-0.4,5.3-2.3,10.1-9.3,10.1c-8.9,0-9.2-7.3-9.2-17.3c0-10.2,0.2-14.6,1.8-17.6c1.4-2.7,5-3.8,7.7-3.8c2.9,0,5.5,1.1,7,4.3
		c0.8,1.7,2.8,2.5,4.6,1.9l5.5-1.8c2.3-0.7,3.4-3.3,2.3-5.4c-1-2.1-2.7-4.3-5.5-6.3c-3.2-2.3-7.3-3.9-14.7-3.9
		c-10.4,0-15.9,3.4-19.3,8.5c-1.9,3.1-3.8,7.4-3.8,22.5c0,15.5,2.6,20.1,6.1,23.9c4.6,5,12.1,5.8,17.3,5.8
		c20.2,0,23.4-13.6,23.4-25.2v-6.5C46.8,143.5,45.1,141.7,42.9,141.7z"/>
	<path class="st0" d="M96,152.9c1.3-0.5,2.6-1.3,4-2.4c4.2-3.5,6.3-8.9,6.3-14.4c0-3.3-0.7-10.8-6.6-15.3c-5-3.6-10.4-3.6-13.3-3.6
		H64.9c-2.1,0-3.9,1.7-3.9,3.9v51.2c0,2.1,1.7,3.9,3.9,3.9h5.4c2.1,0,3.9-1.7,3.9-3.9v-8c0-3.7,4.8-5.3,7-2.3l9.2,12.6
		c0.7,1,1.9,1.6,3.1,1.6h7.3c3.3,0,5.1-3.9,2.9-6.4l-9.3-10.7C92.7,157.1,93.5,153.9,96,152.9z M78.3,146.8L78.3,146.8
		c-2.2,0-3.9-1.7-3.9-3.9v-11c0-2.1,1.7-3.9,3.9-3.9h2.1c3.9,0,12.1,0,12.1,9.1C92.4,146.8,84,146.8,78.3,146.8z"/>
	<path class="st0" d="M150.5,118.1l4.3-4.3c2.8-2.8,0.8-7.5-3.1-7.5h-0.1c-1.2,0-2.3,0.5-3.1,1.3l-5.5,5.5c-1.7,1.7-4.5,1.7-6.2,0
		l-5.5-5.5c-0.8-0.8-1.9-1.3-3.1-1.3h-0.1c-3.9,0-5.8,4.7-3.1,7.5l4.4,4.4c-12.6,4.3-12.8,16.7-12.8,29.5c0,10.1,0.2,23.7,12.8,28.2
		l-4.4,4.4c-2.8,2.8-0.8,7.5,3.1,7.5h0.1c1.2,0,2.3-0.5,3.1-1.3l5.5-5.5c1.7-1.7,4.5-1.7,6.2,0l5.5,5.5c0.8,0.8,1.9,1.3,3.1,1.3h0.1
		c3.9,0,5.8-4.7,3.1-7.5l-4.6-4.6c2.9-1.1,5.4-2.7,7.5-5c4.2-4.4,5.5-9.9,5.5-25c0-14.3-1.9-18.5-5.2-22.4
		C156.1,120.6,153.3,119.1,150.5,118.1z M130.9,147.4c0-12.5,0.9-14.3,2-16.1c1.4-2.2,4.2-3.4,6.9-3.4c5.2,0,7.7,3.4,8.4,5.9
		c0.8,2.9,0.8,4.7,0.8,15c0,8.1-0.2,10.2-1.4,12.8c-1.4,3.2-4.8,4.6-7.6,4.6C131.4,166.3,130.9,159,130.9,147.4z"/>
	<path class="st0" d="M217,117.3h-6.2c-2.1,0-3.9,1.7-3.9,3.9v36.5c0,4.9-2,8.6-7.9,8.6c-7.6,0-7.6-6.6-7.6-8.5v-36.6
		c0-2.1-1.7-3.9-3.9-3.9h-6.1c-2.1,0-3.9,1.7-3.9,3.9v35.9c0,2.6,0,8.9,3.8,13.4c5.4,6.6,13.1,7,17.7,7c7.8,0,13.5-2.1,17.3-6.4
		c3.6-4.1,4.5-8.9,4.5-12.5v-37.3C220.9,119,219.2,117.3,217,117.3z"/>
	<path class="st0" d="M276.1,117.3h-6.2c-2.1,0-3.9,1.7-3.9,3.9v36.5c0,4.9-2,8.6-7.9,8.6c-7.6,0-7.6-6.6-7.6-8.5v-36.6
		c0-2.1-1.7-3.9-3.9-3.9h-6.1c-2.1,0-3.9,1.7-3.9,3.9v35.9c0,2.6,0,8.9,3.8,13.4c5.4,6.6,13.1,7,17.7,7c7.8,0,13.5-2.1,17.3-6.4
		c3.6-4.1,4.5-8.9,4.5-12.5v-37.3C280,119,278.3,117.3,276.1,117.3z"/>
</g>
</svg>
