<?xml version="1.0"?>
<svg id="Layer_1" xmlns="http://www.w3.org/2000/svg" version="1.1" viewBox="0 0 192.95 651.58">
  
  <defs>
    
  </defs>
  <rect class="st1" y="76.69" width="192.95" height="79.1" rx="2.21" ry="2.21"></rect>
  <rect class="st1" y="410.75" width="192.95" height="240.83" rx="2.21" ry="2.21"></rect>
  <g>
    <path class="st1" d="M45.06,18.76h-8.38c-1.13,0-2.05.92-2.05,2.05v1.31c0,1.13.92,2.05,2.05,2.05h.94c1.21,0,2.14,1.04,2.05,2.24-.22,2.81-1.23,5.34-4.95,5.34-4.74,0-4.87-3.89-4.87-9.14s.13-7.74.93-9.31c.72-1.44,2.62-1.99,4.1-1.99,1.56,0,2.91.6,3.73,2.29.44.91,1.5,1.34,2.46,1.03l2.89-.93c1.2-.38,1.78-1.74,1.21-2.86-.55-1.09-1.42-2.27-2.89-3.34-1.69-1.23-3.85-2.07-7.79-2.07-5.5,0-8.42,1.78-10.2,4.53-1.02,1.65-1.99,3.94-1.99,11.93s1.35,10.62,3.22,12.65c2.41,2.62,6.39,3.09,9.18,3.09,10.71,0,12.4-7.19,12.4-13.37v-3.45c0-1.13-.92-2.05-2.05-2.05Z"></path>
    <path class="st1" d="M73.14,24.7c.68-.27,1.4-.68,2.11-1.28,2.24-1.86,3.34-4.7,3.34-7.62,0-1.73-.38-5.71-3.51-8.08-2.62-1.9-5.5-1.9-7.07-1.9h-11.32c-1.13,0-2.05.92-2.05,2.05v27.12c0,1.13.92,2.05,2.05,2.05h2.88c1.13,0,2.05-.92,2.05-2.05v-4.23c0-1.99,2.54-2.81,3.71-1.21l4.86,6.65c.39.53,1,.84,1.66.84h3.86c1.76,0,2.7-2.07,1.55-3.4l-4.93-5.69c-.93-1.08-.51-2.73.82-3.26ZM63.78,21.43h-.02c-1.13,0-2.05-.92-2.05-2.05v-5.84c0-1.13.92-2.05,2.05-2.05h1.12c2.07,0,6.39,0,6.39,4.82,0,5.12-4.44,5.12-7.49,5.12Z"></path>
    <path class="st1" d="M102.06,6.23l2.29-2.29c1.46-1.46.43-3.95-1.64-3.95h-.07c-.61,0-1.2.24-1.64.68l-2.9,2.9c-.9.9-2.37.9-3.27,0l-2.9-2.9c-.43-.43-1.02-.68-1.64-.68h-.07c-2.06,0-3.09,2.49-1.64,3.95l2.33,2.33c-6.66,2.28-6.8,8.85-6.8,15.61,0,5.33.09,12.54,6.8,14.93l-2.33,2.33c-1.46,1.46-.43,3.95,1.64,3.95h.07c.61,0,1.2-.24,1.64-.68l2.9-2.9c.9-.9,2.37-.9,3.27,0l2.9,2.9c.43.43,1.02.68,1.64.68h.07c2.06,0,3.09-2.49,1.64-3.95l-2.42-2.42c1.55-.58,2.87-1.46,3.97-2.65,2.2-2.33,2.92-5.25,2.92-13.25,0-7.57-1.02-9.78-2.75-11.89-1.08-1.35-2.53-2.19-4-2.71ZM91.67,21.76c0-6.64.47-7.57,1.06-8.55.76-1.19,2.2-1.78,3.64-1.78,2.75,0,4.1,1.82,4.44,3.13.42,1.52.42,2.5.42,7.96,0,4.27-.13,5.42-.72,6.77-.72,1.69-2.54,2.45-4.02,2.45-4.57,0-4.82-3.85-4.82-9.99Z"></path>
    <path class="st1" d="M137.27,5.81h-3.3c-1.13,0-2.05.92-2.05,2.05v19.32c0,2.58-1.06,4.57-4.19,4.57-4.02,0-4.02-3.51-4.02-4.49V7.86c0-1.13-.92-2.05-2.05-2.05h-3.26c-1.13,0-2.05.92-2.05,2.05v19.02c0,1.35,0,4.74,2.03,7.11,2.88,3.47,6.94,3.68,9.39,3.68,4.15,0,7.15-1.1,9.18-3.39,1.9-2.16,2.37-4.74,2.37-6.64V7.86c0-1.13-.92-2.05-2.05-2.05Z"></path>
    <path class="st1" d="M168.58,5.81h-3.3c-1.13,0-2.05.92-2.05,2.05v19.32c0,2.58-1.06,4.57-4.19,4.57-4.02,0-4.02-3.51-4.02-4.49V7.86c0-1.13-.92-2.05-2.05-2.05h-3.26c-1.13,0-2.05.92-2.05,2.05v19.02c0,1.35,0,4.74,2.03,7.11,2.88,3.47,6.94,3.68,9.39,3.68,4.15,0,7.15-1.1,9.18-3.39,1.9-2.16,2.37-4.74,2.37-6.64V7.86c0-1.13-.92-2.05-2.05-2.05Z"></path>
  </g>
  <g>
    <path class="st0" d="M45.06,113.25h-8.38c-1.13,0-2.05.92-2.05,2.05v1.31c0,1.13.92,2.05,2.05,2.05h.94c1.21,0,2.14,1.04,2.05,2.24-.22,2.81-1.23,5.34-4.95,5.34-4.74,0-4.87-3.89-4.87-9.14s.13-7.74.93-9.31c.72-1.44,2.62-1.99,4.1-1.99,1.56,0,2.91.6,3.73,2.29.44.91,1.5,1.34,2.46,1.03l2.89-.93c1.2-.38,1.78-1.74,1.21-2.86-.55-1.09-1.42-2.27-2.89-3.34-1.69-1.23-3.85-2.07-7.79-2.07-5.5,0-8.42,1.78-10.2,4.53-1.02,1.65-1.99,3.94-1.99,11.93s1.35,10.62,3.22,12.65c2.41,2.62,6.39,3.09,9.18,3.09,10.71,0,12.4-7.19,12.4-13.37v-3.45c0-1.13-.92-2.05-2.05-2.05Z"></path>
    <path class="st0" d="M73.14,119.19c.68-.27,1.4-.68,2.11-1.28,2.24-1.86,3.34-4.7,3.34-7.62,0-1.73-.38-5.71-3.51-8.08-2.62-1.9-5.5-1.9-7.07-1.9h-11.32c-1.13,0-2.05.92-2.05,2.05v27.12c0,1.13.92,2.05,2.05,2.05h2.88c1.13,0,2.05-.92,2.05-2.05v-4.23c0-1.99,2.54-2.81,3.71-1.21l4.86,6.65c.39.53,1,.84,1.66.84h3.86c1.76,0,2.7-2.07,1.55-3.4l-4.93-5.69c-.93-1.08-.51-2.73.82-3.26ZM63.78,115.92h-.02c-1.13,0-2.05-.92-2.05-2.05v-5.84c0-1.13.92-2.05,2.05-2.05h1.12c2.07,0,6.39,0,6.39,4.82,0,5.12-4.44,5.12-7.49,5.12Z"></path>
    <path class="st0" d="M102.06,100.73l2.29-2.29c1.46-1.46.43-3.95-1.64-3.95h-.07c-.61,0-1.2.24-1.64.68l-2.9,2.9c-.9.9-2.37.9-3.27,0l-2.9-2.9c-.43-.43-1.02-.68-1.64-.68h-.07c-2.06,0-3.09,2.49-1.64,3.95l2.33,2.33c-6.66,2.28-6.8,8.85-6.8,15.61,0,5.33.09,12.54,6.8,14.93l-2.33,2.33c-1.46,1.46-.43,3.95,1.64,3.95h.07c.61,0,1.2-.24,1.64-.68l2.9-2.9c.9-.9,2.37-.9,3.27,0l2.9,2.9c.43.43,1.02.68,1.64.68h.07c2.06,0,3.09-2.49,1.64-3.95l-2.42-2.42c1.55-.58,2.87-1.46,3.97-2.65,2.2-2.33,2.92-5.25,2.92-13.25,0-7.57-1.02-9.78-2.75-11.89-1.08-1.35-2.53-2.19-4-2.71ZM91.67,116.26c0-6.64.47-7.57,1.06-8.55.76-1.19,2.2-1.78,3.64-1.78,2.75,0,4.1,1.82,4.44,3.13.42,1.52.42,2.5.42,7.96,0,4.27-.13,5.42-.72,6.77-.72,1.69-2.54,2.45-4.02,2.45-4.57,0-4.82-3.85-4.82-9.99Z"></path>
    <path class="st0" d="M137.27,100.3h-3.3c-1.13,0-2.05.92-2.05,2.05v19.32c0,2.58-1.06,4.57-4.19,4.57-4.02,0-4.02-3.51-4.02-4.49v-19.4c0-1.13-.92-2.05-2.05-2.05h-3.26c-1.13,0-2.05.92-2.05,2.05v19.02c0,1.35,0,4.74,2.03,7.11,2.88,3.47,6.94,3.68,9.39,3.68,4.15,0,7.15-1.1,9.18-3.39,1.9-2.16,2.37-4.74,2.37-6.64v-19.78c0-1.13-.92-2.05-2.05-2.05Z"></path>
    <path class="st0" d="M168.58,100.3h-3.3c-1.13,0-2.05.92-2.05,2.05v19.32c0,2.58-1.06,4.57-4.19,4.57-4.02,0-4.02-3.51-4.02-4.49v-19.4c0-1.13-.92-2.05-2.05-2.05h-3.26c-1.13,0-2.05.92-2.05,2.05v19.02c0,1.35,0,4.74,2.03,7.11,2.88,3.47,6.94,3.68,9.39,3.68,4.15,0,7.15-1.1,9.18-3.39,1.9-2.16,2.37-4.74,2.37-6.64v-19.78c0-1.13-.92-2.05-2.05-2.05Z"></path>
  </g>
  <path class="st1" d="M111.83,235.32l7.55-7.55c4.82-4.82,1.4-13.05-5.4-13.05h-.22c-2.03,0-3.97.81-5.4,2.24l-9.57,9.57c-2.98,2.98-7.82,2.98-10.81,0l-9.57-9.57c-1.43-1.43-3.38-2.24-5.4-2.24h-.22c-6.81,0-10.22,8.23-5.4,13.05l7.71,7.71c-21.99,7.55-22.46,29.24-22.46,51.58,0,17.61.31,41.45,22.46,49.34l-7.71,7.71c-4.82,4.82-1.4,13.05,5.4,13.05h.22c2.03,0,3.97-.81,5.4-2.24l9.57-9.57c2.98-2.98,7.82-2.98,10.81,0l9.57,9.57c1.43,1.43,3.38,2.24,5.4,2.24h.22c6.81,0,10.22-8.23,5.4-13.05l-8.01-8.01c5.14-1.92,9.5-4.81,13.12-8.77,7.27-7.69,9.65-17.34,9.65-43.77,0-25.03-3.36-32.3-9.09-39.29-3.56-4.47-8.35-7.24-13.22-8.95ZM77.51,286.63c0-21.95,1.54-25.03,3.5-28.24,2.52-3.92,7.27-5.87,12.03-5.87,9.09,0,13.56,6.01,14.68,10.35,1.4,5.03,1.4,8.25,1.4,26.29,0,14.12-.42,17.9-2.38,22.37-2.38,5.59-8.39,8.11-13.28,8.11-15.1,0-15.94-12.72-15.94-33Z"></path>
  <path class="st0" d="M111.83,480.41l7.55-7.55c4.82-4.82,1.4-13.05-5.4-13.05h-.22c-2.03,0-3.97.81-5.4,2.24l-9.57,9.57c-2.98,2.98-7.82,2.98-10.81,0l-9.57-9.57c-1.43-1.43-3.38-2.24-5.4-2.24h-.22c-6.81,0-10.22,8.23-5.4,13.05l7.71,7.71c-21.99,7.55-22.46,29.24-22.46,51.58,0,17.61.31,41.45,22.46,49.34l-7.71,7.71c-4.82,4.82-1.4,13.05,5.4,13.05h.22c2.03,0,3.97-.81,5.4-2.24l9.57-9.57c2.98-2.98,7.82-2.98,10.81,0l9.57,9.57c1.43,1.43,3.38,2.24,5.4,2.24h.22c6.81,0,10.22-8.23,5.4-13.05l-8.01-8.01c5.14-1.92,9.5-4.81,13.12-8.77,7.27-7.69,9.65-17.34,9.65-43.77,0-25.03-3.36-32.3-9.09-39.29-3.56-4.47-8.35-7.24-13.22-8.95ZM77.51,531.72c0-21.95,1.54-25.03,3.5-28.24,2.52-3.92,7.27-5.87,12.03-5.87,9.09,0,13.56,6.01,14.68,10.35,1.4,5.03,1.4,8.25,1.4,26.29,0,14.12-.42,17.9-2.38,22.37-2.38,5.59-8.39,8.11-13.28,8.11-15.1,0-15.94-12.72-15.94-33Z"></path>
</svg>