G04 EAGLE Gerber X2 export*
%TF.Part,Single*%
%TF.FileFunction,Copper,L1,Top,Mixed*%
%TF.FilePolarity,Positive*%
%TF.GenerationSoftware,Autodesk,EAGLE,9.1.1*%
%TF.CreationDate,2018-07-26T12:17:36Z*%
G75*
%MOMM*%
%FSLAX34Y34*%
%LPD*%
%AMOC8*
5,1,8,0,0,1.08239X$1,22.5*%
G01*
%ADD10R,1.600000X1.800000*%
%ADD11R,0.800000X1.600000*%
%ADD12R,1.400000X1.000000*%
%ADD13R,1.803000X1.600000*%
%ADD14R,1.600000X1.803000*%
%ADD15R,2.540000X1.270000*%
%ADD16C,1.208000*%
%ADD17C,1.524000*%
%ADD18C,0.600000*%


D10*
X251430Y341630D03*
X279430Y341630D03*
X251430Y314960D03*
X279430Y314960D03*
D11*
X119380Y95740D03*
X119380Y61740D03*
X146050Y95740D03*
X146050Y61740D03*
D12*
X196010Y346710D03*
X218010Y356210D03*
X218010Y337210D03*
D13*
X246380Y132330D03*
X246380Y103890D03*
X25400Y78990D03*
X25400Y50550D03*
X81280Y50550D03*
X81280Y78990D03*
X53340Y50550D03*
X53340Y78990D03*
D14*
X279650Y287020D03*
X251210Y287020D03*
D15*
X276860Y256540D03*
X276860Y231140D03*
X276860Y205740D03*
X276860Y180340D03*
X276860Y154940D03*
X276860Y129540D03*
D14*
X192020Y311150D03*
X163580Y311150D03*
D16*
X217890Y289360D02*
X217890Y277280D01*
X197890Y277280D02*
X197890Y289360D01*
X177890Y289360D02*
X177890Y277280D01*
X157890Y277280D02*
X157890Y289360D01*
X137890Y289360D02*
X137890Y277280D01*
X117890Y277280D02*
X117890Y289360D01*
X97890Y289360D02*
X97890Y277280D01*
X77890Y277280D02*
X77890Y289360D01*
X217890Y137280D02*
X217890Y125200D01*
X197890Y125200D02*
X197890Y137280D01*
X177890Y137280D02*
X177890Y125200D01*
X157890Y125200D02*
X157890Y137280D01*
X137890Y137280D02*
X137890Y125200D01*
X117890Y125200D02*
X117890Y137280D01*
X97890Y137280D02*
X97890Y125200D01*
X77890Y125200D02*
X77890Y137280D01*
D17*
X181610Y50800D02*
X196850Y50800D01*
X196850Y76200D02*
X181610Y76200D01*
X217170Y50800D02*
X232410Y50800D01*
X232410Y76200D02*
X217170Y76200D01*
X274320Y40640D02*
X289560Y40640D01*
X289560Y66040D02*
X274320Y66040D01*
X274320Y91440D02*
X289560Y91440D01*
X255270Y375920D02*
X255270Y391160D01*
X280670Y391160D02*
X280670Y375920D01*
X156210Y377190D02*
X156210Y392430D01*
X130810Y392430D02*
X130810Y377190D01*
X105410Y377190D02*
X105410Y392430D01*
X80010Y392430D02*
X80010Y377190D01*
D18*
X177890Y325030D02*
X177890Y277280D01*
X177890Y325030D02*
X132927Y369993D01*
X245110Y142240D02*
X245110Y131060D01*
X245110Y142240D02*
X184150Y203200D01*
X129540Y203200D01*
X64770Y267970D01*
X64770Y303530D01*
X245110Y131060D02*
X246380Y132330D01*
X64770Y303530D02*
X132080Y370840D01*
X132927Y369993D02*
X130810Y384810D01*
X132080Y370840D02*
X132927Y369993D01*
X251460Y154940D02*
X276860Y154940D01*
X251460Y154940D02*
X190500Y215900D01*
X139270Y215900D01*
X77890Y277280D01*
X97890Y277280D02*
X146570Y228600D01*
X195580Y228600D01*
X256540Y167640D01*
X293370Y167640D02*
X297180Y163830D01*
X297180Y144780D01*
X281940Y129540D02*
X276860Y129540D01*
X293370Y167640D02*
X256540Y167640D01*
X281940Y129540D02*
X297180Y144780D01*
X146050Y95740D02*
X119380Y95740D01*
X97890Y116740D02*
X97890Y137280D01*
X118890Y95740D02*
X119380Y95740D01*
X118890Y95740D02*
X97890Y116740D01*
X218010Y356210D02*
X238500Y376700D01*
X265430Y274320D02*
X257810Y266700D01*
X265430Y274320D02*
X265430Y330200D01*
X254000Y341630D02*
X251430Y341630D01*
X257810Y266700D02*
X257810Y212090D01*
X265430Y330200D02*
X254000Y341630D01*
X257810Y212090D02*
X264160Y205740D01*
X276860Y205740D01*
X251430Y378430D02*
X254000Y381000D01*
X251430Y378430D02*
X249700Y376700D01*
X238500Y376700D01*
X251430Y378430D02*
X251430Y341630D01*
X196010Y346710D02*
X196010Y362600D01*
X200375Y379665D02*
X232410Y411700D01*
X283210Y345410D02*
X279430Y341630D01*
X283210Y345410D02*
X283210Y393920D01*
X279430Y341630D02*
X279430Y314960D01*
X279650Y314740D01*
X279650Y287020D01*
X279650Y259330D02*
X276860Y256540D01*
X279650Y259330D02*
X279650Y287020D01*
X247650Y247520D02*
X217890Y277280D01*
X247650Y247520D02*
X247650Y205740D01*
X260350Y193040D01*
X297180Y193040D01*
X297180Y241800D01*
X279650Y259330D01*
X297180Y193040D02*
X308610Y181610D01*
X53340Y78990D02*
X25400Y78990D01*
X53340Y78990D02*
X81280Y78990D01*
X25400Y78990D02*
X22860Y78990D01*
X232410Y411700D02*
X265430Y411700D01*
X283210Y393920D01*
X308610Y181610D02*
X308610Y58420D01*
X289560Y39370D01*
X281940Y40640D01*
X25400Y330200D02*
X80010Y384810D01*
X25400Y330200D02*
X25400Y78990D01*
X80360Y413312D02*
X88338Y421290D01*
X80360Y385160D02*
X80010Y384810D01*
X80360Y385160D02*
X80360Y413312D01*
X88338Y421290D02*
X91090Y421290D01*
X91440Y421640D01*
X200375Y379665D02*
X206725Y373315D01*
X158400Y421640D02*
X91440Y421640D01*
X196010Y362600D02*
X206725Y373315D01*
X200375Y379665D02*
X158400Y421640D01*
X218010Y337210D02*
X221590Y337210D01*
X243840Y314960D02*
X251430Y314960D01*
X243840Y314960D02*
X221590Y337210D01*
X190500Y334010D02*
X187960Y334010D01*
X190500Y334010D02*
X212090Y334010D01*
X215290Y337210D01*
X218010Y337210D01*
X178640Y190500D02*
X217890Y151250D01*
X178640Y190500D02*
X125730Y190500D01*
X43180Y273050D01*
X217890Y151250D02*
X217890Y137280D01*
X246380Y103890D02*
X246668Y103852D01*
X259080Y91440D01*
X281940Y91440D01*
X43180Y273050D02*
X43180Y308610D01*
X105410Y370840D01*
X105410Y384810D01*
X183010Y339225D02*
X186525Y335710D01*
X183010Y358010D02*
X156210Y384810D01*
X183010Y358010D02*
X183010Y339225D01*
X186525Y335710D02*
X188800Y335710D01*
X190500Y334010D01*
X105410Y384810D02*
X105410Y402590D01*
X113030Y411480D01*
X140970Y411480D01*
X156210Y398780D01*
X156210Y384810D01*
X130810Y20320D02*
X127000Y20320D01*
X54610Y20320D01*
X25400Y49530D02*
X25400Y50550D01*
X137890Y137280D02*
X137890Y140240D01*
X25400Y49530D02*
X54610Y20320D01*
X25400Y50550D02*
X39620Y64770D01*
X99060Y64770D01*
X137890Y137280D02*
X137890Y142780D01*
X127000Y153670D01*
X71120Y153670D01*
X62230Y144780D01*
X62230Y116840D01*
X71120Y107950D01*
X86360Y107950D01*
X99060Y95250D01*
X99060Y64770D01*
X130810Y20320D02*
X238760Y20320D01*
X260700Y46282D02*
X268678Y54260D01*
X260700Y42260D02*
X238760Y20320D01*
X260700Y42260D02*
X260700Y46282D01*
X268678Y54260D02*
X270160Y54260D01*
X281940Y66040D01*
X136540Y78900D02*
X119380Y61740D01*
X136540Y78900D02*
X153670Y78900D01*
X82300Y49530D02*
X81280Y50550D01*
X82300Y49530D02*
X107170Y49530D01*
X153670Y78900D02*
X160735Y71835D01*
X162560Y70010D01*
X119380Y61740D02*
X107170Y49530D01*
X160735Y71835D02*
X189230Y50800D01*
X64770Y33020D02*
X53340Y44450D01*
X64770Y33020D02*
X123190Y33020D01*
X146050Y54120D02*
X146050Y61740D01*
X53340Y50550D02*
X53340Y44450D01*
X123190Y33020D02*
X146050Y55880D01*
X146050Y61740D01*
X152400Y38100D01*
X165100Y31750D01*
X204549Y31750D01*
X224790Y50800D01*
X157890Y115000D02*
X157890Y137280D01*
X157890Y115000D02*
X189230Y76200D01*
X177890Y118230D02*
X177890Y137280D01*
X177890Y118230D02*
X224790Y76200D01*
X137890Y277280D02*
X137890Y294100D01*
X156210Y312420D01*
X157480Y311150D01*
X163580Y311150D01*
X192020Y311150D02*
X227080Y311150D01*
X251210Y287020D01*
M02*
