G04 EAGLE Gerber X2 export*
%TF.Part,Single*%
%TF.FileFunction,Soldermask,Top,1*%
%TF.FilePolarity,Negative*%
%TF.GenerationSoftware,Autodesk,EAGLE,9.1.1*%
%TF.CreationDate,2018-07-26T12:17:36Z*%
G75*
%MOMM*%
%FSLAX34Y34*%
%LPD*%
%AMOC8*
5,1,8,0,0,1.08239X$1,22.5*%
G01*
%ADD10R,1.803200X2.003200*%
%ADD11R,1.003200X1.803200*%
%ADD12R,1.603200X1.203200*%
%ADD13R,2.006200X1.803200*%
%ADD14R,1.803200X2.006200*%
%ADD15R,2.743200X1.473200*%
%ADD16C,1.411200*%
%ADD17C,1.727200*%


D10*
X251430Y341630D03*
X279430Y341630D03*
X251430Y314960D03*
X279430Y314960D03*
D11*
X119380Y95740D03*
X119380Y61740D03*
X146050Y95740D03*
X146050Y61740D03*
D12*
X196010Y346710D03*
X218010Y356210D03*
X218010Y337210D03*
D13*
X246380Y132330D03*
X246380Y103890D03*
X25400Y78990D03*
X25400Y50550D03*
X81280Y50550D03*
X81280Y78990D03*
X53340Y50550D03*
X53340Y78990D03*
D14*
X279650Y287020D03*
X251210Y287020D03*
D15*
X276860Y256540D03*
X276860Y231140D03*
X276860Y205740D03*
X276860Y180340D03*
X276860Y154940D03*
X276860Y129540D03*
D14*
X192020Y311150D03*
X163580Y311150D03*
D16*
X217890Y289360D02*
X217890Y277280D01*
X197890Y277280D02*
X197890Y289360D01*
X177890Y289360D02*
X177890Y277280D01*
X157890Y277280D02*
X157890Y289360D01*
X137890Y289360D02*
X137890Y277280D01*
X117890Y277280D02*
X117890Y289360D01*
X97890Y289360D02*
X97890Y277280D01*
X77890Y277280D02*
X77890Y289360D01*
X217890Y137280D02*
X217890Y125200D01*
X197890Y125200D02*
X197890Y137280D01*
X177890Y137280D02*
X177890Y125200D01*
X157890Y125200D02*
X157890Y137280D01*
X137890Y137280D02*
X137890Y125200D01*
X117890Y125200D02*
X117890Y137280D01*
X97890Y137280D02*
X97890Y125200D01*
X77890Y125200D02*
X77890Y137280D01*
D17*
X181610Y50800D02*
X196850Y50800D01*
X196850Y76200D02*
X181610Y76200D01*
X217170Y50800D02*
X232410Y50800D01*
X232410Y76200D02*
X217170Y76200D01*
X274320Y40640D02*
X289560Y40640D01*
X289560Y66040D02*
X274320Y66040D01*
X274320Y91440D02*
X289560Y91440D01*
X255270Y375920D02*
X255270Y391160D01*
X280670Y391160D02*
X280670Y375920D01*
X156210Y377190D02*
X156210Y392430D01*
X130810Y392430D02*
X130810Y377190D01*
X105410Y377190D02*
X105410Y392430D01*
X80010Y392430D02*
X80010Y377190D01*
M02*
